<svg width="466" height="388" viewBox="0 0 466 388" fill="none" xmlns="http://www.w3.org/2000/svg">
<g filter="url(#filter0_d_18_994)">
<path d="M45.2905 230.143C57.0566 15.4933 333.316 17.0369 411.822 136.098C490.329 255.159 33.5244 444.793 45.2905 230.143Z" fill="url(#paint0_linear_18_994)"/>
</g>
<path d="M234 38.25C151.275 38.25 84 105.525 84 188.25C84 270.975 151.275 338.25 234 338.25C316.725 338.25 384 270.975 384 188.25C384 105.525 316.725 38.25 234 38.25ZM221.325 55.2C223.8 53.7 227.025 55.5 227.025 58.425V102C227.025 104.1 225.3 105.825 223.125 105.75C213.525 105.375 204.45 104.55 195.225 103.275C192.9 102.975 191.4 100.5 192.225 98.25C197.175 84.75 203.1 73.8 209.775 65.7C213.525 61.125 217.35 57.6 221.325 55.2ZM227.025 123.375V177.15C227.025 179.25 225.375 180.9 223.275 180.9H181.95C179.85 180.9 178.125 179.175 178.2 177C178.875 157.35 181.2 137.925 185.85 119.25C186.3 117.375 188.175 116.175 190.05 116.475C201 118.2 212.475 119.25 223.425 119.625C225.45 119.775 227.025 121.425 227.025 123.375ZM144.675 84.675C158.025 73.125 172.8 64.725 189 58.95C190.5 58.425 192.225 58.875 193.2 60.15C194.175 61.425 194.25 63.15 193.35 64.5C187.5 73.5 182.4 84.3 178.05 96.75C177.45 98.55 175.575 99.6 173.7 99.15C163.95 96.9 154.65 94.125 145.875 90.975C143.175 90.075 142.5 86.55 144.675 84.675ZM97.95 176.85C100.125 149.7 110.25 123.675 128.025 101.85C129.075 100.575 130.8 100.125 132.375 100.725C144.375 105.6 156.45 109.425 169.35 112.425C171.375 112.875 172.65 114.9 172.125 116.925C167.475 136.125 164.925 156.975 164.25 177.225C164.175 179.25 162.525 180.825 160.5 180.825H101.7C99.525 180.9 97.8 179.025 97.95 176.85ZM128.025 274.65C110.85 253.5 100.2 227.7 97.95 199.575C97.8 197.4 99.525 195.525 101.7 195.525H160.5C162.525 195.525 164.175 197.1 164.25 199.125C164.85 219.15 167.4 240.075 172.125 259.425C172.65 261.45 171.375 263.475 169.35 263.925C156.375 267 144 270.975 132.375 275.625C131.925 275.925 129.075 275.925 128.025 274.65ZM193.2 316.275C192.225 317.55 190.5 318.075 189 317.55C172.875 311.925 157.65 303.15 144.6 291.825C142.425 289.95 143.1 286.425 145.8 285.45C153.375 282.675 163.125 279.675 173.625 277.275C175.5 276.825 177.375 277.875 177.975 279.675C182.325 292.125 187.425 302.925 193.35 311.85C194.25 313.2 194.175 315 193.2 316.275ZM227.025 318.075C227.025 319.425 226.275 320.7 225.15 321.375C223.95 322.05 222.525 322.05 221.4 321.3C217.5 318.9 213.6 315.45 209.85 310.875C203.175 302.775 197.25 291.825 192.3 278.325C191.475 276.075 192.9 273.675 195.3 273.3C204.375 271.95 213.45 271.125 223.2 270.825C225.3 270.75 227.1 272.475 227.1 274.575V318.075H227.025ZM227.025 253.125C227.025 255.15 225.45 256.8 223.425 256.875C212.175 257.325 201 258.375 190.05 260.025C188.1 260.325 186.3 259.05 185.85 257.25C181.2 238.5 178.875 219.075 178.2 199.5C178.125 197.4 179.85 195.6 181.95 195.6H223.275C225.375 195.6 227.025 197.25 227.025 199.35V253.125ZM339.975 101.85C357.15 123 367.875 148.8 370.05 176.85C370.125 177.9 369.75 178.95 369.075 179.7C368.4 180.45 367.35 180.9 366.3 180.9H307.5C305.475 180.9 303.825 179.325 303.75 177.3C303.075 156.9 300.525 136.125 295.875 117C295.35 114.975 296.625 112.95 298.65 112.5C311.925 109.35 324 105.45 335.625 100.8C337.125 100.125 338.925 100.575 339.975 101.85ZM274.8 60.225C275.775 58.95 277.5 58.425 279 59.025C295.2 64.725 309.975 73.125 323.325 84.75C325.5 86.625 324.825 90.15 322.125 91.125C312.9 94.425 303.525 97.125 294.3 99.3C292.425 99.75 290.55 98.7 289.95 96.9C285.6 84.375 280.425 73.575 274.575 64.725C273.75 63.225 273.825 61.5 274.8 60.225ZM240.975 58.425C240.975 55.5 244.125 53.7 246.675 55.2C250.65 57.6 254.55 61.125 258.3 65.625C264.975 73.725 270.9 84.675 275.85 98.175C276.675 100.425 275.25 102.825 272.85 103.2C263.625 104.55 254.475 105.375 244.875 105.675C244.8 105.675 242.85 105.3 242.1 104.625C241.35 103.95 240.975 102.975 240.975 101.925V58.425ZM240.975 123.375C240.975 121.35 242.55 119.7 244.575 119.625C255.825 119.175 267.075 118.125 277.95 116.475C279.9 116.175 281.7 117.375 282.15 119.25C286.8 138.075 289.2 157.575 289.8 177C289.8 178.05 289.425 179.025 288.75 179.7C288.075 180.45 287.1 180.825 286.05 180.825H244.725C242.625 180.825 240.975 179.175 240.975 177.075V123.375ZM240.975 199.35C240.975 197.25 242.625 195.6 244.725 195.6H286.05C288.15 195.6 289.875 197.325 289.8 199.5C289.2 218.775 286.875 238.35 282.15 257.25C281.7 259.125 279.9 260.325 277.95 260.025C266.7 258.3 255.675 257.25 244.575 256.875C242.55 256.8 240.975 255.15 240.975 253.125V199.35ZM246.6 321.3C244.125 322.8 240.9 321 240.9 318.075V274.5C240.9 272.4 242.625 270.675 244.8 270.75C254.7 271.125 263.775 271.95 272.775 273.225C275.1 273.6 276.6 276 275.775 278.25C270.825 291.75 264.9 302.7 258.225 310.8C254.475 315.375 250.575 318.9 246.6 321.3ZM323.325 291.825C310.275 303.15 295.125 311.925 278.925 317.55C277.425 318.075 275.7 317.55 274.725 316.275C273.75 315 273.675 313.275 274.575 311.925C280.425 303.075 285.6 292.275 289.95 279.75C290.55 277.95 292.5 276.9 294.3 277.35C304.875 279.75 314.775 282.825 322.125 285.525C324.825 286.425 325.5 289.95 323.325 291.825ZM339.975 274.65C338.925 275.925 337.2 276.375 335.625 275.775C324.15 271.125 311.7 267.15 298.65 264.075C296.625 263.625 295.35 261.6 295.875 259.575C300.525 240.3 303.075 219.375 303.75 199.275C303.825 197.25 305.475 195.675 307.5 195.675H366.3C368.475 195.675 370.2 197.55 370.05 199.725C367.8 227.55 357.225 253.425 339.975 274.65Z" fill="#FDBA8C"/>
<path d="M397.125 102C400.232 102 402.75 99.4816 402.75 96.375C402.75 93.2684 400.232 90.75 397.125 90.75C394.018 90.75 391.5 93.2684 391.5 96.375C391.5 99.4816 394.018 102 397.125 102Z" fill="url(#paint1_linear_18_994)"/>
<path d="M374.625 330.75C377.732 330.75 380.25 328.232 380.25 325.125C380.25 322.018 377.732 319.5 374.625 319.5C371.518 319.5 369 322.018 369 325.125C369 328.232 371.518 330.75 374.625 330.75Z" fill="url(#paint2_linear_18_994)"/>
<path d="M310.875 30.75C313.982 30.75 316.5 28.2316 316.5 25.125C316.5 22.0184 313.982 19.5 310.875 19.5C307.768 19.5 305.25 22.0184 305.25 25.125C305.25 28.2316 307.768 30.75 310.875 30.75Z" fill="url(#paint3_linear_18_994)"/>
<path d="M157.125 353.25C160.232 353.25 162.75 350.732 162.75 347.625C162.75 344.518 160.232 342 157.125 342C154.018 342 151.5 344.518 151.5 347.625C151.5 350.732 154.018 353.25 157.125 353.25Z" fill="url(#paint4_linear_18_994)"/>
<path d="M130.875 34.5C133.982 34.5 136.5 31.9816 136.5 28.875C136.5 25.7684 133.982 23.25 130.875 23.25C127.768 23.25 125.25 25.7684 125.25 28.875C125.25 31.9816 127.768 34.5 130.875 34.5Z" fill="url(#paint5_linear_18_994)"/>
<path d="M70.875 90.75C73.9816 90.75 76.5 88.2316 76.5 85.125C76.5 82.0184 73.9816 79.5 70.875 79.5C67.7684 79.5 65.25 82.0184 65.25 85.125C65.25 88.2316 67.7684 90.75 70.875 90.75Z" fill="url(#paint6_linear_18_994)"/>
<path d="M145.875 91.05C154.65 94.2 163.95 96.975 173.7 99.225C175.575 99.675 177.45 98.625 178.05 96.825C182.4 84.375 187.575 73.5 193.425 64.65C194.325 63.3 194.25 61.575 193.275 60.3C192.3 59.025 190.575 58.5 189.075 59.1C172.875 64.8 158.025 73.275 144.75 84.825C142.5 86.55 143.175 90.075 145.875 91.05ZM154.725 86.175C162.975 79.725 171.975 74.325 181.425 70.05C178.05 76.425 174.9 83.475 172.125 91.125C165.75 89.55 160.125 87.9 154.725 86.175Z" fill="url(#paint7_linear_18_994)"/>
<path d="M101.7 180.9H160.5C162.525 180.9 164.175 179.325 164.25 177.3C164.925 157.05 167.475 136.2 172.125 117C172.65 114.975 171.375 112.95 169.35 112.5C156.45 109.425 144.375 105.6 132.375 100.8C130.875 100.2 129.075 100.65 128.025 101.925C110.25 123.75 100.05 149.775 97.95 176.925C97.8 179.025 99.525 180.9 101.7 180.9ZM105.825 173.4C108.45 149.7 117.45 127.5 132.15 108.675C142.5 112.725 152.85 116.025 163.95 118.8C160.05 136.05 157.65 154.725 156.9 173.325H105.825V173.4Z" fill="url(#paint8_linear_18_994)"/>
<path d="M190.05 116.475C188.1 116.175 186.3 117.375 185.85 119.25C181.2 137.925 178.875 157.35 178.2 177C178.125 179.1 179.85 180.9 181.95 180.9H223.275C225.375 180.9 227.025 179.25 227.025 177.15V123.375C227.025 121.35 225.45 119.7 223.425 119.625C212.475 119.25 201.075 118.2 190.05 116.475ZM219.525 173.4H185.85C186.6 156.975 188.625 140.55 192.375 124.35C201.225 125.625 210.45 126.45 219.525 126.975V173.4Z" fill="url(#paint9_linear_18_994)"/>
<path d="M244.725 180.9H286.05C287.1 180.9 288.075 180.525 288.75 179.775C289.425 179.025 289.8 178.05 289.8 177.075C289.2 157.65 286.8 138.15 282.15 119.325C281.7 117.45 279.9 116.25 277.95 116.55C267.075 118.2 255.75 119.25 244.575 119.7C242.55 119.775 240.975 121.425 240.975 123.45V177.225C240.975 179.25 242.625 180.9 244.725 180.9ZM248.475 126.975C257.55 126.525 266.7 125.625 275.7 124.35C279.375 140.4 281.475 156.825 282.225 173.4H248.55V126.975H248.475Z" fill="url(#paint10_linear_18_994)"/>
<path d="M295.875 117C300.45 136.125 303.075 156.9 303.75 177.3C303.825 179.325 305.475 180.9 307.5 180.9H366.3C367.35 180.9 368.325 180.45 369.075 179.7C369.75 178.95 370.125 177.9 370.05 176.85C367.875 148.8 357.15 123 339.975 101.85C338.925 100.575 337.2 100.125 335.625 100.725C324 105.45 311.925 109.275 298.65 112.425C296.625 112.95 295.35 114.975 295.875 117ZM311.1 173.4C310.35 155.475 308.1 136.725 304.05 118.875C315.225 116.1 325.575 112.725 335.85 108.75C350.55 127.575 359.55 149.85 362.175 173.475H311.1V173.4Z" fill="url(#paint11_linear_18_994)"/>
<path d="M289.95 96.825C290.55 98.625 292.5 99.675 294.3 99.225C303.525 97.125 312.9 94.425 322.125 91.05C324.825 90.075 325.5 86.55 323.325 84.675C309.975 73.125 295.2 64.65 279 58.95C277.5 58.425 275.775 58.875 274.8 60.15C273.825 61.425 273.75 63.15 274.65 64.5C280.425 73.425 285.6 84.3 289.95 96.825ZM286.575 70.05C296.1 74.325 305.1 79.725 313.275 86.175C307.8 87.975 302.1 89.625 295.875 91.125C293.1 83.475 289.95 76.425 286.575 70.05Z" fill="url(#paint12_linear_18_994)"/>
<path d="M244.8 105.75C254.4 105.375 263.475 104.55 272.775 103.275C275.1 102.975 276.6 100.5 275.775 98.25C270.825 84.75 264.9 73.8 258.225 65.7C254.475 61.125 250.575 57.675 246.6 55.275C244.125 53.775 240.9 55.575 240.9 58.5V102C240.9 103.05 241.35 104.025 242.025 104.7C242.85 105.375 244.8 105.75 244.8 105.75ZM248.475 66.075C256.65 73.875 262.875 85.95 267.075 96.45C260.625 97.275 254.175 97.8 248.475 98.1V66.075Z" fill="url(#paint13_linear_18_994)"/>
<path d="M195.225 103.2C204.45 104.55 213.6 105.375 223.125 105.675C225.3 105.75 227.025 104.025 227.025 101.925L227.025 58.425C227.025 55.5 223.8 53.7 221.325 55.2C217.35 57.6 213.45 61.125 209.775 65.625C203.1 73.725 197.175 84.675 192.225 98.175C191.4 100.5 192.9 102.9 195.225 103.2ZM219.525 98.1C213.825 97.8 207.375 97.275 200.925 96.45C205.125 85.95 211.35 73.95 219.525 66.15V98.1Z" fill="url(#paint14_linear_18_994)"/>
<path d="M322.125 285.45C314.775 282.75 304.875 279.75 294.3 277.275C292.425 276.825 290.55 277.875 289.95 279.675C285.6 292.125 280.425 303 274.575 311.85C273.675 313.2 273.75 314.925 274.725 316.2C275.7 317.475 277.425 318 278.925 317.475C295.05 311.925 310.275 303.075 323.325 291.75C325.5 289.95 324.825 286.425 322.125 285.45ZM313.35 290.325C305.1 296.775 296.175 302.175 286.575 306.45C289.95 300.075 293.1 293.025 295.95 285.375C301.65 286.725 307.275 288.375 313.35 290.325Z" fill="url(#paint15_linear_18_994)"/>
<path d="M366.3 195.6H307.5C305.475 195.6 303.825 197.175 303.75 199.2C303.15 219.3 300.525 240.225 295.875 259.5C295.35 261.525 296.625 263.55 298.65 264C311.7 267.075 324.15 271.05 335.625 275.7C337.125 276.3 338.925 275.85 339.975 274.575C357.225 253.35 367.875 227.475 370.05 199.5C370.2 197.4 368.475 195.6 366.3 195.6ZM362.175 203.1C359.55 226.725 350.475 249 335.85 267.825C325.35 263.7 314.775 260.325 304.05 257.7C307.95 240.3 310.35 221.55 311.1 203.175H362.175V203.1Z" fill="url(#paint16_linear_18_994)"/>
<path d="M244.575 256.8C255.675 257.175 266.7 258.3 277.95 259.95C279.9 260.25 281.7 259.05 282.15 257.175C286.875 238.2 289.2 218.7 289.8 199.425C289.875 197.325 288.15 195.525 286.05 195.525H244.725C242.625 195.525 240.975 197.175 240.975 199.275V253.05C240.975 255.075 242.55 256.725 244.575 256.8ZM282.15 203.1C281.4 219.45 279.45 235.875 275.625 252.15C266.4 250.875 257.475 249.975 248.4 249.525V203.1H282.15Z" fill="url(#paint17_linear_18_994)"/>
<path d="M223.275 195.6H181.95C179.85 195.6 178.125 197.325 178.2 199.5C178.875 219.075 181.2 238.5 185.85 257.25C186.3 259.125 188.1 260.325 190.05 260.025C201 258.375 212.175 257.25 223.425 256.875C225.45 256.8 227.025 255.15 227.025 253.125V199.35C227.025 197.25 225.375 195.6 223.275 195.6ZM219.525 249.525C210.9 249.975 201.9 250.8 192.375 252.15C188.625 236.1 186.6 219.6 185.85 203.1H219.525V249.525Z" fill="url(#paint18_linear_18_994)"/>
<path d="M172.125 259.5C167.475 240.15 164.925 219.225 164.25 199.2C164.175 197.175 162.525 195.6 160.5 195.6H101.7C99.525 195.6 97.8 197.475 97.95 199.65C100.125 227.7 110.85 253.575 128.025 274.725C129.075 276 131.85 276 132.375 275.85C144 271.125 156.375 267.15 169.35 264.15C171.375 263.55 172.65 261.525 172.125 259.5ZM156.9 203.1C157.65 221.25 159.975 240.075 163.95 257.625C153.075 260.325 142.425 263.775 132.15 267.75C117.45 248.925 108.45 226.65 105.825 203.025H156.9V203.1Z" fill="url(#paint19_linear_18_994)"/>
<path d="M178.05 279.75C177.45 277.95 175.5 276.9 173.7 277.35C163.275 279.75 153.45 282.75 145.875 285.525C143.175 286.5 142.575 290.025 144.675 291.9C157.725 303.225 172.875 312 189.075 317.625C190.575 318.15 192.3 317.625 193.275 316.35C194.25 315.075 194.325 313.35 193.425 312C187.5 303 182.325 292.2 178.05 279.75ZM181.425 306.45C171.825 302.175 162.9 296.775 154.65 290.325C160.8 288.3 166.35 286.725 172.05 285.375C174.9 293.025 178.05 300.075 181.425 306.45Z" fill="url(#paint20_linear_18_994)"/>
<path d="M223.125 270.75C213.375 271.125 204.225 271.95 195.225 273.225C192.9 273.6 191.4 276 192.225 278.25C197.175 291.75 203.1 302.7 209.775 310.8C213.525 315.375 217.425 318.825 221.325 321.225C222.45 321.9 223.95 321.975 225.075 321.3C226.275 320.625 226.95 319.425 226.95 318V274.5C227.025 272.4 225.3 270.675 223.125 270.75ZM219.525 310.425C211.35 302.55 205.125 290.625 200.925 280.05C206.85 279.3 212.7 278.775 219.525 278.4V310.425Z" fill="url(#paint21_linear_18_994)"/>
<path d="M272.775 273.3C263.85 272.025 254.775 271.125 244.8 270.825C242.625 270.75 240.9 272.475 240.9 274.575V318.15C240.9 321.075 244.05 322.875 246.6 321.375C250.575 318.975 254.475 315.525 258.225 310.95C264.9 302.85 270.825 291.9 275.775 278.4C276.6 276 275.175 273.6 272.775 273.3ZM248.475 278.4C255.375 278.775 261.3 279.3 267.075 280.05C262.875 290.55 256.65 302.55 248.475 310.425V278.4Z" fill="url(#paint22_linear_18_994)"/>
<path d="M234 30.75C147.15 30.75 76.5 101.4 76.5 188.25C76.5 275.1 147.15 345.75 234 345.75C320.85 345.75 391.5 275.1 391.5 188.25C391.5 101.4 320.85 30.75 234 30.75ZM234 338.25C151.275 338.25 84 270.975 84 188.25C84 105.525 151.275 38.25 234 38.25C316.725 38.25 384 105.525 384 188.25C384 270.975 316.725 338.25 234 338.25Z" fill="url(#paint23_linear_18_994)"/>
<path d="M372.75 68.25C385.125 68.25 395.25 58.125 395.25 45.75C395.25 33.375 385.125 23.25 372.75 23.25C360.375 23.25 350.25 33.375 350.25 45.75C350.25 58.125 360.375 68.25 372.75 68.25ZM372.75 30.75C381 30.75 387.75 37.5 387.75 45.75C387.75 54 381 60.75 372.75 60.75C364.5 60.75 357.75 54 357.75 45.75C357.75 37.5 364.5 30.75 372.75 30.75Z" fill="url(#paint24_linear_18_994)"/>
<path d="M95.25 312C80.775 312 69 323.775 69 338.25C69 352.725 80.775 364.5 95.25 364.5C109.725 364.5 121.5 352.725 121.5 338.25C121.5 323.775 109.725 312 95.25 312ZM95.25 357C84.9 357 76.5 348.6 76.5 338.25C76.5 327.9 84.9 319.5 95.25 319.5C105.6 319.5 114 327.9 114 338.25C114 348.6 105.6 357 95.25 357Z" fill="url(#paint25_linear_18_994)"/>
<defs>
<filter id="filter0_d_18_994" x="0.0668945" y="25.5413" width="465.833" height="362.091" filterUnits="userSpaceOnUse" color-interpolation-filters="sRGB">
<feFlood flood-opacity="0" result="BackgroundImageFix"/>
<feColorMatrix in="SourceAlpha" type="matrix" values="0 0 0 0 0 0 0 0 0 0 0 0 0 0 0 0 0 0 127 0" result="hardAlpha"/>
<feOffset dy="15"/>
<feGaussianBlur stdDeviation="22.5"/>
<feComposite in2="hardAlpha" operator="out"/>
<feColorMatrix type="matrix" values="0 0 0 0 0 0 0 0 0 0 0 0 0 0 0 0 0 0 0.05 0"/>
<feBlend mode="normal" in2="BackgroundImageFix" result="effect1_dropShadow_18_994"/>
<feBlend mode="normal" in="SourceGraphic" in2="effect1_dropShadow_18_994" result="shape"/>
</filter>
<linearGradient id="paint0_linear_18_994" x1="293.27" y1="55.7953" x2="158.757" y2="347.705" gradientUnits="userSpaceOnUse">
<stop stop-color="#F1F4FF"/>
<stop offset="1" stop-color="#FEECDC"/>
<stop offset="1" stop-color="#FFF1E4"/>
</linearGradient>
<linearGradient id="paint1_linear_18_994" x1="233.025" y1="395.424" x2="237.128" y2="148.198" gradientUnits="userSpaceOnUse">
<stop stop-color="#FF928E"/>
<stop offset="1" stop-color="#FE7062"/>
</linearGradient>
<linearGradient id="paint2_linear_18_994" x1="233.025" y1="395.424" x2="237.128" y2="148.198" gradientUnits="userSpaceOnUse">
<stop stop-color="#FF928E"/>
<stop offset="1" stop-color="#FE7062"/>
</linearGradient>
<linearGradient id="paint3_linear_18_994" x1="233.025" y1="395.424" x2="237.128" y2="148.198" gradientUnits="userSpaceOnUse">
<stop stop-color="#FF928E"/>
<stop offset="1" stop-color="#FE7062"/>
</linearGradient>
<linearGradient id="paint4_linear_18_994" x1="233.025" y1="395.424" x2="237.128" y2="148.198" gradientUnits="userSpaceOnUse">
<stop stop-color="#FF928E"/>
<stop offset="1" stop-color="#FE7062"/>
</linearGradient>
<linearGradient id="paint5_linear_18_994" x1="233.025" y1="395.424" x2="237.128" y2="148.198" gradientUnits="userSpaceOnUse">
<stop stop-color="#FF928E"/>
<stop offset="1" stop-color="#FE7062"/>
</linearGradient>
<linearGradient id="paint6_linear_18_994" x1="233.025" y1="395.424" x2="237.128" y2="148.198" gradientUnits="userSpaceOnUse">
<stop stop-color="#FF928E"/>
<stop offset="1" stop-color="#FE7062"/>
</linearGradient>
<linearGradient id="paint7_linear_18_994" x1="233.025" y1="395.424" x2="237.128" y2="148.198" gradientUnits="userSpaceOnUse">
<stop stop-color="#FF928E"/>
<stop offset="1" stop-color="#FE7062"/>
</linearGradient>
<linearGradient id="paint8_linear_18_994" x1="233.025" y1="395.424" x2="237.128" y2="148.198" gradientUnits="userSpaceOnUse">
<stop stop-color="#FF928E"/>
<stop offset="1" stop-color="#FE7062"/>
</linearGradient>
<linearGradient id="paint9_linear_18_994" x1="233.025" y1="395.424" x2="237.128" y2="148.198" gradientUnits="userSpaceOnUse">
<stop stop-color="#FF928E"/>
<stop offset="1" stop-color="#FE7062"/>
</linearGradient>
<linearGradient id="paint10_linear_18_994" x1="233.025" y1="395.424" x2="237.128" y2="148.198" gradientUnits="userSpaceOnUse">
<stop stop-color="#FF928E"/>
<stop offset="1" stop-color="#FE7062"/>
</linearGradient>
<linearGradient id="paint11_linear_18_994" x1="233.025" y1="395.424" x2="237.128" y2="148.198" gradientUnits="userSpaceOnUse">
<stop stop-color="#FF928E"/>
<stop offset="1" stop-color="#FE7062"/>
</linearGradient>
<linearGradient id="paint12_linear_18_994" x1="233.025" y1="395.424" x2="237.128" y2="148.198" gradientUnits="userSpaceOnUse">
<stop stop-color="#FF928E"/>
<stop offset="1" stop-color="#FE7062"/>
</linearGradient>
<linearGradient id="paint13_linear_18_994" x1="233.025" y1="395.424" x2="237.128" y2="148.198" gradientUnits="userSpaceOnUse">
<stop stop-color="#FF928E"/>
<stop offset="1" stop-color="#FE7062"/>
</linearGradient>
<linearGradient id="paint14_linear_18_994" x1="233.025" y1="395.424" x2="237.128" y2="148.198" gradientUnits="userSpaceOnUse">
<stop stop-color="#FF928E"/>
<stop offset="1" stop-color="#FE7062"/>
</linearGradient>
<linearGradient id="paint15_linear_18_994" x1="233.025" y1="395.424" x2="237.128" y2="148.198" gradientUnits="userSpaceOnUse">
<stop stop-color="#FF928E"/>
<stop offset="1" stop-color="#FE7062"/>
</linearGradient>
<linearGradient id="paint16_linear_18_994" x1="233.025" y1="395.424" x2="237.128" y2="148.198" gradientUnits="userSpaceOnUse">
<stop stop-color="#FF928E"/>
<stop offset="1" stop-color="#FE7062"/>
</linearGradient>
<linearGradient id="paint17_linear_18_994" x1="233.025" y1="395.424" x2="237.128" y2="148.198" gradientUnits="userSpaceOnUse">
<stop stop-color="#FF928E"/>
<stop offset="1" stop-color="#FE7062"/>
</linearGradient>
<linearGradient id="paint18_linear_18_994" x1="233.025" y1="395.424" x2="237.128" y2="148.198" gradientUnits="userSpaceOnUse">
<stop stop-color="#FF928E"/>
<stop offset="1" stop-color="#FE7062"/>
</linearGradient>
<linearGradient id="paint19_linear_18_994" x1="233.025" y1="395.424" x2="237.128" y2="148.198" gradientUnits="userSpaceOnUse">
<stop stop-color="#FF928E"/>
<stop offset="1" stop-color="#FE7062"/>
</linearGradient>
<linearGradient id="paint20_linear_18_994" x1="233.025" y1="395.424" x2="237.128" y2="148.198" gradientUnits="userSpaceOnUse">
<stop stop-color="#FF928E"/>
<stop offset="1" stop-color="#FE7062"/>
</linearGradient>
<linearGradient id="paint21_linear_18_994" x1="233.025" y1="395.424" x2="237.128" y2="148.198" gradientUnits="userSpaceOnUse">
<stop stop-color="#FF928E"/>
<stop offset="1" stop-color="#FE7062"/>
</linearGradient>
<linearGradient id="paint22_linear_18_994" x1="233.025" y1="395.424" x2="237.128" y2="148.198" gradientUnits="userSpaceOnUse">
<stop stop-color="#FF928E"/>
<stop offset="1" stop-color="#FE7062"/>
</linearGradient>
<linearGradient id="paint23_linear_18_994" x1="233.025" y1="395.424" x2="237.128" y2="148.198" gradientUnits="userSpaceOnUse">
<stop stop-color="#FF928E"/>
<stop offset="1" stop-color="#FE7062"/>
</linearGradient>
<linearGradient id="paint24_linear_18_994" x1="233.025" y1="395.424" x2="237.128" y2="148.198" gradientUnits="userSpaceOnUse">
<stop stop-color="#FF928E"/>
<stop offset="1" stop-color="#FE7062"/>
</linearGradient>
<linearGradient id="paint25_linear_18_994" x1="233.025" y1="395.424" x2="237.128" y2="148.198" gradientUnits="userSpaceOnUse">
<stop stop-color="#FF928E"/>
<stop offset="1" stop-color="#FE7062"/>
</linearGradient>
</defs>
</svg>
