<svg width="326" height="334" viewBox="0 0 326 334" fill="none" xmlns="http://www.w3.org/2000/svg">
<path d="M248.125 227C247.15 225.8 247 224.15 247.825 222.8C252.775 214.475 256.45 205.55 258.775 196.475C259.15 194.975 260.425 193.85 262 193.7L301.15 189.65V151.775L262 147.725C260.425 147.575 259.15 146.45 258.775 144.95C256.45 135.8 252.775 126.875 247.825 118.625C247.075 117.275 247.15 115.625 248.125 114.425L272.95 83.9L246.175 57.125L215.65 81.95C214.45 82.925 212.8 83.075 211.45 82.25C203.125 77.3 194.275 73.625 185.125 71.3C183.625 70.925 182.5 69.65 182.35 68.075L178.3 28.925H140.425L136.375 68.075C136.225 69.65 135.1 70.925 133.6 71.3C124.375 73.625 115.525 77.3 107.2 82.25C105.85 83 104.2 82.925 103 81.95L72.4748 57.125L45.6998 83.9L70.5248 114.425C71.4998 115.625 71.6498 117.275 70.8248 118.625C65.9498 126.95 62.2748 135.8 59.8748 145.025C59.4998 146.525 58.2248 147.65 56.6498 147.8L17.4998 151.775V189.65L56.6498 193.7C58.2248 193.85 59.4998 194.975 59.8748 196.475C62.1998 205.625 65.8748 214.475 70.8248 222.8C71.5748 224.15 71.4998 225.8 70.5248 227L45.6998 257.525L72.4748 284.3L103 259.475C104.2 258.5 105.85 258.35 107.2 259.175C115.525 264.05 124.375 267.725 133.6 270.125C135.1 270.5 136.225 271.775 136.375 273.35L140.425 312.5H178.3L182.35 273.35C182.5 271.775 183.625 270.5 185.125 270.125C194.275 267.8 203.125 264.125 211.45 259.175C212.8 258.425 214.45 258.5 215.65 259.475L246.175 284.3L272.95 257.525L248.125 227ZM192.25 225.05C185.575 228.725 181.45 235.625 181.45 242.975V250.1C181.45 252.125 179.8 253.775 177.775 253.775H140.875C138.85 253.775 137.2 252.125 137.2 250.1V242.975C137.2 235.55 133.075 228.725 126.475 225.05C104.125 212.675 90.5498 189.275 90.9998 163.85C91.6748 128.6 119.725 99.275 154.9 96.95C156.4 96.875 157.9 96.8 159.325 96.8C196.975 96.8 227.65 127.475 227.65 165.2C227.65 190.025 214.075 212.975 192.25 225.05Z" fill="#FDBA8C"/>
<path d="M299.65 19.325C289.45 19.325 281.2 27.575 281.2 37.775C281.2 47.975 289.45 56.225 299.65 56.225C309.85 56.225 318.1 47.975 318.1 37.775C318.1 27.575 309.775 19.325 299.65 19.325Z" fill="#FDBA8C"/>
<path d="M30.0889 315.016C30.2689 308.888 25.4473 303.775 19.3193 303.595C13.1914 303.415 8.07782 308.236 7.89775 314.364C7.71768 320.492 12.5393 325.606 18.6673 325.786C24.7952 325.966 29.9088 321.144 30.0889 315.016Z" fill="#FDBA8C"/>
<path d="M308.875 248.225C305.8 248.225 303.325 250.7 303.325 253.775C303.325 256.85 305.8 259.325 308.875 259.325C311.95 259.325 314.425 256.85 314.425 253.775C314.35 250.7 311.875 248.225 308.875 248.225Z" fill="url(#paint0_linear_303_41)"/>
<path d="M310.675 113.45C310.675 110.375 308.2 107.9 305.125 107.9C302.05 107.9 299.575 110.375 299.575 113.45C299.575 116.525 302.05 119 305.125 119C308.2 119 310.675 116.525 310.675 113.45Z" fill="url(#paint1_linear_303_41)"/>
<path d="M246.1 307.325C243.025 307.325 240.55 309.8 240.55 312.875C240.55 315.95 243.025 318.425 246.1 318.425C249.175 318.425 251.65 315.95 251.65 312.875C251.65 309.8 249.1 307.325 246.1 307.325Z" fill="url(#paint2_linear_303_41)"/>
<path d="M194.35 11.9C197.425 11.9 199.9 9.42499 199.9 6.34999C199.9 3.27499 197.425 0.799988 194.35 0.799988C191.275 0.799988 188.8 3.27499 188.8 6.34999C188.875 9.42499 191.35 11.9 194.35 11.9Z" fill="url(#paint3_linear_303_41)"/>
<path d="M102.1 311C99.0248 311 96.5498 313.475 96.5498 316.55C96.5498 319.625 99.0248 322.1 102.1 322.1C105.175 322.1 107.65 319.625 107.65 316.55C107.65 313.475 105.1 311 102.1 311Z" fill="url(#paint4_linear_303_41)"/>
<path d="M90.9998 19.325C94.065 19.325 96.5498 16.8402 96.5498 13.775C96.5498 10.7098 94.065 8.22499 90.9998 8.22499C87.9346 8.22499 85.4498 10.7098 85.4498 13.775C85.4498 16.8402 87.9346 19.325 90.9998 19.325Z" fill="url(#paint5_linear_303_41)"/>
<path d="M17.1248 74.675C20.1998 74.675 22.6748 72.2 22.6748 69.125C22.6748 66.05 20.1998 63.575 17.1248 63.575C14.0498 63.575 11.5748 66.05 11.5748 69.125C11.5748 72.2 14.1248 74.675 17.1248 74.675Z" fill="url(#paint6_linear_303_41)"/>
<path d="M9.89713 240.883C12.9617 240.817 15.392 238.278 15.3255 235.214C15.2589 232.149 12.7206 229.719 9.65599 229.785C6.59143 229.852 4.16108 232.39 4.22767 235.455C4.29426 238.519 6.83257 240.95 9.89713 240.883Z" fill="url(#paint7_linear_303_41)"/>
<path d="M255.475 224.375C259.675 216.875 262.975 208.925 265.225 200.825L305.2 196.625C307.075 196.4 308.5 194.825 308.5 192.95V148.475C308.5 146.6 307.075 145.025 305.2 144.8L265.225 140.6C262.9 132.425 259.675 124.55 255.475 117.05L280.825 85.925C282.025 84.425 281.875 82.325 280.6 80.975L249.1 49.55C247.75 48.2 245.65 48.125 244.15 49.325L213.025 74.6C205.525 70.4 197.575 67.1 189.475 64.85L185.275 24.875C185.05 23 183.475 21.575 181.6 21.575H137.125C135.25 21.575 133.675 23 133.45 24.875L129.25 64.85C121.075 67.175 113.2 70.4 105.7 74.6L74.4998 49.25C72.9998 48.05 70.8998 48.2 69.5498 49.475L38.1248 80.9C36.7748 82.25 36.6998 84.35 37.8998 85.85L63.1748 116.975C58.9748 124.475 55.6748 132.35 53.4248 140.525L13.4498 144.725C11.5748 144.95 10.1498 146.525 10.1498 148.4V192.875C10.1498 194.75 11.5748 196.325 13.4498 196.55L53.4248 200.75C55.6748 208.85 58.9748 216.8 63.1748 224.3L37.8998 255.5C36.6998 257 36.8498 259.1 38.1248 260.45L69.5498 291.95C70.8998 293.3 72.9998 293.375 74.4998 292.175L105.625 266.825C113.125 271.025 121 274.325 129.175 276.575L133.375 316.55C133.6 318.425 135.175 319.85 137.05 319.85H181.525C183.4 319.85 184.975 318.425 185.2 316.55L189.4 276.575C197.5 274.325 205.45 271.025 212.95 266.825L244.075 292.175C245.575 293.375 247.675 293.3 249.025 291.95L280.525 260.45C281.875 259.1 281.95 257 280.75 255.5L255.475 224.375ZM215.65 259.475C214.45 258.5 212.8 258.35 211.45 259.175C203.125 264.125 194.275 267.8 185.125 270.125C183.625 270.5 182.5 271.775 182.35 273.35L178.3 312.5H140.425L136.375 273.35C136.225 271.85 135.1 270.5 133.6 270.125C124.375 267.8 115.525 264.125 107.2 259.175C105.85 258.425 104.2 258.5 103 259.475L72.4748 284.3L45.6998 257.525L70.5248 227C71.4998 225.8 71.6498 224.15 70.8248 222.8C65.8748 214.475 62.1998 205.625 59.8748 196.475C59.4998 194.975 58.2248 193.85 56.6498 193.7L17.4998 189.65V151.775L56.6498 147.725C58.1498 147.575 59.4248 146.45 59.8748 144.95C62.1998 135.725 65.8748 126.875 70.8248 118.55C71.5748 117.2 71.4998 115.55 70.5248 114.35L45.6998 83.825L72.4748 57.05L103 81.875C104.2 82.85 105.85 83 107.2 82.175C115.525 77.3 124.375 73.625 133.6 71.225C135.1 70.85 136.225 69.575 136.375 68L140.425 28.85H178.3L182.35 68C182.5 69.575 183.625 70.85 185.125 71.225C194.275 73.55 203.125 77.225 211.45 82.175C212.8 82.925 214.45 82.85 215.65 81.875L246.175 57.05L272.95 83.825L248.125 114.35C247.15 115.55 247 117.2 247.825 118.55C252.7 126.875 256.375 135.725 258.775 144.875C259.15 146.375 260.425 147.5 262 147.65L301.15 151.7V189.575L262 193.625C260.425 193.775 259.15 194.9 258.775 196.4C256.45 205.55 252.775 214.4 247.825 222.725C247.075 224.075 247.15 225.725 248.125 226.925L272.95 257.45L246.175 284.225L215.65 259.475Z" fill="url(#paint8_linear_303_41)"/>
<path d="M159.325 96.875C157.825 96.875 156.325 96.95 154.9 97.025C119.725 99.275 91.6748 128.675 90.9998 163.925C90.4748 189.35 104.125 212.825 126.475 225.125C133.075 228.8 137.2 235.625 137.2 243.05V250.175C137.2 252.2 138.85 253.85 140.875 253.85H177.775C179.8 253.85 181.45 252.2 181.45 250.175V243.05C181.45 235.625 185.575 228.8 192.25 225.125C214.075 213.05 227.65 190.1 227.65 165.275C227.65 127.55 196.975 96.875 159.325 96.875ZM174.1 246.425H144.55V242.975C144.55 232.85 139 223.55 130 218.6C110.05 207.575 97.8998 186.65 98.3498 164C98.9498 132.575 124 106.4 155.35 104.375C156.7 104.3 158.05 104.225 159.325 104.225C192.925 104.225 220.225 131.6 220.225 165.2C220.225 187.325 208.15 207.8 188.65 218.525C179.65 223.475 174.1 232.85 174.1 242.9V246.425Z" fill="url(#paint9_linear_303_41)"/>
<path d="M190 134.9C199.075 143.375 204.25 155.375 204.25 167.75C204.25 169.775 205.9 171.425 207.925 171.425C209.95 171.425 211.6 169.775 211.6 167.75C211.6 153.35 205.525 139.4 195.025 129.5C184.375 119.525 170.425 114.5 155.875 115.4C128.95 117.125 107.425 139.625 106.9 166.625C106.825 168.65 108.475 170.375 110.5 170.375C112.6 170.375 114.25 168.8 114.25 166.775C114.7 143.6 133.15 124.25 156.325 122.75C168.925 122 180.85 126.275 190 134.9Z" fill="url(#paint10_linear_303_41)"/>
<path d="M170.35 150.425C165.925 150.425 161.95 152.375 159.25 155.45C156.55 152.375 152.575 150.425 148.15 150.425C139.975 150.425 133.375 157.025 133.375 165.2C133.375 173.375 139.975 179.975 148.15 179.975C150.85 179.975 153.325 179.225 155.5 177.95V220.55C155.5 222.575 157.15 224.225 159.175 224.225C161.2 224.225 162.85 222.575 162.85 220.55V177.95C165.025 179.225 167.575 179.975 170.2 179.975C178.375 179.975 184.975 173.375 184.975 165.2C185.125 157.025 178.525 150.425 170.35 150.425ZM170.35 172.55C166.3 172.55 163 169.25 163 165.2C163 161.15 166.3 157.85 170.35 157.85C174.4 157.85 177.7 161.15 177.7 165.2C177.775 169.25 174.475 172.55 170.35 172.55ZM148.225 172.55C144.175 172.55 140.875 169.25 140.875 165.2C140.875 161.15 144.175 157.85 148.225 157.85C152.275 157.85 155.575 161.15 155.575 165.2C155.65 169.25 152.275 172.55 148.225 172.55Z" fill="url(#paint11_linear_303_41)"/>
<path d="M299.65 11.9C285.4 11.9 273.775 23.525 273.775 37.775C273.775 52.025 285.4 63.65 299.65 63.65C313.9 63.65 325.525 52.025 325.525 37.775C325.45 23.525 313.9 11.9 299.65 11.9ZM299.65 56.225C289.45 56.225 281.2 47.975 281.2 37.775C281.2 27.575 289.45 19.325 299.65 19.325C309.85 19.325 318.1 27.575 318.1 37.775C318.1 47.975 309.775 56.225 299.65 56.225Z" fill="url(#paint12_linear_303_41)"/>
<path d="M18.9998 296.225C8.7998 296.225 0.549805 304.475 0.549805 314.675C0.549805 324.875 8.7998 333.125 18.9998 333.125C29.1998 333.125 37.4498 324.875 37.4498 314.675C37.4498 304.475 29.1998 296.225 18.9998 296.225ZM18.9998 325.775C12.9248 325.775 7.8998 320.825 7.8998 314.675C7.8998 308.525 12.8498 303.575 18.9998 303.575C25.0748 303.575 30.0998 308.525 30.0998 314.675C30.0998 320.825 25.0748 325.775 18.9998 325.775Z" fill="url(#paint13_linear_303_41)"/>
<defs>
<linearGradient id="paint0_linear_303_41" x1="162.099" y1="362.913" x2="166.052" y2="124.77" gradientUnits="userSpaceOnUse">
<stop stop-color="#FF928E"/>
<stop offset="1" stop-color="#FE7062"/>
</linearGradient>
<linearGradient id="paint1_linear_303_41" x1="162.099" y1="362.913" x2="166.052" y2="124.77" gradientUnits="userSpaceOnUse">
<stop stop-color="#FF928E"/>
<stop offset="1" stop-color="#FE7062"/>
</linearGradient>
<linearGradient id="paint2_linear_303_41" x1="162.099" y1="362.913" x2="166.052" y2="124.77" gradientUnits="userSpaceOnUse">
<stop stop-color="#FF928E"/>
<stop offset="1" stop-color="#FE7062"/>
</linearGradient>
<linearGradient id="paint3_linear_303_41" x1="162.099" y1="362.913" x2="166.052" y2="124.77" gradientUnits="userSpaceOnUse">
<stop stop-color="#FF928E"/>
<stop offset="1" stop-color="#FE7062"/>
</linearGradient>
<linearGradient id="paint4_linear_303_41" x1="162.099" y1="362.913" x2="166.052" y2="124.77" gradientUnits="userSpaceOnUse">
<stop stop-color="#FF928E"/>
<stop offset="1" stop-color="#FE7062"/>
</linearGradient>
<linearGradient id="paint5_linear_303_41" x1="162.099" y1="362.913" x2="166.052" y2="124.77" gradientUnits="userSpaceOnUse">
<stop stop-color="#FF928E"/>
<stop offset="1" stop-color="#FE7062"/>
</linearGradient>
<linearGradient id="paint6_linear_303_41" x1="162.099" y1="362.913" x2="166.052" y2="124.77" gradientUnits="userSpaceOnUse">
<stop stop-color="#FF928E"/>
<stop offset="1" stop-color="#FE7062"/>
</linearGradient>
<linearGradient id="paint7_linear_303_41" x1="162.099" y1="362.913" x2="166.052" y2="124.77" gradientUnits="userSpaceOnUse">
<stop stop-color="#FF928E"/>
<stop offset="1" stop-color="#FE7062"/>
</linearGradient>
<linearGradient id="paint8_linear_303_41" x1="162.099" y1="362.913" x2="166.052" y2="124.77" gradientUnits="userSpaceOnUse">
<stop stop-color="#FF928E"/>
<stop offset="1" stop-color="#FE7062"/>
</linearGradient>
<linearGradient id="paint9_linear_303_41" x1="162.099" y1="362.913" x2="166.052" y2="124.77" gradientUnits="userSpaceOnUse">
<stop stop-color="#FF928E"/>
<stop offset="1" stop-color="#FE7062"/>
</linearGradient>
<linearGradient id="paint10_linear_303_41" x1="162.099" y1="362.913" x2="166.052" y2="124.77" gradientUnits="userSpaceOnUse">
<stop stop-color="#FF928E"/>
<stop offset="1" stop-color="#FE7062"/>
</linearGradient>
<linearGradient id="paint11_linear_303_41" x1="162.099" y1="362.913" x2="166.052" y2="124.77" gradientUnits="userSpaceOnUse">
<stop stop-color="#FF928E"/>
<stop offset="1" stop-color="#FE7062"/>
</linearGradient>
<linearGradient id="paint12_linear_303_41" x1="162.099" y1="362.913" x2="166.052" y2="124.77" gradientUnits="userSpaceOnUse">
<stop stop-color="#FF928E"/>
<stop offset="1" stop-color="#FE7062"/>
</linearGradient>
<linearGradient id="paint13_linear_303_41" x1="162.099" y1="362.913" x2="166.052" y2="124.77" gradientUnits="userSpaceOnUse">
<stop stop-color="#FF928E"/>
<stop offset="1" stop-color="#FE7062"/>
</linearGradient>
</defs>
</svg>
