<svg width="74" height="14" viewBox="0 0 74 14" fill="none" xmlns="http://www.w3.org/2000/svg">
<path d="M6.1 0.304929C6.75913 0.251074 7.42215 0.339045 8.04443 0.562921C8.66671 0.786798 9.23381 1.14138 9.70755 1.60281C10.1813 2.06424 10.5507 2.6218 10.7909 3.23797C11.0311 3.85414 11.1365 4.51461 11.1 5.17493C11.1 8.17493 8.98 10.0349 5.85 10.0349H3.94V13.6849H0V0.304929H6.1ZM3.94 7.08493H5.04C5.30522 7.12059 5.57505 7.09733 5.83025 7.01679C6.08546 6.93626 6.31976 6.80044 6.51648 6.619C6.71319 6.43757 6.86747 6.21498 6.96833 5.96711C7.06919 5.71923 7.11415 5.45216 7.1 5.18493C7.11912 4.92049 7.07991 4.65508 6.98514 4.40746C6.89037 4.15985 6.74236 3.93608 6.55158 3.75197C6.36079 3.56786 6.13189 3.42792 5.88106 3.34203C5.63023 3.25614 5.36359 3.22641 5.1 3.25493H3.94V7.08493Z" fill="#3E3E3E"/>
<path d="M16.42 13.6852H12.48V0.305176H18.43C22 0.305176 23.84 1.97517 23.84 4.84517C23.8705 5.61303 23.684 6.37394 23.302 7.04072C22.92 7.70749 22.3578 8.25315 21.68 8.61517L24.22 13.6852H19.82L17.71 9.19518H16.42V13.6852ZM16.42 6.59517H18.04C18.2709 6.6183 18.5041 6.59154 18.7238 6.51669C18.9435 6.44185 19.1446 6.32067 19.3134 6.16137C19.4821 6.00206 19.6147 5.80835 19.7021 5.59334C19.7895 5.37834 19.8297 5.14706 19.82 4.91518C19.827 4.68787 19.7872 4.46155 19.7031 4.25025C19.619 4.03895 19.4924 3.84719 19.3311 3.68685C19.1699 3.52651 18.9774 3.40102 18.7656 3.31816C18.5538 3.2353 18.3272 3.19685 18.1 3.20517H16.42V6.59517Z" fill="#3E3E3E"/>
<path d="M38.5801 6.99496C38.5801 11.275 35.9801 13.915 31.8401 13.915C27.7001 13.915 25.1001 11.275 25.1001 6.99496C25.1001 2.71496 27.7001 0.0849609 31.8401 0.0849609C35.9801 0.0849609 38.5801 2.72496 38.5801 6.99496ZM29.1001 6.99496C29.1001 9.30496 30.1901 10.785 31.8401 10.785C33.4901 10.785 34.5701 9.30496 34.5701 6.99496C34.5701 4.68496 33.4801 3.20496 31.8401 3.20496C30.2001 3.20496 29.1001 4.67496 29.1001 6.99496Z" fill="#3E3E3E"/>
<path d="M40.1001 13.6852V0.305176H49.5101V3.42517H44.0401V5.99517H49.0401V8.99517H44.0401V13.7352L40.1001 13.6852Z" fill="#3E3E3E"/>
<path d="M52.8899 13.6852V0.305176H56.8299V13.6852H52.8899Z" fill="#DC1010"/>
<path d="M61.6999 13.6852V3.42517H58.1699V0.305176H69.1699V3.42517H65.6299V13.6852H61.6999Z" fill="#DC1010"/>
</svg>
