<svg width="338" height="346" viewBox="0 0 338 346" fill="none" xmlns="http://www.w3.org/2000/svg">
<path d="M169 19.25C86.275 19.25 19 86.525 19 169.25C19 251.975 86.275 319.25 169 319.25C251.725 319.25 319 251.975 319 169.25C319 86.525 251.725 19.25 169 19.25ZM156.325 36.2C158.8 34.7 162.025 36.5 162.025 39.425V83C162.025 85.1 160.3 86.825 158.125 86.75C148.525 86.375 139.45 85.55 130.225 84.275C127.9 83.975 126.4 81.5 127.225 79.25C132.175 65.75 138.1 54.8 144.775 46.7C148.525 42.125 152.35 38.6 156.325 36.2ZM162.025 104.375V158.15C162.025 160.25 160.375 161.9 158.275 161.9H116.95C114.85 161.9 113.125 160.175 113.2 158C113.875 138.35 116.2 118.925 120.85 100.25C121.3 98.375 123.175 97.175 125.05 97.475C136 99.2 147.475 100.25 158.425 100.625C160.45 100.775 162.025 102.425 162.025 104.375ZM79.675 65.675C93.025 54.125 107.8 45.725 124 39.95C125.5 39.425 127.225 39.875 128.2 41.15C129.175 42.425 129.25 44.15 128.35 45.5C122.5 54.5 117.4 65.3 113.05 77.75C112.45 79.55 110.575 80.6 108.7 80.15C98.95 77.9 89.65 75.125 80.875 71.975C78.175 71.075 77.5 67.55 79.675 65.675ZM32.95 157.85C35.125 130.7 45.25 104.675 63.025 82.85C64.075 81.575 65.8 81.125 67.375 81.725C79.375 86.6 91.45 90.425 104.35 93.425C106.375 93.875 107.65 95.9 107.125 97.925C102.475 117.125 99.925 137.975 99.25 158.225C99.175 160.25 97.525 161.825 95.5 161.825H36.7C34.525 161.9 32.8 160.025 32.95 157.85ZM63.025 255.65C45.85 234.5 35.2 208.7 32.95 180.575C32.8 178.4 34.525 176.525 36.7 176.525H95.5C97.525 176.525 99.175 178.1 99.25 180.125C99.85 200.15 102.4 221.075 107.125 240.425C107.65 242.45 106.375 244.475 104.35 244.925C91.375 248 79 251.975 67.375 256.625C66.925 256.925 64.075 256.925 63.025 255.65ZM128.2 297.275C127.225 298.55 125.5 299.075 124 298.55C107.875 292.925 92.65 284.15 79.6 272.825C77.425 270.95 78.1 267.425 80.8 266.45C88.375 263.675 98.125 260.675 108.625 258.275C110.5 257.825 112.375 258.875 112.975 260.675C117.325 273.125 122.425 283.925 128.35 292.85C129.25 294.2 129.175 296 128.2 297.275ZM162.025 299.075C162.025 300.425 161.275 301.7 160.15 302.375C158.95 303.05 157.525 303.05 156.4 302.3C152.5 299.9 148.6 296.45 144.85 291.875C138.175 283.775 132.25 272.825 127.3 259.325C126.475 257.075 127.9 254.675 130.3 254.3C139.375 252.95 148.45 252.125 158.2 251.825C160.3 251.75 162.1 253.475 162.1 255.575V299.075H162.025ZM162.025 234.125C162.025 236.15 160.45 237.8 158.425 237.875C147.175 238.325 136 239.375 125.05 241.025C123.1 241.325 121.3 240.05 120.85 238.25C116.2 219.5 113.875 200.075 113.2 180.5C113.125 178.4 114.85 176.6 116.95 176.6H158.275C160.375 176.6 162.025 178.25 162.025 180.35V234.125ZM274.975 82.85C292.15 104 302.875 129.8 305.05 157.85C305.125 158.9 304.75 159.95 304.075 160.7C303.4 161.45 302.35 161.9 301.3 161.9H242.5C240.475 161.9 238.825 160.325 238.75 158.3C238.075 137.9 235.525 117.125 230.875 98C230.35 95.975 231.625 93.95 233.65 93.5C246.925 90.35 259 86.45 270.625 81.8C272.125 81.125 273.925 81.575 274.975 82.85ZM209.8 41.225C210.775 39.95 212.5 39.425 214 40.025C230.2 45.725 244.975 54.125 258.325 65.75C260.5 67.625 259.825 71.15 257.125 72.125C247.9 75.425 238.525 78.125 229.3 80.3C227.425 80.75 225.55 79.7 224.95 77.9C220.6 65.375 215.425 54.575 209.575 45.725C208.75 44.225 208.825 42.5 209.8 41.225ZM175.975 39.425C175.975 36.5 179.125 34.7 181.675 36.2C185.65 38.6 189.55 42.125 193.3 46.625C199.975 54.725 205.9 65.675 210.85 79.175C211.675 81.425 210.25 83.825 207.85 84.2C198.625 85.55 189.475 86.375 179.875 86.675C179.8 86.675 177.85 86.3 177.1 85.625C176.35 84.95 175.975 83.975 175.975 82.925V39.425ZM175.975 104.375C175.975 102.35 177.55 100.7 179.575 100.625C190.825 100.175 202.075 99.125 212.95 97.475C214.9 97.175 216.7 98.375 217.15 100.25C221.8 119.075 224.2 138.575 224.8 158C224.8 159.05 224.425 160.025 223.75 160.7C223.075 161.45 222.1 161.825 221.05 161.825H179.725C177.625 161.825 175.975 160.175 175.975 158.075V104.375ZM175.975 180.35C175.975 178.25 177.625 176.6 179.725 176.6H221.05C223.15 176.6 224.875 178.325 224.8 180.5C224.2 199.775 221.875 219.35 217.15 238.25C216.7 240.125 214.9 241.325 212.95 241.025C201.7 239.3 190.675 238.25 179.575 237.875C177.55 237.8 175.975 236.15 175.975 234.125V180.35ZM181.6 302.3C179.125 303.8 175.9 302 175.9 299.075V255.5C175.9 253.4 177.625 251.675 179.8 251.75C189.7 252.125 198.775 252.95 207.775 254.225C210.1 254.6 211.6 257 210.775 259.25C205.825 272.75 199.9 283.7 193.225 291.8C189.475 296.375 185.575 299.9 181.6 302.3ZM258.325 272.825C245.275 284.15 230.125 292.925 213.925 298.55C212.425 299.075 210.7 298.55 209.725 297.275C208.75 296 208.675 294.275 209.575 292.925C215.425 284.075 220.6 273.275 224.95 260.75C225.55 258.95 227.5 257.9 229.3 258.35C239.875 260.75 249.775 263.825 257.125 266.525C259.825 267.425 260.5 270.95 258.325 272.825ZM274.975 255.65C273.925 256.925 272.2 257.375 270.625 256.775C259.15 252.125 246.7 248.15 233.65 245.075C231.625 244.625 230.35 242.6 230.875 240.575C235.525 221.3 238.075 200.375 238.75 180.275C238.825 178.25 240.475 176.675 242.5 176.675H301.3C303.475 176.675 305.2 178.55 305.05 180.725C302.8 208.55 292.225 234.425 274.975 255.65Z" fill="#FDBA8C"/>
<path d="M332.125 83C335.232 83 337.75 80.4816 337.75 77.375C337.75 74.2684 335.232 71.75 332.125 71.75C329.018 71.75 326.5 74.2684 326.5 77.375C326.5 80.4816 329.018 83 332.125 83Z" fill="url(#paint0_linear_18_963)"/>
<path d="M309.625 311.75C312.732 311.75 315.25 309.232 315.25 306.125C315.25 303.018 312.732 300.5 309.625 300.5C306.518 300.5 304 303.018 304 306.125C304 309.232 306.518 311.75 309.625 311.75Z" fill="url(#paint1_linear_18_963)"/>
<path d="M245.875 11.75C248.982 11.75 251.5 9.2316 251.5 6.125C251.5 3.0184 248.982 0.5 245.875 0.5C242.768 0.5 240.25 3.0184 240.25 6.125C240.25 9.2316 242.768 11.75 245.875 11.75Z" fill="url(#paint2_linear_18_963)"/>
<path d="M92.125 334.25C95.2316 334.25 97.75 331.732 97.75 328.625C97.75 325.518 95.2316 323 92.125 323C89.0184 323 86.5 325.518 86.5 328.625C86.5 331.732 89.0184 334.25 92.125 334.25Z" fill="url(#paint3_linear_18_963)"/>
<path d="M65.875 15.5C68.9816 15.5 71.5 12.9816 71.5 9.875C71.5 6.7684 68.9816 4.25 65.875 4.25C62.7684 4.25 60.25 6.7684 60.25 9.875C60.25 12.9816 62.7684 15.5 65.875 15.5Z" fill="url(#paint4_linear_18_963)"/>
<path d="M5.875 71.75C8.9816 71.75 11.5 69.2316 11.5 66.125C11.5 63.0184 8.9816 60.5 5.875 60.5C2.7684 60.5 0.25 63.0184 0.25 66.125C0.25 69.2316 2.7684 71.75 5.875 71.75Z" fill="url(#paint5_linear_18_963)"/>
<path d="M80.875 72.05C89.65 75.2 98.95 77.975 108.7 80.225C110.575 80.675 112.45 79.625 113.05 77.825C117.4 65.375 122.575 54.5 128.425 45.65C129.325 44.3 129.25 42.575 128.275 41.3C127.3 40.025 125.575 39.5 124.075 40.1C107.875 45.8 93.025 54.275 79.75 65.825C77.5 67.55 78.175 71.075 80.875 72.05ZM89.725 67.175C97.975 60.725 106.975 55.325 116.425 51.05C113.05 57.425 109.9 64.475 107.125 72.125C100.75 70.55 95.125 68.9 89.725 67.175Z" fill="url(#paint6_linear_18_963)"/>
<path d="M36.7 161.9H95.5C97.525 161.9 99.175 160.325 99.25 158.3C99.925 138.05 102.475 117.2 107.125 98C107.65 95.975 106.375 93.95 104.35 93.5C91.45 90.425 79.375 86.6 67.375 81.8C65.875 81.2 64.075 81.65 63.025 82.925C45.25 104.75 35.05 130.775 32.95 157.925C32.8 160.025 34.525 161.9 36.7 161.9ZM40.825 154.4C43.45 130.7 52.45 108.5 67.15 89.675C77.5 93.725 87.85 97.025 98.95 99.8C95.05 117.05 92.65 135.725 91.9 154.325H40.825V154.4Z" fill="url(#paint7_linear_18_963)"/>
<path d="M125.05 97.475C123.1 97.175 121.3 98.375 120.85 100.25C116.2 118.925 113.875 138.35 113.2 158C113.125 160.1 114.85 161.9 116.95 161.9H158.275C160.375 161.9 162.025 160.25 162.025 158.15V104.375C162.025 102.35 160.45 100.7 158.425 100.625C147.475 100.25 136.075 99.2 125.05 97.475ZM154.525 154.4H120.85C121.6 137.975 123.625 121.55 127.375 105.35C136.225 106.625 145.45 107.45 154.525 107.975V154.4Z" fill="url(#paint8_linear_18_963)"/>
<path d="M179.725 161.9H221.05C222.1 161.9 223.075 161.525 223.75 160.775C224.425 160.025 224.8 159.05 224.8 158.075C224.2 138.65 221.8 119.15 217.15 100.325C216.7 98.45 214.9 97.25 212.95 97.55C202.075 99.2 190.75 100.25 179.575 100.7C177.55 100.775 175.975 102.425 175.975 104.45V158.225C175.975 160.25 177.625 161.9 179.725 161.9ZM183.475 107.975C192.55 107.525 201.7 106.625 210.7 105.35C214.375 121.4 216.475 137.825 217.225 154.4H183.55V107.975H183.475Z" fill="url(#paint9_linear_18_963)"/>
<path d="M230.875 98C235.45 117.125 238.075 137.9 238.75 158.3C238.825 160.325 240.475 161.9 242.5 161.9H301.3C302.35 161.9 303.325 161.45 304.075 160.7C304.75 159.95 305.125 158.9 305.05 157.85C302.875 129.8 292.15 104 274.975 82.85C273.925 81.575 272.2 81.125 270.625 81.725C259 86.45 246.925 90.275 233.65 93.425C231.625 93.95 230.35 95.975 230.875 98ZM246.1 154.4C245.35 136.475 243.1 117.725 239.05 99.875C250.225 97.1 260.575 93.725 270.85 89.75C285.55 108.575 294.55 130.85 297.175 154.475H246.1V154.4Z" fill="url(#paint10_linear_18_963)"/>
<path d="M224.95 77.825C225.55 79.625 227.5 80.675 229.3 80.225C238.525 78.125 247.9 75.425 257.125 72.05C259.825 71.075 260.5 67.55 258.325 65.675C244.975 54.125 230.2 45.65 214 39.95C212.5 39.425 210.775 39.875 209.8 41.15C208.825 42.425 208.75 44.15 209.65 45.5C215.425 54.425 220.6 65.3 224.95 77.825ZM221.575 51.05C231.1 55.325 240.1 60.725 248.275 67.175C242.8 68.975 237.1 70.625 230.875 72.125C228.1 64.475 224.95 57.425 221.575 51.05Z" fill="url(#paint11_linear_18_963)"/>
<path d="M179.8 86.75C189.4 86.375 198.475 85.55 207.775 84.275C210.1 83.975 211.6 81.5 210.775 79.25C205.825 65.75 199.9 54.8 193.225 46.7C189.475 42.125 185.575 38.675 181.6 36.275C179.125 34.775 175.9 36.575 175.9 39.5V83C175.9 84.05 176.35 85.025 177.025 85.7C177.85 86.375 179.8 86.75 179.8 86.75ZM183.475 47.075C191.65 54.875 197.875 66.95 202.075 77.45C195.625 78.275 189.175 78.8 183.475 79.1V47.075Z" fill="url(#paint12_linear_18_963)"/>
<path d="M130.225 84.2C139.45 85.55 148.6 86.375 158.125 86.675C160.3 86.75 162.025 85.025 162.025 82.925L162.025 39.425C162.025 36.5 158.8 34.7 156.325 36.2C152.35 38.6 148.45 42.125 144.775 46.625C138.1 54.725 132.175 65.675 127.225 79.175C126.4 81.5 127.9 83.9 130.225 84.2ZM154.525 79.1C148.825 78.8 142.375 78.275 135.925 77.45C140.125 66.95 146.35 54.95 154.525 47.15V79.1Z" fill="url(#paint13_linear_18_963)"/>
<path d="M257.125 266.45C249.775 263.75 239.875 260.75 229.3 258.275C227.425 257.825 225.55 258.875 224.95 260.675C220.6 273.125 215.425 284 209.575 292.85C208.675 294.2 208.75 295.925 209.725 297.2C210.7 298.475 212.425 299 213.925 298.475C230.05 292.925 245.275 284.075 258.325 272.75C260.5 270.95 259.825 267.425 257.125 266.45ZM248.35 271.325C240.1 277.775 231.175 283.175 221.575 287.45C224.95 281.075 228.1 274.025 230.95 266.375C236.65 267.725 242.275 269.375 248.35 271.325Z" fill="url(#paint14_linear_18_963)"/>
<path d="M301.3 176.6H242.5C240.475 176.6 238.825 178.175 238.75 180.2C238.15 200.3 235.525 221.225 230.875 240.5C230.35 242.525 231.625 244.55 233.65 245C246.7 248.075 259.15 252.05 270.625 256.7C272.125 257.3 273.925 256.85 274.975 255.575C292.225 234.35 302.875 208.475 305.05 180.5C305.2 178.4 303.475 176.6 301.3 176.6ZM297.175 184.1C294.55 207.725 285.475 230 270.85 248.825C260.35 244.7 249.775 241.325 239.05 238.7C242.95 221.3 245.35 202.55 246.1 184.175H297.175V184.1Z" fill="url(#paint15_linear_18_963)"/>
<path d="M179.575 237.8C190.675 238.175 201.7 239.3 212.95 240.95C214.9 241.25 216.7 240.05 217.15 238.175C221.875 219.2 224.2 199.7 224.8 180.425C224.875 178.325 223.15 176.525 221.05 176.525H179.725C177.625 176.525 175.975 178.175 175.975 180.275V234.05C175.975 236.075 177.55 237.725 179.575 237.8ZM217.15 184.1C216.4 200.45 214.45 216.875 210.625 233.15C201.4 231.875 192.475 230.975 183.4 230.525V184.1H217.15Z" fill="url(#paint16_linear_18_963)"/>
<path d="M158.275 176.6H116.95C114.85 176.6 113.125 178.325 113.2 180.5C113.875 200.075 116.2 219.5 120.85 238.25C121.3 240.125 123.1 241.325 125.05 241.025C136 239.375 147.175 238.25 158.425 237.875C160.45 237.8 162.025 236.15 162.025 234.125V180.35C162.025 178.25 160.375 176.6 158.275 176.6ZM154.525 230.525C145.9 230.975 136.9 231.8 127.375 233.15C123.625 217.1 121.6 200.6 120.85 184.1H154.525V230.525Z" fill="url(#paint17_linear_18_963)"/>
<path d="M107.125 240.5C102.475 221.15 99.925 200.225 99.25 180.2C99.175 178.175 97.525 176.6 95.5 176.6H36.7C34.525 176.6 32.8 178.475 32.95 180.65C35.125 208.7 45.85 234.575 63.025 255.725C64.075 257 66.85 257 67.375 256.85C79 252.125 91.375 248.15 104.35 245.15C106.375 244.55 107.65 242.525 107.125 240.5ZM91.9 184.1C92.65 202.25 94.975 221.075 98.95 238.625C88.075 241.325 77.425 244.775 67.15 248.75C52.45 229.925 43.45 207.65 40.825 184.025H91.9V184.1Z" fill="url(#paint18_linear_18_963)"/>
<path d="M113.05 260.75C112.45 258.95 110.5 257.9 108.7 258.35C98.275 260.75 88.45 263.75 80.875 266.525C78.175 267.5 77.575 271.025 79.675 272.9C92.725 284.225 107.875 293 124.075 298.625C125.575 299.15 127.3 298.625 128.275 297.35C129.25 296.075 129.325 294.35 128.425 293C122.5 284 117.325 273.2 113.05 260.75ZM116.425 287.45C106.825 283.175 97.9 277.775 89.65 271.325C95.8 269.3 101.35 267.725 107.05 266.375C109.9 274.025 113.05 281.075 116.425 287.45Z" fill="url(#paint19_linear_18_963)"/>
<path d="M158.125 251.75C148.375 252.125 139.225 252.95 130.225 254.225C127.9 254.6 126.4 257 127.225 259.25C132.175 272.75 138.1 283.7 144.775 291.8C148.525 296.375 152.425 299.825 156.325 302.225C157.45 302.9 158.95 302.975 160.075 302.3C161.275 301.625 161.95 300.425 161.95 299V255.5C162.025 253.4 160.3 251.675 158.125 251.75ZM154.525 291.425C146.35 283.55 140.125 271.625 135.925 261.05C141.85 260.3 147.7 259.775 154.525 259.4V291.425Z" fill="url(#paint20_linear_18_963)"/>
<path d="M207.775 254.3C198.85 253.025 189.775 252.125 179.8 251.825C177.625 251.75 175.9 253.475 175.9 255.575V299.15C175.9 302.075 179.05 303.875 181.6 302.375C185.575 299.975 189.475 296.525 193.225 291.95C199.9 283.85 205.825 272.9 210.775 259.4C211.6 257 210.175 254.6 207.775 254.3ZM183.475 259.4C190.375 259.775 196.3 260.3 202.075 261.05C197.875 271.55 191.65 283.55 183.475 291.425V259.4Z" fill="url(#paint21_linear_18_963)"/>
<path d="M169 11.75C82.15 11.75 11.5 82.4 11.5 169.25C11.5 256.1 82.15 326.75 169 326.75C255.85 326.75 326.5 256.1 326.5 169.25C326.5 82.4 255.85 11.75 169 11.75ZM169 319.25C86.275 319.25 19 251.975 19 169.25C19 86.525 86.275 19.25 169 19.25C251.725 19.25 319 86.525 319 169.25C319 251.975 251.725 319.25 169 319.25Z" fill="url(#paint22_linear_18_963)"/>
<path d="M307.75 49.25C320.125 49.25 330.25 39.125 330.25 26.75C330.25 14.375 320.125 4.25 307.75 4.25C295.375 4.25 285.25 14.375 285.25 26.75C285.25 39.125 295.375 49.25 307.75 49.25ZM307.75 11.75C316 11.75 322.75 18.5 322.75 26.75C322.75 35 316 41.75 307.75 41.75C299.5 41.75 292.75 35 292.75 26.75C292.75 18.5 299.5 11.75 307.75 11.75Z" fill="url(#paint23_linear_18_963)"/>
<path d="M30.25 293C15.775 293 4 304.775 4 319.25C4 333.725 15.775 345.5 30.25 345.5C44.725 345.5 56.5 333.725 56.5 319.25C56.5 304.775 44.725 293 30.25 293ZM30.25 338C19.9 338 11.5 329.6 11.5 319.25C11.5 308.9 19.9 300.5 30.25 300.5C40.6 300.5 49 308.9 49 319.25C49 329.6 40.6 338 30.25 338Z" fill="url(#paint24_linear_18_963)"/>
<defs>
<linearGradient id="paint0_linear_18_963" x1="168.025" y1="376.424" x2="172.128" y2="129.198" gradientUnits="userSpaceOnUse">
<stop stop-color="#FF928E"/>
<stop offset="1" stop-color="#FE7062"/>
</linearGradient>
<linearGradient id="paint1_linear_18_963" x1="168.025" y1="376.424" x2="172.128" y2="129.198" gradientUnits="userSpaceOnUse">
<stop stop-color="#FF928E"/>
<stop offset="1" stop-color="#FE7062"/>
</linearGradient>
<linearGradient id="paint2_linear_18_963" x1="168.025" y1="376.424" x2="172.128" y2="129.198" gradientUnits="userSpaceOnUse">
<stop stop-color="#FF928E"/>
<stop offset="1" stop-color="#FE7062"/>
</linearGradient>
<linearGradient id="paint3_linear_18_963" x1="168.025" y1="376.424" x2="172.128" y2="129.198" gradientUnits="userSpaceOnUse">
<stop stop-color="#FF928E"/>
<stop offset="1" stop-color="#FE7062"/>
</linearGradient>
<linearGradient id="paint4_linear_18_963" x1="168.025" y1="376.424" x2="172.128" y2="129.198" gradientUnits="userSpaceOnUse">
<stop stop-color="#FF928E"/>
<stop offset="1" stop-color="#FE7062"/>
</linearGradient>
<linearGradient id="paint5_linear_18_963" x1="168.025" y1="376.424" x2="172.128" y2="129.198" gradientUnits="userSpaceOnUse">
<stop stop-color="#FF928E"/>
<stop offset="1" stop-color="#FE7062"/>
</linearGradient>
<linearGradient id="paint6_linear_18_963" x1="168.025" y1="376.424" x2="172.128" y2="129.198" gradientUnits="userSpaceOnUse">
<stop stop-color="#FF928E"/>
<stop offset="1" stop-color="#FE7062"/>
</linearGradient>
<linearGradient id="paint7_linear_18_963" x1="168.025" y1="376.424" x2="172.128" y2="129.198" gradientUnits="userSpaceOnUse">
<stop stop-color="#FF928E"/>
<stop offset="1" stop-color="#FE7062"/>
</linearGradient>
<linearGradient id="paint8_linear_18_963" x1="168.025" y1="376.424" x2="172.128" y2="129.198" gradientUnits="userSpaceOnUse">
<stop stop-color="#FF928E"/>
<stop offset="1" stop-color="#FE7062"/>
</linearGradient>
<linearGradient id="paint9_linear_18_963" x1="168.025" y1="376.424" x2="172.128" y2="129.198" gradientUnits="userSpaceOnUse">
<stop stop-color="#FF928E"/>
<stop offset="1" stop-color="#FE7062"/>
</linearGradient>
<linearGradient id="paint10_linear_18_963" x1="168.025" y1="376.424" x2="172.128" y2="129.198" gradientUnits="userSpaceOnUse">
<stop stop-color="#FF928E"/>
<stop offset="1" stop-color="#FE7062"/>
</linearGradient>
<linearGradient id="paint11_linear_18_963" x1="168.025" y1="376.424" x2="172.128" y2="129.198" gradientUnits="userSpaceOnUse">
<stop stop-color="#FF928E"/>
<stop offset="1" stop-color="#FE7062"/>
</linearGradient>
<linearGradient id="paint12_linear_18_963" x1="168.025" y1="376.424" x2="172.128" y2="129.198" gradientUnits="userSpaceOnUse">
<stop stop-color="#FF928E"/>
<stop offset="1" stop-color="#FE7062"/>
</linearGradient>
<linearGradient id="paint13_linear_18_963" x1="168.025" y1="376.424" x2="172.128" y2="129.198" gradientUnits="userSpaceOnUse">
<stop stop-color="#FF928E"/>
<stop offset="1" stop-color="#FE7062"/>
</linearGradient>
<linearGradient id="paint14_linear_18_963" x1="168.025" y1="376.424" x2="172.128" y2="129.198" gradientUnits="userSpaceOnUse">
<stop stop-color="#FF928E"/>
<stop offset="1" stop-color="#FE7062"/>
</linearGradient>
<linearGradient id="paint15_linear_18_963" x1="168.025" y1="376.424" x2="172.128" y2="129.198" gradientUnits="userSpaceOnUse">
<stop stop-color="#FF928E"/>
<stop offset="1" stop-color="#FE7062"/>
</linearGradient>
<linearGradient id="paint16_linear_18_963" x1="168.025" y1="376.424" x2="172.128" y2="129.198" gradientUnits="userSpaceOnUse">
<stop stop-color="#FF928E"/>
<stop offset="1" stop-color="#FE7062"/>
</linearGradient>
<linearGradient id="paint17_linear_18_963" x1="168.025" y1="376.424" x2="172.128" y2="129.198" gradientUnits="userSpaceOnUse">
<stop stop-color="#FF928E"/>
<stop offset="1" stop-color="#FE7062"/>
</linearGradient>
<linearGradient id="paint18_linear_18_963" x1="168.025" y1="376.424" x2="172.128" y2="129.198" gradientUnits="userSpaceOnUse">
<stop stop-color="#FF928E"/>
<stop offset="1" stop-color="#FE7062"/>
</linearGradient>
<linearGradient id="paint19_linear_18_963" x1="168.025" y1="376.424" x2="172.128" y2="129.198" gradientUnits="userSpaceOnUse">
<stop stop-color="#FF928E"/>
<stop offset="1" stop-color="#FE7062"/>
</linearGradient>
<linearGradient id="paint20_linear_18_963" x1="168.025" y1="376.424" x2="172.128" y2="129.198" gradientUnits="userSpaceOnUse">
<stop stop-color="#FF928E"/>
<stop offset="1" stop-color="#FE7062"/>
</linearGradient>
<linearGradient id="paint21_linear_18_963" x1="168.025" y1="376.424" x2="172.128" y2="129.198" gradientUnits="userSpaceOnUse">
<stop stop-color="#FF928E"/>
<stop offset="1" stop-color="#FE7062"/>
</linearGradient>
<linearGradient id="paint22_linear_18_963" x1="168.025" y1="376.424" x2="172.128" y2="129.198" gradientUnits="userSpaceOnUse">
<stop stop-color="#FF928E"/>
<stop offset="1" stop-color="#FE7062"/>
</linearGradient>
<linearGradient id="paint23_linear_18_963" x1="168.025" y1="376.424" x2="172.128" y2="129.198" gradientUnits="userSpaceOnUse">
<stop stop-color="#FF928E"/>
<stop offset="1" stop-color="#FE7062"/>
</linearGradient>
<linearGradient id="paint24_linear_18_963" x1="168.025" y1="376.424" x2="172.128" y2="129.198" gradientUnits="userSpaceOnUse">
<stop stop-color="#FF928E"/>
<stop offset="1" stop-color="#FE7062"/>
</linearGradient>
</defs>
</svg>
