<svg width="338" height="350" viewBox="0 0 338 350" fill="none" xmlns="http://www.w3.org/2000/svg">
<path d="M113.2 71.875H30.25V229.375H307.75V71.875H281.35C283.45 78.325 284.875 84.925 285.475 91.675C285.625 93.025 284.95 94.375 283.825 95.125L276.625 99.85L283.825 104.575C284.95 105.325 285.625 106.675 285.475 108.025C284.575 118.075 281.95 127.75 277.75 136.825C277.15 138.1 275.95 138.925 274.6 139L265.975 139.525L269.875 147.175C270.475 148.45 270.4 149.875 269.575 151C263.8 159.175 256.75 166.225 248.5 172.075C247.375 172.9 245.875 172.975 244.6 172.375L236.875 168.475L236.35 177.1C236.275 178.45 235.45 179.725 234.175 180.25C225.1 184.45 215.35 187.075 205.375 187.975C204.025 188.125 202.675 187.45 201.925 186.325L197.2 179.125L192.475 186.325C191.8 187.375 190.6 188.05 189.325 188.05C189.175 188.05 189.1 188.05 188.95 188.05C178.9 187.15 169.225 184.525 160.15 180.325C158.875 179.725 158.05 178.525 157.975 177.175L157.45 168.55L149.725 172.45C148.45 173.05 147.025 172.975 145.9 172.15C137.65 166.3 130.6 159.175 124.825 151.075C124 149.95 123.925 148.45 124.525 147.25L128.35 139.6L119.725 139.075C118.375 139 117.1 138.175 116.5 136.9C112.3 127.75 109.75 118.075 108.775 108.1C108.625 106.75 109.3 105.4 110.425 104.65L117.625 99.925L110.425 95.2C109.3 94.45 108.625 93.1 108.775 91.75C109.6 84.925 111.025 78.325 113.2 71.875ZM45.25 154.375H79C81.1 154.375 82.75 156.025 82.75 158.125C82.75 160.225 81.1 161.875 79 161.875H45.25C43.15 161.875 41.5 160.225 41.5 158.125C41.5 156.025 43.15 154.375 45.25 154.375ZM116.5 218.125H45.25C43.15 218.125 41.5 216.475 41.5 214.375C41.5 212.275 43.15 210.625 45.25 210.625H116.5C118.6 210.625 120.25 212.275 120.25 214.375C120.25 216.475 118.6 218.125 116.5 218.125ZM116.5 199.375H45.25C43.15 199.375 41.5 197.725 41.5 195.625C41.5 193.525 43.15 191.875 45.25 191.875H116.5C118.6 191.875 120.25 193.525 120.25 195.625C120.25 197.725 118.6 199.375 116.5 199.375ZM116.5 173.125C118.6 173.125 120.25 174.775 120.25 176.875C120.25 178.975 118.6 180.625 116.5 180.625H45.25C43.15 180.625 41.5 178.975 41.5 176.875C41.5 174.775 43.15 173.125 45.25 173.125H116.5Z" fill="#FDBA8C"/>
<path d="M197.275 58.6C174.55 58.6 156.025 77.125 156.025 99.85C156.025 122.575 174.55 141.1 197.275 141.1C220 141.1 238.525 122.575 238.525 99.85C238.525 77.125 220 58.6 197.275 58.6ZM197.275 129.85C180.7 129.85 167.275 116.425 167.275 99.85C167.275 83.35 180.7 69.85 197.275 69.85C213.775 69.85 227.275 83.275 227.275 99.85C227.275 116.425 213.775 129.85 197.275 129.85Z" fill="#FDBA8C"/>
<path d="M110.875 330.625C109.375 330.625 107.95 331.225 106.9 332.275C105.85 333.325 105.25 334.75 105.25 336.25C105.25 339.325 107.8 341.875 110.875 341.875H227.125C228.625 341.875 230.05 341.275 231.1 340.225C232.15 339.175 232.75 337.75 232.75 336.25C232.75 333.175 230.2 330.625 227.125 330.625H110.875Z" fill="#FDBA8C"/>
<path d="M221.5 281.875H116.5V282.25C116.5 288.25 121.375 293.125 127.375 293.125H210.625C216.625 293.125 221.5 288.25 221.5 282.25V281.875Z" fill="#FDBA8C"/>
<path d="M320.875 308.125C323.982 308.125 326.5 305.607 326.5 302.5C326.5 299.393 323.982 296.875 320.875 296.875C317.768 296.875 315.25 299.393 315.25 302.5C315.25 305.607 317.768 308.125 320.875 308.125Z" fill="url(#paint0_linear_303_6)"/>
<path d="M272.125 323.125C275.232 323.125 277.75 320.607 277.75 317.5C277.75 314.393 275.232 311.875 272.125 311.875C269.018 311.875 266.5 314.393 266.5 317.5C266.5 320.607 269.018 323.125 272.125 323.125Z" fill="url(#paint1_linear_303_6)"/>
<path d="M169 248.125C166.9 248.125 165.025 248.95 163.675 250.3C162.325 251.65 161.5 253.525 161.5 255.625C161.5 259.75 164.875 263.125 169 263.125C171.1 263.125 172.975 262.3 174.325 260.95C175.675 259.6 176.5 257.725 176.5 255.625C176.5 253.525 175.675 251.65 174.325 250.3C172.975 248.95 171.1 248.125 169 248.125Z" fill="url(#paint2_linear_303_6)"/>
<path d="M125.875 15.625C128.982 15.625 131.5 13.1066 131.5 10C131.5 6.8934 128.982 4.375 125.875 4.375C122.768 4.375 120.25 6.8934 120.25 10C120.25 13.1066 122.768 15.625 125.875 15.625Z" fill="url(#paint3_linear_303_6)"/>
<path d="M92.125 300.625C95.2316 300.625 97.75 298.107 97.75 295C97.75 291.893 95.2316 289.375 92.125 289.375C89.0184 289.375 86.5 291.893 86.5 295C86.5 298.107 89.0184 300.625 92.125 300.625Z" fill="url(#paint4_linear_303_6)"/>
<path d="M54.625 26.875C57.7316 26.875 60.25 24.3566 60.25 21.25C60.25 18.1434 57.7316 15.625 54.625 15.625C51.5184 15.625 49 18.1434 49 21.25C49 24.3566 51.5184 26.875 54.625 26.875Z" fill="url(#paint5_linear_303_6)"/>
<path d="M9.625 311.875C12.7316 311.875 15.25 309.357 15.25 306.25C15.25 303.143 12.7316 300.625 9.625 300.625C6.5184 300.625 4 303.143 4 306.25C4 309.357 6.5184 311.875 9.625 311.875Z" fill="url(#paint6_linear_303_6)"/>
<path d="M52.75 296.875C38.275 296.875 26.5 308.65 26.5 323.125C26.5 337.6 38.275 349.375 52.75 349.375C67.225 349.375 79 337.6 79 323.125C79 308.65 67.225 296.875 52.75 296.875ZM52.75 341.875C42.4 341.875 34 333.475 34 323.125C34 312.775 42.4 304.375 52.75 304.375C63.1 304.375 71.5 312.775 71.5 323.125C71.5 333.475 63.1 341.875 52.75 341.875Z" fill="url(#paint7_linear_303_6)"/>
<path d="M310 41.875H264.25C259.6 36.475 254.275 31.675 248.5 27.55C247.375 26.725 245.875 26.65 244.675 27.25L237.025 31.15L236.5 22.525C236.425 21.175 235.6 19.9 234.325 19.3C225.175 15.1 215.5 12.55 205.525 11.575C204.175 11.425 202.825 12.1 202.075 13.225L197.35 20.425L192.625 13.225C191.875 12.1 190.525 11.425 189.175 11.575C179.2 12.475 169.525 15.1 160.375 19.3C159.1 19.9 158.275 21.1 158.2 22.525L157.675 31.15L149.875 27.25C148.6 26.65 147.175 26.725 146.05 27.55C140.275 31.675 134.95 36.475 130.3 41.875H28C12.7 41.875 0.25 54.325 0.25 69.625V254.125C0.25 269.425 12.7 281.875 28 281.875H109V282.25C109 292.375 117.25 300.625 127.375 300.625H139V323.125H110.875C107.35 323.125 104.05 324.475 101.575 326.95C99.1 329.425 97.75 332.725 97.75 336.25C97.75 343.45 103.675 349.375 110.875 349.375H227.125C230.65 349.375 233.95 348.025 236.425 345.55C238.9 343.075 240.25 339.775 240.25 336.25C240.25 329.05 234.325 323.125 227.125 323.125H199V300.625H210.625C220.75 300.625 229 292.375 229 282.25V281.875H310C325.3 281.875 337.75 269.425 337.75 254.125V69.625C337.75 54.325 325.3 41.875 310 41.875ZM330.25 254.125C330.25 265.3 321.175 274.375 310 274.375H28C16.825 274.375 7.75 265.3 7.75 254.125V69.625C7.75 58.45 16.825 49.375 28 49.375H124.525C124.15 50.35 124.15 51.475 124.6 52.525L128.425 60.25L119.8 60.7C118.45 60.775 117.175 61.6 116.575 62.875C116.35 63.4 116.125 63.925 115.9 64.45H26.5C24.4 64.45 22.75 66.1 22.75 68.2V233.2C22.75 235.3 24.4 236.95 26.5 236.95H311.5C313.6 236.95 315.25 235.3 315.25 233.2V68.2C315.25 66.1 313.6 64.45 311.5 64.45H278.5C278.275 63.925 278.05 63.4 277.825 62.875C277.225 61.6 276.025 60.775 274.6 60.7L265.975 60.25L269.875 52.6C270.4 51.625 270.4 50.5 269.95 49.45H310C321.175 49.45 330.25 58.525 330.25 69.7V254.125ZM210.625 293.125H127.375C121.375 293.125 116.5 288.25 116.5 282.25V281.875H221.5V282.25C221.5 288.25 216.625 293.125 210.625 293.125ZM232.75 336.25C232.75 337.75 232.15 339.175 231.1 340.225C230.05 341.275 228.625 341.875 227.125 341.875H110.875C107.8 341.875 105.25 339.325 105.25 336.25C105.25 334.75 105.85 333.325 106.9 332.275C107.95 331.225 109.375 330.625 110.875 330.625H227.125C230.2 330.625 232.75 333.175 232.75 336.25ZM146.5 323.125V300.625H191.5V323.125H146.5ZM159.325 40.375C160.45 40.975 161.8 40.9 162.85 40.3C163.975 39.7 164.65 38.5 164.725 37.3L165.4 25.3C172.45 22.3 179.875 20.275 187.45 19.375L194.05 29.425C194.725 30.475 195.925 31.15 197.2 31.15C198.475 31.15 199.675 30.55 200.35 29.425L206.95 19.375C214.6 20.275 221.95 22.3 229 25.3L229.675 37.3C229.75 38.575 230.425 39.7 231.55 40.3C232.675 40.9 233.95 40.975 235.15 40.375L245.875 34.975C250.9 38.8 255.55 43.15 259.525 48.025C259.6 48.1 259.6 48.1 259.675 48.175C260.5 49.15 261.25 50.125 262 51.175L256.6 61.9C256 63.025 256.075 64.375 256.675 65.5C257.275 66.625 258.475 67.3 259.675 67.375L271.75 68.05C271.975 68.575 272.2 69.025 272.35 69.55C275.05 76.15 276.775 83.125 277.675 90.175L267.625 96.775C266.575 97.45 265.9 98.65 265.9 99.925C265.9 101.2 266.575 102.4 267.625 103.075L277.675 109.675C276.775 117.325 274.75 124.75 271.75 131.8L259.75 132.475C258.475 132.55 257.35 133.225 256.75 134.35C256.15 135.475 256.075 136.75 256.675 137.875L262.075 148.6C257.5 154.75 252.1 160.15 245.95 164.8L235.225 159.4C234.1 158.8 232.75 158.875 231.7 159.475C230.575 160.075 229.9 161.275 229.825 162.475L229.15 174.475C222.1 177.475 214.675 179.5 207.1 180.4L200.5 170.35C199.825 169.3 198.625 168.625 197.35 168.625C196.075 168.625 194.875 169.225 194.2 170.35L187.6 180.475C179.95 179.575 172.6 177.55 165.55 174.55L164.875 162.55C164.8 161.275 164.125 160.15 163 159.55C161.875 158.95 160.6 158.875 159.475 159.475L148.75 164.875C142.6 160.225 137.125 154.825 132.625 148.675L138.025 137.95C138.625 136.825 138.55 135.475 137.95 134.425C137.35 133.3 136.15 132.625 134.95 132.55L122.95 131.875C119.95 124.825 117.925 117.4 117.025 109.825L127.075 103.225C128.125 102.55 128.8 101.35 128.8 100.075C128.8 98.8 128.2 97.6 127.075 96.925L117.025 90.325C117.85 83.275 119.65 76.375 122.275 69.775V69.7C122.5 69.175 122.65 68.725 122.875 68.2L134.875 67.525C136.15 67.45 137.275 66.775 137.875 65.65C138.475 64.525 138.55 63.25 137.95 62.125L132.55 51.4C133.3 50.425 134.125 49.375 134.95 48.4C135.025 48.325 135.025 48.325 135.1 48.25C139.15 43.375 143.725 39.025 148.75 35.2L159.325 40.375ZM110.725 95.125L117.925 99.85L110.725 104.575C109.6 105.325 108.925 106.675 109.075 108.025C109.975 118 112.6 127.675 116.8 136.825C117.4 138.1 118.6 138.925 120.025 139L128.65 139.525L124.825 147.175C124.225 148.375 124.3 149.875 125.125 151C130.825 159.1 137.95 166.225 146.2 172.075C147.325 172.9 148.825 172.975 150.025 172.375L157.75 168.475L158.275 177.1C158.35 178.45 159.175 179.725 160.45 180.25C169.525 184.45 179.275 187.075 189.25 187.975C189.4 187.975 189.475 187.975 189.625 187.975C190.9 187.975 192.1 187.375 192.775 186.25L197.5 179.05L202.225 186.25C202.975 187.375 204.325 188.05 205.675 187.9C215.725 187 225.4 184.375 234.475 180.175C235.75 179.575 236.575 178.375 236.65 177.025L237.175 168.4L244.9 172.3C246.175 172.9 247.6 172.825 248.8 172C256.975 166.15 264.1 159.1 269.875 150.925C270.7 149.8 270.775 148.3 270.175 147.1L266.275 139.45L274.9 138.925C276.25 138.85 277.525 138.025 278.05 136.75C282.25 127.675 284.875 117.925 285.775 107.95C285.925 106.6 285.25 105.25 284.125 104.5L276.925 99.775L284.125 95.05C285.25 94.3 285.925 92.95 285.775 91.6C285.175 84.85 283.75 78.25 281.65 71.8H307.75V229.3H30.25V71.8H113.2C111.025 78.25 109.675 84.85 109.075 91.6C108.925 93.025 109.525 94.375 110.725 95.125Z" fill="url(#paint8_linear_303_6)"/>
<path d="M197.275 51.1C170.425 51.1 148.525 73 148.525 99.85C148.525 126.7 170.425 148.6 197.275 148.6C224.125 148.6 246.025 126.7 246.025 99.85C246.025 73 224.125 51.1 197.275 51.1ZM197.275 141.1C174.55 141.1 156.025 122.575 156.025 99.85C156.025 77.125 174.55 58.6 197.275 58.6C220 58.6 238.525 77.125 238.525 99.85C238.525 122.65 220 141.1 197.275 141.1Z" fill="url(#paint9_linear_303_6)"/>
<path d="M197.275 69.85C180.7 69.85 167.275 83.275 167.275 99.85C167.275 116.425 180.7 129.85 197.275 129.85C213.775 129.85 227.275 116.425 227.275 99.85C227.275 83.35 213.775 69.85 197.275 69.85ZM197.275 122.35C184.9 122.35 174.775 112.225 174.775 99.85C174.775 87.475 184.9 77.35 197.275 77.35C209.65 77.35 219.775 87.4 219.775 99.85C219.775 112.3 209.65 122.35 197.275 122.35Z" fill="url(#paint10_linear_303_6)"/>
<path d="M45.25 161.875H79C81.1 161.875 82.75 160.225 82.75 158.125C82.75 156.025 81.1 154.375 79 154.375H45.25C43.15 154.375 41.5 156.025 41.5 158.125C41.5 160.225 43.15 161.875 45.25 161.875Z" fill="url(#paint11_linear_303_6)"/>
<path d="M41.5 176.875C41.5 178.975 43.15 180.625 45.25 180.625H116.5C118.6 180.625 120.25 178.975 120.25 176.875C120.25 174.775 118.6 173.125 116.5 173.125H45.25C43.15 173.125 41.5 174.775 41.5 176.875Z" fill="url(#paint12_linear_303_6)"/>
<path d="M116.5 191.875H45.25C43.15 191.875 41.5 193.525 41.5 195.625C41.5 197.725 43.15 199.375 45.25 199.375H116.5C118.6 199.375 120.25 197.725 120.25 195.625C120.25 193.525 118.6 191.875 116.5 191.875Z" fill="url(#paint13_linear_303_6)"/>
<path d="M116.5 210.625H45.25C43.15 210.625 41.5 212.275 41.5 214.375C41.5 216.475 43.15 218.125 45.25 218.125H116.5C118.6 218.125 120.25 216.475 120.25 214.375C120.25 212.275 118.6 210.625 116.5 210.625Z" fill="url(#paint14_linear_303_6)"/>
<path d="M292.75 30.625C301 30.625 307.75 23.875 307.75 15.625C307.75 7.375 301 0.625 292.75 0.625C284.5 0.625 277.75 7.375 277.75 15.625C277.75 23.875 284.5 30.625 292.75 30.625ZM292.75 8.125C296.875 8.125 300.25 11.5 300.25 15.625C300.25 19.75 296.875 23.125 292.75 23.125C288.625 23.125 285.25 19.75 285.25 15.625C285.25 11.5 288.625 8.125 292.75 8.125Z" fill="url(#paint15_linear_303_6)"/>
<defs>
<linearGradient id="paint0_linear_303_6" x1="168.025" y1="380.635" x2="172.217" y2="130.724" gradientUnits="userSpaceOnUse">
<stop stop-color="#FF928E"/>
<stop offset="1" stop-color="#FE7062"/>
</linearGradient>
<linearGradient id="paint1_linear_303_6" x1="168.025" y1="380.635" x2="172.217" y2="130.724" gradientUnits="userSpaceOnUse">
<stop stop-color="#FF928E"/>
<stop offset="1" stop-color="#FE7062"/>
</linearGradient>
<linearGradient id="paint2_linear_303_6" x1="168.025" y1="380.635" x2="172.217" y2="130.724" gradientUnits="userSpaceOnUse">
<stop stop-color="#FF928E"/>
<stop offset="1" stop-color="#FE7062"/>
</linearGradient>
<linearGradient id="paint3_linear_303_6" x1="168.025" y1="380.635" x2="172.217" y2="130.724" gradientUnits="userSpaceOnUse">
<stop stop-color="#FF928E"/>
<stop offset="1" stop-color="#FE7062"/>
</linearGradient>
<linearGradient id="paint4_linear_303_6" x1="168.025" y1="380.635" x2="172.217" y2="130.724" gradientUnits="userSpaceOnUse">
<stop stop-color="#FF928E"/>
<stop offset="1" stop-color="#FE7062"/>
</linearGradient>
<linearGradient id="paint5_linear_303_6" x1="168.025" y1="380.635" x2="172.217" y2="130.724" gradientUnits="userSpaceOnUse">
<stop stop-color="#FF928E"/>
<stop offset="1" stop-color="#FE7062"/>
</linearGradient>
<linearGradient id="paint6_linear_303_6" x1="168.025" y1="380.635" x2="172.217" y2="130.724" gradientUnits="userSpaceOnUse">
<stop stop-color="#FF928E"/>
<stop offset="1" stop-color="#FE7062"/>
</linearGradient>
<linearGradient id="paint7_linear_303_6" x1="168.025" y1="380.635" x2="172.217" y2="130.724" gradientUnits="userSpaceOnUse">
<stop stop-color="#FF928E"/>
<stop offset="1" stop-color="#FE7062"/>
</linearGradient>
<linearGradient id="paint8_linear_303_6" x1="168.025" y1="380.635" x2="172.217" y2="130.724" gradientUnits="userSpaceOnUse">
<stop stop-color="#FF928E"/>
<stop offset="1" stop-color="#FE7062"/>
</linearGradient>
<linearGradient id="paint9_linear_303_6" x1="168.025" y1="380.635" x2="172.217" y2="130.724" gradientUnits="userSpaceOnUse">
<stop stop-color="#FF928E"/>
<stop offset="1" stop-color="#FE7062"/>
</linearGradient>
<linearGradient id="paint10_linear_303_6" x1="168.025" y1="380.635" x2="172.217" y2="130.724" gradientUnits="userSpaceOnUse">
<stop stop-color="#FF928E"/>
<stop offset="1" stop-color="#FE7062"/>
</linearGradient>
<linearGradient id="paint11_linear_303_6" x1="168.025" y1="380.635" x2="172.217" y2="130.724" gradientUnits="userSpaceOnUse">
<stop stop-color="#FF928E"/>
<stop offset="1" stop-color="#FE7062"/>
</linearGradient>
<linearGradient id="paint12_linear_303_6" x1="168.025" y1="380.635" x2="172.217" y2="130.724" gradientUnits="userSpaceOnUse">
<stop stop-color="#FF928E"/>
<stop offset="1" stop-color="#FE7062"/>
</linearGradient>
<linearGradient id="paint13_linear_303_6" x1="168.025" y1="380.635" x2="172.217" y2="130.724" gradientUnits="userSpaceOnUse">
<stop stop-color="#FF928E"/>
<stop offset="1" stop-color="#FE7062"/>
</linearGradient>
<linearGradient id="paint14_linear_303_6" x1="168.025" y1="380.635" x2="172.217" y2="130.724" gradientUnits="userSpaceOnUse">
<stop stop-color="#FF928E"/>
<stop offset="1" stop-color="#FE7062"/>
</linearGradient>
<linearGradient id="paint15_linear_303_6" x1="168.025" y1="380.635" x2="172.217" y2="130.724" gradientUnits="userSpaceOnUse">
<stop stop-color="#FF928E"/>
<stop offset="1" stop-color="#FE7062"/>
</linearGradient>
</defs>
</svg>

