<svg width="330" height="354" viewBox="0 0 330 354" fill="none" xmlns="http://www.w3.org/2000/svg">
<path d="M262.275 300.75H74.775V319.275C74.775 333.9 86.625 345.75 101.25 345.75H235.725C250.35 345.75 262.2 333.9 262.2 319.275V300.75H262.275ZM168.525 338.25C160.275 338.25 153.525 331.5 153.525 323.25C153.525 315 160.275 308.25 168.525 308.25C176.775 308.25 183.525 315 183.525 323.25C183.525 331.5 176.775 338.25 168.525 338.25Z" fill="#FDBA8C"/>
<path d="M308.325 240.75H224.175L221.7 263.25H310.8L308.325 240.75Z" fill="#FDBA8C"/>
<path d="M251.25 169.5V180.75C251.25 182.85 249.6 184.5 247.5 184.5C245.4 184.5 243.75 182.85 243.75 180.75V169.5H232.125L227.55 210.75H305.025L300.45 169.5H288.75V180.75C288.75 182.85 287.1 184.5 285 184.5C282.9 184.5 281.25 182.85 281.25 180.75V169.5H251.25Z" fill="#FDBA8C"/>
<path d="M30 312C40.3553 312 48.75 303.605 48.75 293.25C48.75 282.895 40.3553 274.5 30 274.5C19.6447 274.5 11.25 282.895 11.25 293.25C11.25 303.605 19.6447 312 30 312Z" fill="#FDBA8C"/>
<path d="M131.25 177H11.25V188.25H131.25V177Z" fill="#FDBA8C"/>
<path d="M74.775 42H262.2V34.725C262.2 20.1 250.275 8.25 235.725 8.25H101.25C86.625 8.25 74.775 20.1 74.775 34.725V42ZM156.975 23.25H179.7C181.8 23.25 183.45 24.9 183.45 27C183.45 29.1 181.8 30.75 179.7 30.75H156.975C154.875 30.75 153.225 29.1 153.225 27C153.225 24.9 154.95 23.25 156.975 23.25Z" fill="#FDBA8C"/>
<path d="M309.375 128.25C312.482 128.25 315 125.732 315 122.625C315 119.518 312.482 117 309.375 117C306.268 117 303.75 119.518 303.75 122.625C303.75 125.732 306.268 128.25 309.375 128.25Z" fill="url(#paint0_linear_303_10)"/>
<path d="M305.625 315.75C308.732 315.75 311.25 313.232 311.25 310.125C311.25 307.018 308.732 304.5 305.625 304.5C302.518 304.5 300 307.018 300 310.125C300 313.232 302.518 315.75 305.625 315.75Z" fill="url(#paint1_linear_303_10)"/>
<path d="M290.625 15.75C293.732 15.75 296.25 13.2316 296.25 10.125C296.25 7.0184 293.732 4.5 290.625 4.5C287.518 4.5 285 7.0184 285 10.125C285 13.2316 287.518 15.75 290.625 15.75Z" fill="url(#paint2_linear_303_10)"/>
<path d="M39.375 94.5C42.4816 94.5 45 91.9816 45 88.875C45 85.7684 42.4816 83.25 39.375 83.25C36.2684 83.25 33.75 85.7684 33.75 88.875C33.75 91.9816 36.2684 94.5 39.375 94.5Z" fill="url(#paint3_linear_303_10)"/>
<path d="M39.375 252C42.4816 252 45 249.482 45 246.375C45 243.268 42.4816 240.75 39.375 240.75C36.2684 240.75 33.75 243.268 33.75 246.375C33.75 249.482 36.2684 252 39.375 252Z" fill="url(#paint4_linear_303_10)"/>
<path d="M5.625 34.5C8.7316 34.5 11.25 31.9816 11.25 28.875C11.25 25.7684 8.7316 23.25 5.625 23.25C2.5184 23.25 0 25.7684 0 28.875C0 31.9816 2.5184 34.5 5.625 34.5Z" fill="url(#paint5_linear_303_10)"/>
<path d="M168.525 308.25C160.275 308.25 153.525 315 153.525 323.25C153.525 331.5 160.275 338.25 168.525 338.25C176.775 338.25 183.525 331.5 183.525 323.25C183.525 315 176.775 308.25 168.525 308.25ZM168.525 330.75C164.4 330.75 161.025 327.375 161.025 323.25C161.025 319.125 164.4 315.75 168.525 315.75C172.65 315.75 176.025 319.125 176.025 323.25C176.025 327.375 172.65 330.75 168.525 330.75Z" fill="url(#paint6_linear_303_10)"/>
<path d="M156.975 30.75H179.7C181.8 30.75 183.45 29.1 183.45 27C183.45 24.9 181.8 23.25 179.7 23.25H156.975C154.875 23.25 153.225 24.9 153.225 27C153.225 29.1 154.95 30.75 156.975 30.75Z" fill="url(#paint7_linear_303_10)"/>
<path d="M22.5 162C24.6 162 26.25 160.35 26.25 158.25V150.75C26.25 148.65 24.6 147 22.5 147C20.4 147 18.75 148.65 18.75 150.75V158.25C18.75 160.35 20.4 162 22.5 162Z" fill="url(#paint8_linear_303_10)"/>
<path d="M37.5 162C39.6 162 41.25 160.35 41.25 158.25V150.75C41.25 148.65 39.6 147 37.5 147C35.4 147 33.75 148.65 33.75 150.75V158.25C33.75 160.35 35.4 162 37.5 162Z" fill="url(#paint9_linear_303_10)"/>
<path d="M52.5 162C54.6 162 56.25 160.35 56.25 158.25V150.75C56.25 148.65 54.6 147 52.5 147C50.4 147 48.75 148.65 48.75 150.75V158.25C48.75 160.35 50.4 162 52.5 162Z" fill="url(#paint10_linear_303_10)"/>
<path d="M67.5 162C69.6 162 71.25 160.35 71.25 158.25V150.75C71.25 148.65 69.6 147 67.5 147C65.4 147 63.75 148.65 63.75 150.75V158.25C63.75 160.35 65.4 162 67.5 162Z" fill="url(#paint11_linear_303_10)"/>
<path d="M82.5 162C84.6 162 86.25 160.35 86.25 158.25V150.75C86.25 148.65 84.6 147 82.5 147C80.4 147 78.75 148.65 78.75 150.75V158.25C78.75 160.35 80.4 162 82.5 162Z" fill="url(#paint12_linear_303_10)"/>
<path d="M315.375 236.55L307.425 165.3C307.2 163.425 305.625 162 303.675 162H288.675V150.75C288.675 144.75 286.35 139.05 282.075 134.85C278.7 131.475 274.35 129.225 269.7 128.55V81.3C269.85 80.325 269.925 79.275 269.925 78.3V45.75C269.925 45.3 269.85 44.85 269.7 44.475V34.725C269.7 15.975 254.475 0.75 235.725 0.75H101.25C82.5 0.75 67.275 15.975 67.275 34.725V132H20.625C11.325 132 3.75 139.575 3.75 148.875V205.125C3.75 214.425 11.325 222 20.625 222H67.275V319.275C67.275 338.025 82.5 353.25 101.25 353.25H235.725C254.475 353.25 269.7 338.025 269.7 319.275V270.75H315C316.05 270.75 317.1 270.3 317.775 269.475C318.45 268.65 318.825 267.6 318.675 266.55L315.375 236.55ZM235.725 345.75H101.25C86.625 345.75 74.775 333.9 74.775 319.275V300.75H262.275L262.275 319.275C262.275 333.9 250.35 345.75 235.725 345.75ZM74.775 293.25V222H121.875C131.175 222 138.75 214.425 138.75 205.125V148.875C138.75 139.575 131.175 132 121.875 132H74.775V93.675C78.225 96.525 82.65 98.25 87.525 98.25C94.2 98.25 100.125 94.95 103.8 89.85C107.4 94.875 113.325 98.25 120.075 98.25C126.75 98.25 132.675 94.95 136.35 89.85C139.95 94.875 145.875 98.25 152.625 98.25C159.3 98.25 165.225 94.95 168.9 89.85C172.5 94.875 178.425 98.25 185.175 98.25C191.85 98.25 197.775 94.95 201.45 89.85C205.05 94.875 210.975 98.25 217.725 98.25C224.475 98.25 230.325 94.95 234 89.85C237.6 94.875 243.525 98.25 250.275 98.25C254.85 98.25 259.125 96.675 262.5 94.05V128.625C252 130.5 243.975 139.8 243.975 150.75V162H228.975C227.1 162 225.45 163.425 225.225 165.3L213.975 266.55C213.825 267.6 214.2 268.65 214.875 269.475C215.55 270.3 216.6 270.75 217.65 270.75H262.425V293.25H74.775ZM20.625 139.5H121.875C127.05 139.5 131.25 143.7 131.25 148.875V169.5H11.25V148.875C11.25 143.7 15.45 139.5 20.625 139.5ZM101.25 8.25H235.725C250.35 8.25 262.2 20.1 262.2 34.725V42H74.775V34.725C74.775 20.1 86.625 8.25 101.25 8.25ZM75 78.225V49.5H99.975V78.225C99.975 85.125 94.35 90.75 87.45 90.75C80.625 90.75 75 85.125 75 78.225ZM107.475 78.225V49.5H132.45V78.225C132.45 85.125 126.825 90.75 119.925 90.75C113.1 90.75 107.475 85.125 107.475 78.225ZM140.025 78.225V49.5H165V78.225C165 85.125 159.375 90.75 152.475 90.75C145.575 90.75 140.025 85.125 140.025 78.225ZM172.5 78.225V49.5H197.475V78.225C197.475 85.125 191.85 90.75 184.95 90.75C178.125 90.75 172.5 85.125 172.5 78.225ZM204.975 78.225V49.5H229.95V78.225C229.95 85.125 224.325 90.75 217.425 90.75C210.6 90.75 204.975 85.125 204.975 78.225ZM237.525 78.225V49.5H262.275V80.7C261.15 86.55 256.05 90.75 250.05 90.75C243.075 90.75 237.525 85.125 237.525 78.225ZM131.25 177V188.25H11.25V177H131.25ZM11.25 195.75H131.25V205.125C131.25 210.3 127.05 214.5 121.875 214.5H20.625C15.45 214.5 11.25 210.3 11.25 205.125V195.75ZM285 184.5C287.1 184.5 288.75 182.85 288.75 180.75V169.5H300.375L304.95 210.75H227.55L232.125 169.5H243.75V180.75C243.75 182.85 245.4 184.5 247.5 184.5C249.6 184.5 251.25 182.85 251.25 180.75V169.5H281.25V180.75C281.25 182.85 282.9 184.5 285 184.5ZM226.725 218.25H305.85L307.5 233.25H225L226.725 218.25ZM221.7 263.25L224.175 240.75H308.325L310.8 263.25H221.7ZM281.25 150.75V162H251.25V150.75C251.25 142.575 257.85 135.9 266.025 135.75C266.025 135.75 266.025 135.75 266.1 135.75C266.175 135.75 266.325 135.75 266.4 135.75C266.325 135.75 266.325 135.75 266.325 135.75C270.3 135.75 274.125 137.325 276.9 140.175C279.675 143.025 281.25 146.775 281.25 150.75Z" fill="url(#paint13_linear_303_10)"/>
<path d="M307.5 38.25C295.125 38.25 285 48.375 285 60.75C285 73.125 295.125 83.25 307.5 83.25C319.875 83.25 330 73.125 330 60.75C330 48.375 319.875 38.25 307.5 38.25ZM307.5 75.75C299.25 75.75 292.5 69 292.5 60.75C292.5 52.5 299.25 45.75 307.5 45.75C315.75 45.75 322.5 52.5 322.5 60.75C322.5 69 315.75 75.75 307.5 75.75Z" fill="url(#paint14_linear_303_10)"/>
<path d="M30 267C15.525 267 3.75 278.775 3.75 293.25C3.75 307.725 15.525 319.5 30 319.5C44.475 319.5 56.25 307.725 56.25 293.25C56.25 278.775 44.475 267 30 267ZM30 312C19.65 312 11.25 303.6 11.25 293.25C11.25 282.9 19.65 274.5 30 274.5C40.35 274.5 48.75 282.9 48.75 293.25C48.75 303.6 40.35 312 30 312Z" fill="url(#paint15_linear_303_10)"/>
<defs>
<linearGradient id="paint0_linear_303_10" x1="164.047" y1="384.846" x2="168.427" y2="132.253" gradientUnits="userSpaceOnUse">
<stop stop-color="#FF928E"/>
<stop offset="1" stop-color="#FE7062"/>
</linearGradient>
<linearGradient id="paint1_linear_303_10" x1="164.047" y1="384.846" x2="168.427" y2="132.253" gradientUnits="userSpaceOnUse">
<stop stop-color="#FF928E"/>
<stop offset="1" stop-color="#FE7062"/>
</linearGradient>
<linearGradient id="paint2_linear_303_10" x1="164.047" y1="384.846" x2="168.427" y2="132.253" gradientUnits="userSpaceOnUse">
<stop stop-color="#FF928E"/>
<stop offset="1" stop-color="#FE7062"/>
</linearGradient>
<linearGradient id="paint3_linear_303_10" x1="164.047" y1="384.846" x2="168.427" y2="132.253" gradientUnits="userSpaceOnUse">
<stop stop-color="#FF928E"/>
<stop offset="1" stop-color="#FE7062"/>
</linearGradient>
<linearGradient id="paint4_linear_303_10" x1="164.047" y1="384.846" x2="168.427" y2="132.253" gradientUnits="userSpaceOnUse">
<stop stop-color="#FF928E"/>
<stop offset="1" stop-color="#FE7062"/>
</linearGradient>
<linearGradient id="paint5_linear_303_10" x1="164.047" y1="384.846" x2="168.427" y2="132.253" gradientUnits="userSpaceOnUse">
<stop stop-color="#FF928E"/>
<stop offset="1" stop-color="#FE7062"/>
</linearGradient>
<linearGradient id="paint6_linear_303_10" x1="164.047" y1="384.846" x2="168.427" y2="132.253" gradientUnits="userSpaceOnUse">
<stop stop-color="#FF928E"/>
<stop offset="1" stop-color="#FE7062"/>
</linearGradient>
<linearGradient id="paint7_linear_303_10" x1="164.047" y1="384.846" x2="168.427" y2="132.253" gradientUnits="userSpaceOnUse">
<stop stop-color="#FF928E"/>
<stop offset="1" stop-color="#FE7062"/>
</linearGradient>
<linearGradient id="paint8_linear_303_10" x1="164.047" y1="384.846" x2="168.427" y2="132.253" gradientUnits="userSpaceOnUse">
<stop stop-color="#FF928E"/>
<stop offset="1" stop-color="#FE7062"/>
</linearGradient>
<linearGradient id="paint9_linear_303_10" x1="164.047" y1="384.846" x2="168.427" y2="132.253" gradientUnits="userSpaceOnUse">
<stop stop-color="#FF928E"/>
<stop offset="1" stop-color="#FE7062"/>
</linearGradient>
<linearGradient id="paint10_linear_303_10" x1="164.047" y1="384.846" x2="168.427" y2="132.253" gradientUnits="userSpaceOnUse">
<stop stop-color="#FF928E"/>
<stop offset="1" stop-color="#FE7062"/>
</linearGradient>
<linearGradient id="paint11_linear_303_10" x1="164.047" y1="384.846" x2="168.427" y2="132.253" gradientUnits="userSpaceOnUse">
<stop stop-color="#FF928E"/>
<stop offset="1" stop-color="#FE7062"/>
</linearGradient>
<linearGradient id="paint12_linear_303_10" x1="164.047" y1="384.846" x2="168.427" y2="132.253" gradientUnits="userSpaceOnUse">
<stop stop-color="#FF928E"/>
<stop offset="1" stop-color="#FE7062"/>
</linearGradient>
<linearGradient id="paint13_linear_303_10" x1="164.047" y1="384.846" x2="168.427" y2="132.253" gradientUnits="userSpaceOnUse">
<stop stop-color="#FF928E"/>
<stop offset="1" stop-color="#FE7062"/>
</linearGradient>
<linearGradient id="paint14_linear_303_10" x1="164.047" y1="384.846" x2="168.427" y2="132.253" gradientUnits="userSpaceOnUse">
<stop stop-color="#FF928E"/>
<stop offset="1" stop-color="#FE7062"/>
</linearGradient>
<linearGradient id="paint15_linear_303_10" x1="164.047" y1="384.846" x2="168.427" y2="132.253" gradientUnits="userSpaceOnUse">
<stop stop-color="#FF928E"/>
<stop offset="1" stop-color="#FE7062"/>
</linearGradient>
</defs>
</svg>
