<svg width="43" height="48" viewBox="0 0 43 48" fill="none" xmlns="http://www.w3.org/2000/svg">
<path d="M33.5314 31.9376H29.0944L23.9979 17.4766L21.1361 25.3866H25.5408L26.7509 28.8296H20.0611L18.9035 31.9416H14.4665L21.5455 13.5686H26.4484L33.5314 31.9376ZM41.6107 37.5136C41.449 37.5136 41.2897 37.5526 41.1461 37.6276C41.0026 37.7016 40.879 37.8096 40.7858 37.9416C40.7858 37.9416 39.9045 38.9496 39.4285 39.4236C36.4329 42.4236 32.6318 44.4906 28.4855 45.3746C24.3392 46.2586 20.0255 45.9216 16.0669 44.4046C12.1083 42.8866 8.67453 40.2546 6.18138 36.8256C3.68826 33.3966 2.24274 29.3186 2.01987 25.0846C1.79701 20.8506 2.80636 16.6436 4.9257 12.9716C7.04504 9.29962 10.1834 6.32164 13.9609 4.39664C17.7383 2.47264 21.9927 1.68363 26.2089 2.12763C30.4251 2.57163 34.4223 4.22764 37.7163 6.89664C37.5323 7.43164 37.5372 8.01265 37.7301 8.54465C37.9231 9.07565 38.2925 9.52462 38.7766 9.81662C39.2607 10.1086 39.8303 10.2256 40.3904 10.1486C40.9504 10.0706 41.4669 9.80364 41.8538 9.39164C42.2407 8.97964 42.4745 8.44664 42.5162 7.88364C42.5579 7.31964 42.405 6.75864 42.083 6.29364C41.761 5.82964 41.2893 5.48862 40.7468 5.32962C40.2043 5.17162 39.6236 5.20263 39.1018 5.42063C35.4464 2.42563 30.9861 0.579634 26.2832 0.115634C21.5803 -0.348366 16.8453 0.590632 12.6751 2.81363C8.50493 5.03663 5.08614 8.44464 2.84972 12.6076C0.613307 16.7706 -0.340613 21.5026 0.108197 26.2066C0.556997 30.9106 2.38846 35.3776 5.37169 39.0426C8.35493 42.7076 12.3564 45.4076 16.8717 46.8016C21.387 48.1956 26.2141 48.2226 30.7444 46.8776C35.2747 45.5326 39.3055 42.8766 42.3287 39.2446C42.4716 39.1036 42.5692 38.9236 42.609 38.7266C42.6488 38.5296 42.629 38.3256 42.5521 38.1406C42.4752 37.9546 42.3448 37.7966 42.1774 37.6856C42.0101 37.5746 41.8135 37.5166 41.6127 37.5176L41.6107 37.5136Z" fill="black"/>
</svg>
