<svg width="48" height="41" viewBox="0 0 48 41" fill="none" xmlns="http://www.w3.org/2000/svg">
<path fill-rule="evenodd" clip-rule="evenodd" d="M7.24091 32.622V29.5541C7.24091 29.151 7.49291 28.8272 7.91029 28.8272H8.02579C8.44298 28.8272 8.69385 29.1516 8.69385 29.5541V36.0129C8.69385 37.5879 7.91573 38.8412 6.55973 39.6396C5.93857 40.0076 5.22953 40.2009 4.50754 40.1992H4.21935C2.64397 40.1992 1.39241 39.4206 0.592725 38.0655C0.224193 37.4444 0.0308419 36.7351 0.0332249 36.0129V35.7251C0.0332249 34.1496 0.811725 32.8971 2.1666 32.097C2.78764 31.7282 3.49708 31.5348 4.21935 31.5373H4.50754C5.57366 31.5373 6.47629 31.9506 7.24091 32.6218V32.622ZM1.48597 35.8688C1.48597 37.0065 2.03722 37.8619 3.03435 38.4075C3.43747 38.628 3.8751 38.7465 4.33504 38.7465C5.45179 38.7465 6.28016 38.2215 6.85129 37.2733C7.11698 36.8331 7.24073 36.3514 7.24073 35.8393C7.24073 34.8531 6.77197 34.0834 5.97885 33.5117C5.49697 33.1652 4.95454 32.9914 4.36297 32.9914C3.14572 32.9914 2.26972 33.6064 1.74397 34.6987C1.5666 35.0681 1.4856 35.46 1.4856 35.8688H1.48597ZM13.7342 31.5375H13.9356C15.619 31.5375 16.8992 32.3541 17.7105 33.8235C18.0349 34.4113 18.2085 35.0529 18.2085 35.7251V36.0129C18.2085 37.5879 17.4319 38.8429 16.0739 39.6398C15.4452 40.0086 14.7507 40.1992 14.022 40.1992H13.7342C12.1589 40.1992 10.9067 39.4206 10.1076 38.0655C9.73889 37.4445 9.54534 36.7352 9.54754 36.0129V35.7251C9.54754 34.1494 10.3294 32.901 11.6807 32.0976C12.3016 31.7277 13.0115 31.534 13.7342 31.5375ZM11.0005 35.8688C11.0005 36.975 11.5442 37.7856 12.4752 38.3569C12.9132 38.625 13.3939 38.7465 13.9073 38.7465C14.9985 38.7465 15.8052 38.1934 16.3665 37.2722C16.6343 36.8331 16.7554 36.3506 16.7554 35.8393C16.7554 34.8124 16.2608 34.0281 15.4152 33.4594C14.9621 33.1511 14.426 32.9879 13.878 32.9914C12.6608 32.9914 11.7848 33.6064 11.2592 34.6987C11.0815 35.0681 11.0005 35.46 11.0005 35.8688ZM24.2485 33.1074C24.0291 33.0047 23.6185 32.9706 23.3815 32.9616C22.1676 32.9158 21.2894 33.5994 20.7741 34.6703C20.596 35.0396 20.515 35.4306 20.515 35.8393C20.515 37.0838 21.1684 37.9551 22.2775 38.4862C22.6832 38.6801 23.2071 38.7169 23.6505 38.7169C24.0405 38.7169 24.5918 38.478 24.9379 38.3137L24.9979 38.2853H25.2666L25.2962 38.2913C25.6266 38.3601 25.876 38.5695 25.876 38.925V39.0688C25.876 39.9534 24.2594 40.1559 23.6425 40.1991C21.4675 40.3496 19.8375 39.1541 19.2169 37.0778C19.1091 36.7172 19.0605 36.3591 19.0605 35.9833V35.6959C19.0605 34.1203 19.8424 32.8721 21.1937 32.0696C21.8139 31.6982 22.524 31.5037 23.2469 31.5071H23.5349C24.3092 31.5071 25.0225 31.7271 25.6618 32.1637L25.7143 32.2001L25.7475 32.2549C25.8165 32.3674 25.876 32.5016 25.876 32.6377V32.7816C25.876 33.1524 25.5985 33.3519 25.2636 33.4164L25.2358 33.4213H25.15C24.9332 33.4213 24.4403 33.1969 24.2468 33.1057L24.2485 33.1074ZM28.9611 34.0913L30.6645 32.4064C30.8239 32.2513 31.4284 31.5951 31.6663 31.5951H31.9266L31.9562 31.6012C32.2877 31.6701 32.536 31.8799 32.536 32.2361V32.3798C32.536 32.6228 32.2514 32.9051 32.0944 33.0735C31.7607 33.4273 31.4093 33.7695 31.0677 34.116L29.3123 35.898L31.5728 38.1769C31.7807 38.3876 31.987 38.5998 32.1917 38.8136C32.2639 38.8896 32.3704 38.9824 32.431 39.0892C32.496 39.1879 32.536 39.2992 32.536 39.4177V39.5677L32.5275 39.6024C32.446 39.9339 32.2356 40.2013 31.8683 40.2013H31.7526C31.5122 40.2013 31.2407 39.9294 31.0761 39.7738C30.7386 39.4539 30.4092 39.1176 30.0767 38.7908L28.9611 37.6958V39.4459C28.9611 39.849 28.7087 40.173 28.2917 40.173H28.1792C27.7618 40.173 27.5098 39.849 27.5098 39.4459V29.5841C27.5098 29.181 27.762 28.8585 28.1792 28.8585H28.2917C28.7085 28.8585 28.9611 29.181 28.9611 29.5841V34.0931V34.0913ZM47.0693 31.5951H47.2137C47.6494 31.5951 47.9402 31.8887 47.9402 32.322C47.9402 32.9235 47.3652 33.0776 46.8677 33.0776C46.2152 33.0776 45.5922 33.4727 45.1423 33.9158C44.5798 34.4689 44.3361 35.1769 44.3361 35.9554V39.4729C44.3361 39.876 44.0843 40.1996 43.6667 40.1996H43.552C43.1344 40.1996 42.8826 39.8762 42.8826 39.4729V35.7536C42.8826 34.3254 43.5778 33.1596 44.7388 32.3419C45.4326 31.8534 46.2239 31.5956 47.071 31.5956L47.0693 31.5951ZM36.7429 38.5656C37.2717 38.7502 37.8745 38.7238 38.4169 38.6293C38.6944 38.5112 39.4039 38.2018 39.6649 38.2472L39.7056 38.2541L39.7431 38.2725C39.9025 38.3497 40.0544 38.4591 40.1359 38.6212C40.326 39.0013 40.2347 39.3834 39.8612 39.5992L39.7369 39.6711C38.3588 40.4664 36.8929 40.3562 35.5191 39.6133C34.8623 39.2582 34.3598 38.7311 33.9891 38.0886L33.9025 37.9386C33.0175 36.4063 33.1371 34.7946 34.135 33.3373C34.4794 32.8337 34.9296 32.4448 35.4559 32.1403L35.655 32.0254C36.9529 31.2761 38.3438 31.3275 39.6769 31.9851C40.3937 32.3387 40.9744 32.8658 41.3745 33.5589L41.4465 33.6838C41.7372 34.1874 41.3607 34.6262 40.9722 34.9262C40.521 35.2742 40.0656 35.6949 39.6334 36.0662L36.7433 38.5656H36.7429ZM35.4951 37.6892L39.8638 33.9323C39.5713 33.5636 39.0827 33.2979 38.6676 33.1395C37.8295 32.8202 37.0032 32.9276 36.2346 33.3711C35.2287 33.9519 34.8002 34.8767 34.8377 36.0279C34.8527 36.4813 34.9746 36.9182 35.2152 37.3039C35.2999 37.4398 35.3946 37.5675 35.497 37.6892H35.4951ZM27.6542 8.5747H31.9416V12.9576H34.1091C35.1103 12.9576 36.1397 12.7794 37.0879 12.4581C37.5538 12.3 38.0766 12.0803 38.5362 11.8018C37.9309 11.0117 37.6219 10.014 37.5312 9.0306C37.4074 7.6927 37.6774 5.95181 38.5827 4.90463L39.0334 4.38338L39.5704 4.81519C40.9204 5.90137 42.0597 7.4214 42.2601 9.1498C43.8882 8.6709 45.7997 8.7842 47.2345 9.6124L47.8232 9.9521L47.5135 10.557C46.3004 12.9274 43.7627 13.6612 41.2821 13.5313C37.5702 22.7751 29.4887 27.1538 19.6902 27.1538C14.6277 27.1538 9.98329 25.2613 7.33841 20.7699L7.29529 20.6949L6.90998 19.9108C6.01598 17.9338 5.71897 15.768 5.92035 13.6039L5.98091 12.9557H9.6471V8.5747H13.9343V4.28737H22.5092V0H27.6542V8.5747Z" fill="#364548"/>
<path fill-rule="evenodd" clip-rule="evenodd" d="M41.5443 10.1965C41.8317 7.9623 40.1598 6.2075 39.1229 5.37402C37.928 6.7555 37.7423 10.3761 39.617 11.9005C38.5707 12.8298 36.3663 13.672 34.109 13.672H6.63178C6.41241 16.0283 6.82603 18.1983 7.77084 20.0555L8.08341 20.6273C8.28131 20.963 8.49758 21.2875 8.73122 21.5993C9.86091 21.6719 10.9025 21.6968 11.8553 21.6758H11.8557C13.7283 21.6346 15.2562 21.4133 16.4142 21.0121C16.4961 20.9866 16.5846 20.994 16.6612 21.0327C16.7377 21.0713 16.7962 21.1382 16.8243 21.2192C16.8523 21.3002 16.8478 21.389 16.8116 21.4667C16.7755 21.5444 16.7105 21.605 16.6304 21.6357C16.4763 21.6893 16.3158 21.7392 16.15 21.7866H16.1495C15.2377 22.0491 14.2598 22.2222 12.9983 22.3C13.0733 22.3013 12.9203 22.3113 12.92 22.3113C12.8768 22.3141 12.823 22.3203 12.7799 22.3225C12.2834 22.3506 11.7475 22.3563 11.1997 22.3563C10.6004 22.3563 10.0103 22.345 9.35053 22.3113L9.33178 22.3225C11.6193 24.8958 15.2009 26.4391 19.6882 26.4391C29.1847 26.4391 37.2397 22.2293 40.8067 12.7784C43.3372 13.0381 45.7692 12.3927 46.8755 10.2331C45.1133 9.2163 42.8472 9.5405 41.5424 10.1963" fill="#22A0C8"/>
<path fill-rule="evenodd" clip-rule="evenodd" d="M41.5439 10.1965C41.8313 7.9623 40.1594 6.2075 39.1225 5.37402C37.9275 6.7555 37.7419 10.3761 39.6165 11.9005C38.5703 12.8298 36.3658 13.672 34.1085 13.672H8.25847C8.14635 17.2806 9.48547 20.0198 11.8547 21.6758H11.8553C13.7278 21.6346 15.2558 21.4133 16.4138 21.0121C16.4957 20.9866 16.5842 20.994 16.6607 21.0327C16.7373 21.0713 16.7958 21.1382 16.8238 21.2192C16.8519 21.3002 16.8474 21.389 16.8112 21.4667C16.775 21.5444 16.71 21.605 16.63 21.6357C16.4758 21.6893 16.3154 21.7392 16.1496 21.7866H16.149C15.2372 22.0491 14.1754 22.2447 12.9139 22.3225C12.9135 22.3225 12.8833 22.2935 12.883 22.2935C16.1149 23.9513 20.8011 23.9435 26.1739 21.8815C32.1983 19.567 37.8045 15.1578 41.7177 10.1146C41.6598 10.1407 41.6025 10.1679 41.5457 10.1963" fill="#37B1D9"/>
<path fill-rule="evenodd" clip-rule="evenodd" d="M6.68359 16.5347C6.85234 17.797 7.22359 18.9788 7.77109 20.0552L8.08366 20.6271C8.28153 20.9628 8.4978 21.2872 8.73147 21.5991C9.86134 21.6716 10.9027 21.6966 11.856 21.6756C13.7285 21.6343 15.2565 21.4131 16.4145 21.0118C16.4963 20.9864 16.5849 20.9937 16.6614 21.0324C16.7379 21.0711 16.7964 21.138 16.8245 21.219C16.8526 21.3 16.8481 21.3887 16.8119 21.4664C16.7757 21.5442 16.7107 21.6048 16.6307 21.6354C16.4765 21.6891 16.316 21.7389 16.1503 21.7864H16.1497C15.2379 22.0489 14.1817 22.2332 12.9202 22.3114C12.8771 22.314 12.8013 22.3146 12.7577 22.317C12.2615 22.3448 11.7311 22.362 11.183 22.362C10.559 22.3632 9.93504 22.3482 9.31178 22.317C11.5993 24.8904 15.203 26.4373 19.6903 26.4373C27.8203 26.4373 34.8935 23.3514 38.999 16.5332H6.68359" fill="#1B81A5"/>
<path fill-rule="evenodd" clip-rule="evenodd" d="M8.50586 16.5352C8.99186 18.7514 10.1596 20.4914 11.8554 21.676C13.7279 21.6348 15.2559 21.4135 16.4139 21.0123C16.4957 20.9868 16.5843 20.9942 16.6608 21.0329C16.7373 21.0715 16.7958 21.1384 16.8239 21.2194C16.852 21.3004 16.8475 21.3892 16.8113 21.4669C16.7751 21.5446 16.7101 21.6052 16.63 21.6359C16.4759 21.6895 16.3154 21.7394 16.1497 21.7868H16.1491C15.2373 22.0493 14.1588 22.2337 12.8971 22.3118C16.1289 23.9693 20.8015 23.9455 26.1721 21.8819C29.4222 20.6332 32.5503 18.7743 35.3566 16.5353H8.50586" fill="#1D91B4"/>
<path fill-rule="evenodd" clip-rule="evenodd" d="M10.3613 9.2893H14.0772V13.005H10.3613V9.2893ZM10.6707 9.5991H10.964V12.6938H10.6688V9.5991H10.6707ZM11.222 9.5991H11.527V12.6938H11.222V9.5991ZM11.7848 9.5991H12.0899V12.6938H11.7848V9.5991ZM12.3481 9.5991H12.653V12.6938H12.3481V9.5991ZM12.9111 9.5991H13.216V12.6938H12.9113V9.5991H12.9111ZM13.474 9.5991H13.7675V12.6938H13.4738V9.5991H13.474ZM14.6485 5.00195H18.3648V8.7176H14.6485V5.00195ZM14.9583 5.3117H15.2513V8.4081H14.9583V5.31189V5.3117ZM15.5095 5.3117H15.8144V8.4081H15.5101V5.31189L15.5095 5.3117ZM16.0724 5.3117H16.3773V8.4081H16.0726V5.31189L16.0724 5.3117ZM16.6355 5.3117H16.9403V8.4081H16.6355V5.31189V5.3117ZM17.1985 5.3117H17.5036V8.4081H17.1985V5.31189V5.3117ZM17.7614 5.3117H18.055V8.4081H17.7614V5.31189V5.3117Z" fill="#23A3C2"/>
<path fill-rule="evenodd" clip-rule="evenodd" d="M14.6484 9.28906H18.3647V13.0048H14.6484V9.28906ZM14.9582 9.59876H15.2513V12.6935H14.9582V9.59876ZM15.5094 9.59876H15.8143V12.6935H15.5098V9.59876H15.5094ZM16.0723 9.59876H16.3772V12.6935H16.0723V9.59876ZM16.6354 9.59876H16.9403V12.6935H16.6354V9.59876ZM17.1984 9.59876H17.5035V12.6935H17.1984V9.59876ZM17.7613 9.59876H18.0549V12.6935H17.7613V9.59876Z" fill="#34BBDE"/>
<path fill-rule="evenodd" clip-rule="evenodd" d="M18.9365 9.28906H22.6524V13.0048H18.9365V9.28906ZM19.2459 9.59876H19.539V12.6935H19.2459V9.59876ZM19.7971 9.59876H20.102V12.6935H19.7971V9.59876ZM20.3602 9.59876H20.6651V12.6935H20.3602V9.59876ZM20.9233 9.59876H21.2281V12.6935H20.9253V9.59876H20.9233ZM21.4862 9.59876H21.7914V12.6935H21.4862V9.59876ZM22.0492 9.59876H22.3425V12.6935H22.0492V9.59876Z" fill="#23A3C2"/>
<path fill-rule="evenodd" clip-rule="evenodd" d="M18.9365 5.00195H22.6524V8.7176H18.9365V5.00195ZM19.2459 5.3117H19.539V8.4081H19.2459V5.31189V5.3117ZM19.7971 5.3117H20.102V8.4081H19.7971V5.31189V5.3117ZM20.3602 5.3117H20.6651V8.4081H20.3602V5.31189V5.3117ZM20.9233 5.3117H21.2281V8.4081H20.9253V5.31189L20.9233 5.3117ZM21.4862 5.3117H21.7914V8.4081H21.4862V5.31189V5.3117ZM22.0492 5.3117H22.3425V8.4081H22.0492V5.31189V5.3117ZM23.2237 9.2893H26.9396V13.005H23.2241V9.2893H23.2237ZM23.5335 9.5991H23.8265V12.6938H23.5316V9.5991H23.5335ZM24.0847 9.5991H24.3896V12.6938H24.0847V9.5991ZM24.6476 9.5991H24.9525V12.6938H24.6476V9.5991ZM25.2107 9.5991H25.5157V12.6938H25.2107V9.5991ZM25.7737 9.5991H26.0788V12.6938H25.7737V9.5991ZM26.3368 9.5991H26.63V12.6938H26.3368V9.5991Z" fill="#34BBDE"/>
<path fill-rule="evenodd" clip-rule="evenodd" d="M23.2236 5.00195H26.9395V8.7176H23.2236V5.00195ZM23.5334 5.3117H23.8264V8.4081H23.5334V5.31189V5.3117ZM24.0846 5.3117H24.3895V8.4081H24.0846V5.31189V5.3117ZM24.6475 5.3117H24.9524V8.4081H24.6475V5.31189V5.3117ZM25.2106 5.3117H25.5156V8.4081H25.2106V5.31189V5.3117ZM25.7736 5.3117H26.0787V8.4081H25.7736V5.31189V5.3117ZM26.3367 5.3117H26.6299V8.4081H26.3367V5.31189V5.3117Z" fill="#23A3C2"/>
<path fill-rule="evenodd" clip-rule="evenodd" d="M23.2236 0.712402H26.9395V4.42865H23.2236V0.712402ZM23.5334 1.02178H23.8264V4.11853H23.5334V1.02365V1.02178ZM24.0846 1.02178H24.3895V4.11853H24.0846V1.02365V1.02178ZM24.6475 1.02178H24.9524V4.11853H24.6475V1.02365V1.02178ZM25.2106 1.02178H25.5156V4.11853H25.2106V1.02365V1.02178ZM25.7736 1.02178H26.0787V4.11853H25.7736V1.02365V1.02178ZM26.3367 1.02178H26.6299V4.11853H26.3367V1.02365V1.02178Z" fill="#34BBDE"/>
<path fill-rule="evenodd" clip-rule="evenodd" d="M27.5107 9.28906H31.2266V13.0048H27.5107V9.28906ZM27.8201 9.59876H28.1136V12.6935H27.8203V9.59876H27.8201ZM28.3714 9.59876H28.6764V12.6935H28.3716V9.59876H28.3714ZM28.9346 9.59876H29.2397V12.6935H28.9346V9.59876ZM29.4975 9.59876H29.8026V12.6935H29.4975V9.59876ZM30.0607 9.59876H30.3656V12.6935H30.0607V9.59876ZM30.6236 9.59876H30.9169V12.6935H30.6236V9.59876Z" fill="#23A3C2"/>
<path fill-rule="evenodd" clip-rule="evenodd" d="M18.1317 19.0299C18.2675 19.0281 18.4023 19.0533 18.5283 19.104C18.6542 19.1547 18.7689 19.2299 18.8655 19.3253C18.9622 19.4207 19.0389 19.5344 19.0913 19.6597C19.1437 19.785 19.1706 19.9194 19.1706 20.0552C19.1706 20.191 19.1436 20.3255 19.0912 20.4508C19.0388 20.576 18.962 20.6897 18.8653 20.785C18.7686 20.8804 18.6539 20.9556 18.5279 21.0062C18.4019 21.0569 18.2671 21.0821 18.1313 21.0802C17.8618 21.0765 17.6046 20.9668 17.4154 20.7749C17.2261 20.5831 17.1201 20.3244 17.1201 20.0548C17.1202 19.7853 17.2263 19.5267 17.4157 19.3349C17.605 19.143 17.8622 19.0335 18.1317 19.0299Z" fill="#D3ECEC"/>
<path fill-rule="evenodd" clip-rule="evenodd" d="M18.132 19.3205C18.2229 19.3204 18.313 19.3372 18.3977 19.3702C18.3408 19.4032 18.2963 19.4541 18.2712 19.5149C18.246 19.5758 18.2417 19.6432 18.2587 19.7068C18.2757 19.7704 18.3132 19.8266 18.3654 19.8667C18.4175 19.9069 18.4815 19.9287 18.5473 19.9289C18.6607 19.9289 18.7592 19.8661 18.8102 19.7733C18.8706 19.9188 18.8826 20.0798 18.8444 20.2326C18.8062 20.3854 18.72 20.5219 18.5983 20.6219C18.4766 20.7219 18.326 20.7801 18.1687 20.7879C18.0114 20.7957 17.8557 20.7527 17.7247 20.6653C17.5937 20.5779 17.4943 20.4506 17.4412 20.3024C17.3881 20.1541 17.384 19.9927 17.4297 19.8419C17.4753 19.6912 17.5683 19.5591 17.6947 19.4653C17.8212 19.3714 17.9745 19.3205 18.132 19.3205ZM0 16.9053H47.6863C46.6481 16.642 44.4013 16.2862 44.7718 14.9253C42.8837 17.11 38.3306 16.4581 37.1814 15.3809C35.9019 17.2368 28.4526 16.5312 27.933 15.0854C26.3287 16.9679 21.3579 16.9679 19.7537 15.0854C19.2337 16.5292 11.7846 17.2368 10.5049 15.3807C9.35587 16.4581 4.80487 17.11 2.91487 14.9255C3.28537 16.2862 1.03875 16.6419 0 16.9053Z" fill="#364548"/>
<path fill-rule="evenodd" clip-rule="evenodd" d="M20.8566 26.4187C18.3179 25.214 16.9248 23.5762 16.1493 21.7886C15.2061 22.0576 14.0727 22.2298 12.7555 22.3036C12.2594 22.3314 11.7374 22.3456 11.1899 22.3456C10.5584 22.3456 9.89296 22.3269 9.19434 22.2899C11.5225 24.6149 14.3866 26.4082 19.6898 26.4408C20.0813 26.4408 20.4698 26.4333 20.8566 26.4187Z" fill="#BDD9D7"/>
<path fill-rule="evenodd" clip-rule="evenodd" d="M17.0925 23.4361C16.7414 22.9593 16.3988 22.3599 16.1502 21.7861C15.207 22.0556 14.0732 22.2277 12.7559 22.3018C13.6607 22.793 14.9547 23.2479 17.0927 23.4361" fill="#D3ECEC"/>
</svg>
