<svg width="48" height="18" viewBox="0 0 48 18" fill="none" xmlns="http://www.w3.org/2000/svg">
<path d="M3.75682 5.56142C3.66406 5.56142 3.64087 5.51522 3.68725 5.44602L4.17421 4.82292C4.22058 4.75372 4.33653 4.70752 4.42928 4.70752H12.7075C12.8003 4.70752 12.8235 4.77682 12.7771 4.84602L12.3829 5.44602C12.3365 5.51522 12.2206 5.58442 12.151 5.58442L3.75682 5.56142Z" fill="#00ACD7"/>
<path d="M0.254863 7.68437C0.16211 7.68437 0.138921 7.63827 0.185298 7.56897L0.672254 6.94597C0.718631 6.87667 0.834573 6.83057 0.927327 6.83057H11.5012C11.594 6.83057 11.6404 6.89977 11.6172 6.96897L11.4317 7.52287C11.4085 7.61517 11.3157 7.66127 11.223 7.66127L0.254863 7.68437Z" fill="#00ACD7"/>
<path d="M5.86619 9.80752C5.77344 9.80752 5.75025 9.73821 5.79663 9.66901L6.12126 9.09212C6.16764 9.02282 6.26039 8.95361 6.35315 8.95361H10.9908C11.0836 8.95361 11.13 9.02281 11.13 9.11521L11.0836 9.66901C11.0836 9.76131 10.9908 9.83051 10.9213 9.83051L5.86619 9.80752Z" fill="#00ACD7"/>
<path d="M29.9365 5.14607C28.4756 5.51527 27.4785 5.79217 26.0408 6.16147C25.693 6.25377 25.6698 6.27687 25.3684 5.93067C25.0205 5.53837 24.7655 5.28457 24.2785 5.05377C22.8176 4.33837 21.4031 4.54607 20.0814 5.39987C18.5046 6.41527 17.693 7.91527 17.7162 9.78457C17.7394 11.6307 19.0147 13.1538 20.8466 13.4076C22.4234 13.6153 23.7452 13.0615 24.7887 11.8846C24.9973 11.6307 25.1829 11.3538 25.4147 11.0307C24.58 11.0307 23.5365 11.0307 20.9394 11.0307C20.4524 11.0307 20.3365 10.7307 20.4988 10.3384C20.8002 9.62297 21.3568 8.42297 21.6814 7.82297C21.751 7.68457 21.9133 7.45377 22.2611 7.45377C23.4437 7.45377 27.8031 7.45377 30.7017 7.45377C30.6553 8.07687 30.6553 8.69987 30.5626 9.32297C30.3075 10.9846 29.6814 12.5076 28.6611 13.8461C26.9916 16.0384 24.8118 17.3999 22.0524 17.7692C19.78 18.0692 17.6698 17.6307 15.8147 16.2461C14.0988 14.9538 13.1249 13.2461 12.8698 11.123C12.5684 8.60757 13.3104 6.34607 14.8408 4.36147C16.4872 2.21527 18.6669 0.853772 21.3336 0.369172C23.5133 -0.0231281 25.6002 0.230671 27.4785 1.49987C28.7075 2.30757 29.5887 3.41527 30.1684 4.75377C30.3075 4.96147 30.2147 5.07687 29.9365 5.14607Z" fill="#00ACD7"/>
<path d="M37.6121 17.9078C35.502 17.8617 33.5773 17.2617 31.9541 15.877C30.586 14.7001 29.728 13.2001 29.4498 11.4232C29.0324 8.81552 29.7512 6.50782 31.3281 4.45402C33.0208 2.23862 35.0614 1.08472 37.8208 0.600119C40.186 0.184719 42.4121 0.415522 44.4295 1.77702C46.2614 3.02322 47.3976 4.70782 47.6991 6.92322C48.0933 10.0386 47.1889 12.577 45.0324 14.7463C43.502 16.2924 41.6237 17.2617 39.4672 17.7001C38.8411 17.8155 38.215 17.8386 37.6121 17.9078ZM43.1309 8.58472C43.1078 8.28472 43.1078 8.05402 43.0614 7.82322C42.644 5.53862 40.5338 4.24632 38.3309 4.75402C36.1744 5.23862 34.7831 6.60012 34.273 8.76932C33.8556 10.5693 34.7367 12.3924 36.4063 13.1309C37.6817 13.6847 38.957 13.6155 40.186 12.9924C42.0179 12.0463 43.015 10.5693 43.1309 8.58472Z" fill="#00ACD7"/>
</svg>
