<svg width="48" height="36" viewBox="0 0 48 36" fill="none" xmlns="http://www.w3.org/2000/svg">
<path fill-rule="evenodd" clip-rule="evenodd" d="M32.1996 16.2078L29.9739 15.0768C29.9738 15.0758 29.9736 15.0738 29.9736 15.0728C29.9736 14.2928 30.5991 13.6608 31.3708 13.6608C32.1424 13.6608 32.768 14.2928 32.768 15.0728C32.768 15.5388 32.5437 15.9498 32.1996 16.2078ZM29.7959 34.0468H32.867C32.914 31.3168 33.4894 24.6678 37.78 21.4238C42.7997 17.6268 45.5968 13.5928 45.8687 9.75684C46.1195 6.21884 44.2003 3.98383 43.6062 3.38283C42.3934 2.15783 40.7812 1.46784 39.0664 1.43984C37.3635 1.41584 35.7394 2.04284 34.4963 3.21384L35.3874 4.11384C36.2345 3.47684 37.2411 3.14085 38.2998 3.14085C40.9924 3.14085 43.1828 5.35484 43.1828 8.07584C43.1828 9.39384 42.675 10.6338 41.7528 11.5658C38.986 14.3618 35.8211 12.7328 32.1565 10.8468C29.6 9.53084 26.7024 8.03884 23.174 7.45684C19.0881 6.78284 14.9639 7.48484 10.5655 9.60084C10.1467 9.80184 9.82785 10.1728 9.69051 10.6198C9.55306 11.0658 9.60707 11.5548 9.83889 11.9598L9.94976 12.1528C9.95214 12.1568 9.95439 12.1618 9.95677 12.1658L12.841 17.2048C13.2934 17.9948 14.3028 18.2748 15.0911 17.8288L15.166 17.7868C15.1964 17.7698 15.2275 17.7548 15.259 17.7428L16.4255 17.0828C16.5871 16.9828 18.7305 15.6448 20.4959 14.0138C20.7862 13.7458 21.2367 13.7658 21.5021 14.0588C21.7676 14.3528 21.7474 14.8078 21.457 15.0768C19.5244 16.8618 17.2499 18.2618 17.154 18.3198C17.147 18.3248 17.1399 18.3288 17.1328 18.3328L15.8017 19.0858C15.7682 19.1048 15.7335 19.1208 15.6982 19.1338C14.2481 19.8918 12.4313 19.3638 11.6081 17.9258L9.10614 13.5548L8.57197 13.9268C5.89437 15.8388 3.84055 18.6028 2.63856 21.9168C1.33543 25.5098 1.07523 29.7038 1.88621 34.0468H5.08006C5.4332 31.3178 7.75196 29.2608 10.481 29.2608C13.2098 29.2608 15.5287 31.3178 15.8819 34.0468H18.994C19.3473 31.3178 21.6661 29.2608 24.395 29.2608C27.124 29.2608 29.4427 31.3178 29.7959 34.0468ZM32.8868 35.4868H29.7777C29.073 35.4868 28.4743 34.9538 28.3851 34.2458C28.1301 32.2248 26.4147 30.7008 24.395 30.7008C22.3753 30.7008 20.6599 32.2248 20.4048 34.2458C20.3157 34.9538 19.7171 35.4868 19.0123 35.4868H15.8636C15.1588 35.4868 14.5602 34.9538 14.4711 34.2458C14.2161 32.2248 12.5007 30.7008 10.481 30.7008C8.46134 30.7008 6.74583 32.2248 6.49085 34.2458C6.40171 34.9538 5.80308 35.4868 5.09834 35.4868H1.869C1.19524 35.4868 0.615013 35.0008 0.489543 34.3308C-0.372722 29.7268 -0.0921059 25.2628 1.30124 21.4208C2.60306 17.8318 4.83529 14.8318 7.75659 12.7468L8.41587 12.2868C8.15164 11.6238 8.11816 10.8808 8.33029 10.1918C8.58526 9.36384 9.17676 8.67383 9.95321 8.30083C20.4967 3.22883 27.6095 6.88983 32.803 9.56383C36.6847 11.5618 38.8008 12.5128 40.7455 10.5478C41.3987 9.88784 41.7584 9.00984 41.7584 8.07584C41.7584 6.14884 40.2069 4.57984 38.2998 4.57984C37.546 4.57984 36.8298 4.82084 36.2285 5.27584C35.6725 5.69684 34.883 5.64084 34.3922 5.14384L33.4754 4.21784C33.2078 3.94684 33.058 3.57284 33.0641 3.18984C33.0704 2.80684 33.2325 2.43783 33.5086 2.17583C35.0244 0.739833 37.0085 -0.0291543 39.0887 0.000845694C41.1756 0.0338457 43.1377 0.873844 44.6134 2.36484C45.3156 3.07484 47.5835 5.71284 47.2895 9.85984C46.9829 14.1858 44.0705 18.4648 38.6334 22.5758C37.3687 23.5328 34.4143 26.5688 34.2909 34.0898C34.2784 34.8598 33.6484 35.4868 32.8868 35.4868Z" fill="#02303A"/>
</svg>
