<svg width="37" height="36" viewBox="0 0 37 36" fill="none" xmlns="http://www.w3.org/2000/svg">
<path d="M0.363281 22.8525L0.451051 24.4625C0.465451 24.7295 0.678371 25.0015 0.924191 25.0665L1.74259 25.2835L4.38669 25.9865L5.20509 26.2035C5.45089 26.2685 5.77049 26.1385 5.91549 25.9145L6.79079 24.5605L0.363281 22.8525Z" fill="#757575"/>
<path opacity="0.2" d="M3.06445 25.6356L4.38649 25.9865L5.20489 26.2046C5.45079 26.2696 5.77029 26.1396 5.91529 25.9146L6.79059 24.5605L3.57565 23.7065" fill="black"/>
<path d="M0.362305 22.8527L3.23579 9.95166L10.78 11.9566L6.78979 24.5606" fill="#F3F3F3"/>
<path d="M11.1514 10.5586L11.1511 10.5596C11.1514 10.5586 11.1504 10.5576 11.1504 10.5576L11.1514 10.5586Z" fill="#5BC348"/>
<path d="M11.1509 10.5577C11.1509 10.5577 11.1519 10.5587 11.1515 10.5597C10.9582 10.7197 10.8118 10.9377 10.7429 11.1977C10.6758 11.4487 10.689 11.7137 10.7806 11.9557L3.23633 9.95067C3.42833 9.79067 3.57644 9.57166 3.64535 9.31166C3.71461 9.05066 3.69473 8.78867 3.60764 8.55367C3.60798 8.55267 3.60901 8.55367 3.60901 8.55367L11.1509 10.5577Z" fill="#C6C6C5"/>
<path d="M11.1506 10.5586L3.6084 8.55363C4.38669 5.67463 6.20549 3.92263 8.44299 3.39463C8.57469 3.36263 8.71459 3.35862 8.85479 3.37562C8.90689 3.38162 8.96039 3.39162 9.01419 3.40562C9.06669 3.41962 9.11809 3.43863 9.16749 3.45863C9.29639 3.51363 9.41569 3.58563 9.51409 3.67863C11.1955 5.24763 11.9045 7.67163 11.1506 10.5586Z" fill="#F3F3F3"/>
<path d="M3.60879 8.55371C3.60879 8.55371 3.60776 8.55372 3.60742 8.55472L3.60776 8.55371H3.60879Z" fill="#5BC348"/>
<path d="M7.00779 10.9546L10.78 11.9566L6.78979 24.5606L3.57617 23.7066" fill="#C6C6C5"/>
<path d="M11.1514 10.5586L11.1511 10.5596C11.1514 10.5586 11.1504 10.5576 11.1504 10.5576L11.1514 10.5586Z" fill="#D3DDE2"/>
<path opacity="0.2" d="M7.37979 9.55765L7.38009 9.55664L11.1512 10.5587C11.1512 10.5587 11.1522 10.5587 11.1519 10.5597C10.9585 10.7197 10.8121 10.9387 10.7432 11.1977C10.6761 11.4487 10.6893 11.7136 10.7809 11.9566L7.00879 10.9536" fill="black"/>
<path d="M9.01498 3.40576C9.06738 3.41976 9.11888 3.43777 9.16818 3.45877C9.29708 3.51277 9.41648 3.58577 9.51488 3.67877C11.1959 5.24777 11.9049 7.67278 11.151 10.5588L7.37988 9.55676" fill="#C6C6C5"/>
<path d="M4.07106 24.205C4.06934 24.209 4.06763 24.215 4.06557 24.219C4.06386 24.224 4.06214 24.229 4.06009 24.234C3.9514 24.536 3.62774 24.711 3.31129 24.627C2.99483 24.543 2.80009 24.23 2.85632 23.914C2.857 23.908 2.85803 23.903 2.85906 23.898C2.85974 23.893 2.86077 23.888 2.8618 23.883L4.53219 14.613C4.53979 14.564 4.54999 14.515 4.56309 14.466C4.76429 13.708 5.54189 13.257 6.29929 13.458C7.05699 13.66 7.50789 14.437 7.30659 15.195C7.29359 15.244 7.27779 15.292 7.25999 15.338L4.07106 24.205Z" fill="#1967D2"/>
<path opacity="0.2" d="M6.31779 13.4639C7.07549 13.6649 7.52639 14.4429 7.32509 15.1999C7.31209 15.2489 7.29629 15.2969 7.27849 15.3429L4.08887 24.2089C4.08716 24.2139 4.08544 24.2189 4.08338 24.2239C4.08167 24.2289 4.07996 24.2339 4.0779 24.2389C3.96921 24.5409 3.64556 24.7149 3.3291 24.6309" fill="black"/>
<path fill-rule="evenodd" clip-rule="evenodd" d="M2.8635 26.3805C-0.896957 25.3815 -0.217068 31.6225 0.795392 33.4605L0.795042 33.4585C0.809522 33.4905 0.830703 33.5175 0.857073 33.5395C0.883453 33.5625 0.914383 33.5785 0.947673 33.5865C0.980953 33.5955 1.01577 33.5975 1.04966 33.5915C1.08355 33.5845 1.11566 33.5715 1.14373 33.5515L1.1427 33.5525C2.8539 32.5085 6.79129 27.4245 2.8635 26.3805Z" fill="#E37400"/>
<path fill-rule="evenodd" clip-rule="evenodd" d="M2.78373 26.7185C0.390252 26.0825 0.937802 29.6234 1.61185 30.6814V30.6804C1.65402 30.7574 1.75894 30.7844 1.83368 30.7394H1.83299C2.89379 30.1824 5.28349 27.3835 2.78373 26.7185Z" fill="#FBBC04"/>
<path d="M35.5715 17.3368C36.4266 16.4758 36.4214 15.0868 35.5602 14.2318C34.6989 13.3768 33.31 13.3818 32.4549 14.2428L25.4867 21.2627C24.6316 22.1237 24.6368 23.5128 25.498 24.3678C26.3593 25.2228 27.7482 25.2178 28.6033 24.3568L35.5715 17.3368ZM24.7492 28.0888C25.6043 27.2268 25.5991 25.8387 24.7379 24.9827C23.8766 24.1277 22.4877 24.1328 21.6326 24.9948L15.1379 31.5368C14.2828 32.3978 14.2879 33.7868 15.1492 34.6418C16.0105 35.4968 17.3994 35.4918 18.2545 34.6308L24.7492 28.0888ZM17.5862 27.1377C18.4249 26.2927 18.441 24.9518 17.6219 24.1388C16.8028 23.3258 15.4615 23.3508 14.6229 24.1958L8.25189 30.6128C7.41329 31.4578 7.39719 32.7998 8.21629 33.6128C9.03539 34.4258 10.3766 34.3998 11.2153 33.5548L17.5862 27.1377Z" fill="#78C257"/>
<path d="M12.0619 9.65967L11.4941 11.6577L30.8632 16.1217L31.2211 14.7307L12.0619 9.65967Z" fill="white"/>
<path d="M11.8521 10.7418L11.7455 10.7138L8.03232 24.6998C7.72242 25.8678 8.42352 27.0758 9.59102 27.3848L24.5478 31.3558C25.7156 31.6658 26.9234 30.9648 27.2334 29.7969L30.9465 15.8108L11.8521 10.7418ZM11.9718 9.96885L31.1355 15.0568L31.4073 14.0328C31.4533 13.7308 31.4855 13.4368 31.502 13.1388C31.634 10.5138 30.4614 7.94284 28.4022 6.08884L30.5862 3.77485C30.722 3.62785 30.7134 3.40283 30.5721 3.26883C30.4257 3.13283 30.2005 3.14184 30.0661 3.28284L27.8574 5.62482C26.738 4.74482 25.4056 4.06584 23.9128 3.66984C22.409 3.27084 20.9036 3.20183 19.4886 3.41483L18.7298 0.273839C18.6832 0.0838394 18.4868 -0.0361681 18.2975 0.00983186C18.1082 0.0568319 17.9876 0.252846 18.0342 0.442846L18.784 3.55283C16.205 4.12883 14.0001 5.66185 12.7802 7.84885C12.4641 8.41585 12.2159 9.02985 12.0431 9.67984C12.0163 9.78084 11.9906 9.87683 11.9704 9.97483L11.9718 9.96885Z" fill="#78C257"/>
<path d="M27.536 8.542C28.0318 8.673 28.3294 9.18598 28.1977 9.68198C28.0661 10.178 27.5532 10.476 27.0574 10.344C26.5616 10.212 26.2637 9.69999 26.3953 9.20399C26.5273 8.70799 27.0402 8.41 27.536 8.542ZM18.6025 6.16801C19.0983 6.29901 19.3959 6.81199 19.2642 7.30799C19.1326 7.80399 18.6197 8.10198 18.1239 7.96998C17.6281 7.83798 17.3302 7.32599 17.4618 6.82999C17.5938 6.33399 18.1067 6.03601 18.6025 6.16801Z" fill="white"/>
<path d="M9.4884 19.2246L29.3899 24.5126L28.7765 26.8206L8.875 21.5336L9.4884 19.2246Z" fill="#F3F3F3"/>
</svg>
