<svg width="42" height="40" viewBox="0 0 42 40" fill="none" xmlns="http://www.w3.org/2000/svg">
<path d="M38.3258 8.8962C38.0856 8.1391 37.5093 7.5239 36.7889 7.1454L22.1401 0.236603C21.7558 0.0473028 21.3236 0 20.9393 0C20.5551 0 20.1229 -3.13669e-06 19.7386 0.0945969L5.08983 7.0507C4.36939 7.382 3.84108 7.9971 3.64896 8.8016L0.0467986 24.37C-0.0972914 25.1744 0.0948287 25.9788 0.575109 26.6413L10.7092 38.992C11.2855 39.56 12.102 39.938 12.9185 39.986H29.0562C29.9207 40.08 30.7372 39.702 31.2655 38.992L41.3996 26.6413C41.8799 25.9788 42.072 25.1744 41.976 24.37L38.3258 8.8962Z" fill="#326DE6"/>
<path d="M36.133 23.9294C36.0848 23.9294 36.0366 23.9294 36.0366 23.8815C36.0366 23.8336 35.9403 23.8336 35.844 23.8336C35.6513 23.7857 35.4586 23.7857 35.2659 23.7857C35.1696 23.7857 35.0733 23.7857 34.9769 23.7378H34.9288C34.3989 23.6899 33.8209 23.5941 33.2911 23.4504C33.1466 23.4025 33.002 23.2588 32.9539 23.1151C32.9539 23.1151 33.002 23.1151 32.9539 23.1151L32.5685 23.0193C32.7612 21.6302 32.6649 20.1932 32.3759 18.8042C32.0387 17.4151 31.4607 16.0739 30.69 14.8764L30.979 14.589V14.5411C30.979 14.3974 31.0272 14.2058 31.1235 14.11C31.557 13.7268 31.9905 13.4394 32.4722 13.1521C32.5685 13.1042 32.6649 13.0563 32.7612 13.0084C32.9539 12.9126 33.0984 12.8168 33.2911 12.721C33.3392 12.6731 33.3874 12.6731 33.4356 12.6252C33.4837 12.5773 33.4356 12.5773 33.4356 12.5294C33.8691 12.1941 33.9654 11.6193 33.6282 11.1882C33.4837 10.9966 33.1947 10.8529 32.9539 10.8529C32.713 10.8529 32.4722 10.9487 32.2795 11.0924L32.2314 11.1403C32.1832 11.1882 32.135 11.2361 32.0869 11.2361C31.9423 11.3798 31.7978 11.5235 31.7015 11.6672C31.6533 11.763 31.557 11.8109 31.5088 11.8588C31.1717 12.242 30.7381 12.6252 30.3046 12.9126C30.2083 12.9605 30.112 13.0084 30.0156 13.0084C29.9675 13.0084 29.8711 13.0084 29.823 12.9605H29.7748L29.3894 13.2C29.0041 12.8168 28.5706 12.4336 28.1852 12.0504C26.403 10.6613 24.1873 9.79908 21.9234 9.55958L21.8752 9.17638V9.22427C21.7307 9.12847 21.6826 8.98478 21.6344 8.84108C21.6344 8.31418 21.6344 7.78728 21.7307 7.21248V7.16457C21.7307 7.06877 21.7789 6.97297 21.7789 6.87717C21.8271 6.68567 21.8271 6.49407 21.8752 6.30247V6.01508C21.9234 5.53608 21.538 5.05708 21.0564 5.00918C20.7674 4.96128 20.4784 5.10497 20.2375 5.34447C20.0448 5.53607 19.9485 5.77558 19.9485 6.01508V6.25458C19.9485 6.44618 19.9967 6.63778 20.0448 6.82928C20.093 6.92508 20.093 7.02088 20.093 7.11668V7.16457C20.1893 7.69147 20.1893 8.21837 20.1893 8.79317C20.1412 8.93687 20.093 9.08058 19.9485 9.17638V9.27218L19.9003 9.65538C19.3705 9.70328 18.8406 9.79907 18.2626 9.89487C15.9987 10.3739 13.9275 11.5714 12.3379 13.2479L12.0489 13.0563H12.0008C11.9526 13.0563 11.9044 13.1042 11.8081 13.1042C11.7118 13.1042 11.6154 13.0563 11.5191 13.0084C11.0856 12.6731 10.6521 12.2899 10.3149 11.9067C10.2667 11.8109 10.1704 11.763 10.1222 11.7151C9.9777 11.5714 9.8814 11.4277 9.7369 11.284C9.6887 11.2361 9.6405 11.2361 9.5924 11.1882C9.5442 11.1403 9.5442 11.1403 9.5442 11.1403C9.3515 10.9966 9.1107 10.9008 8.8698 10.9008C8.5808 10.9008 8.34 10.9966 8.1955 11.2361C7.9065 11.6672 8.0028 12.242 8.3882 12.5773C8.4363 12.5773 8.4363 12.6252 8.4363 12.6252C8.4363 12.6252 8.5327 12.721 8.5808 12.721C8.7253 12.8168 8.918 12.9126 9.1107 13.0084C9.207 13.0563 9.3034 13.1042 9.3997 13.1521C9.8814 13.4394 10.3631 13.7268 10.7484 14.11C10.8447 14.2058 10.9411 14.3974 10.8929 14.5411V14.4932L11.1819 14.7806C11.1337 14.8764 11.0856 14.9243 11.0374 15.0201C9.5442 17.3672 8.918 20.1453 9.3515 22.8756L8.9662 22.9714C8.9662 23.0193 8.918 23.0193 8.918 23.0193C8.8698 23.163 8.7253 23.2588 8.5808 23.3546C8.051 23.4983 7.5211 23.5941 6.94313 23.642C6.84679 23.642 6.75045 23.642 6.65412 23.6899C6.46144 23.6899 6.26877 23.7378 6.0761 23.7378C6.02793 23.7378 5.97976 23.7857 5.88343 23.7857C5.83526 23.7857 5.83526 23.7857 5.78709 23.8336C5.25724 23.9294 4.92007 24.4084 5.0164 24.9353C5.11274 25.3664 5.54625 25.6538 5.97976 25.6059C6.0761 25.6059 6.12427 25.6059 6.2206 25.558C6.26877 25.558 6.26877 25.558 6.26877 25.5101C6.26877 25.4622 6.41328 25.5101 6.46144 25.5101C6.65412 25.4622 6.84679 25.3664 6.99129 25.3185C7.0876 25.2706 7.184 25.2227 7.2803 25.2227H7.3285C7.8583 25.0311 8.34 24.8874 8.918 24.7916H8.9662C9.1107 24.7916 9.2552 24.8395 9.3515 24.9353C9.3997 24.9353 9.3997 24.9832 9.3997 24.9832L9.8332 24.9353C10.5557 27.1386 11.9044 29.1025 13.783 30.5395C14.2165 30.8748 14.6018 31.1622 15.0835 31.4017L14.8427 31.737C14.8427 31.7849 14.8909 31.7849 14.8909 31.7849C14.9872 31.9286 14.9872 32.12 14.939 32.264C14.7464 32.743 14.4573 33.222 14.1683 33.653V33.701C14.1202 33.797 14.072 33.845 13.9757 33.94C13.8793 34.036 13.783 34.228 13.6385 34.419C13.5903 34.467 13.5903 34.515 13.5421 34.563C13.5421 34.563 13.5422 34.611 13.494 34.611C13.2531 35.09 13.4458 35.665 13.8793 35.904C13.9757 35.952 14.1202 36 14.2165 36C14.6018 36 14.939 35.761 15.1317 35.425C15.1317 35.425 15.1317 35.377 15.1799 35.377C15.1799 35.329 15.228 35.282 15.2762 35.234C15.3244 35.042 15.4207 34.898 15.4689 34.707L15.5652 34.419C15.7097 33.892 15.9506 33.413 16.1914 32.934C16.2877 32.791 16.4322 32.695 16.5767 32.647C16.6249 32.647 16.6249 32.647 16.6249 32.599L16.8176 32.216C18.1663 32.743 19.5632 32.982 21.0082 32.982C21.8752 32.982 22.7422 32.887 23.6093 32.647C24.1391 32.551 24.669 32.36 25.1507 32.216L25.3433 32.551C25.3915 32.551 25.3915 32.551 25.3915 32.599C25.536 32.647 25.6805 32.743 25.7768 32.887C26.0177 33.366 26.2585 33.845 26.403 34.371V34.419L26.4994 34.707C26.5475 34.898 26.5957 35.09 26.692 35.234C26.7402 35.282 26.7402 35.329 26.7884 35.377C26.7884 35.377 26.7884 35.425 26.8365 35.425C27.0292 35.761 27.3664 36 27.7517 36C27.8962 36 27.9926 35.952 28.1371 35.904C28.3297 35.808 28.5224 35.617 28.5706 35.377C28.6188 35.138 28.6188 34.898 28.5224 34.659C28.5224 34.611 28.4743 34.611 28.4743 34.611C28.4743 34.563 28.4261 34.515 28.3779 34.467C28.2816 34.276 28.1852 34.132 28.0407 33.988C27.9926 33.892 27.9444 33.845 27.8481 33.749V33.653C27.5109 33.222 27.27 32.743 27.0774 32.264C27.0292 32.12 27.0292 31.9286 27.1255 31.7849C27.1255 31.737 27.1737 31.737 27.1737 31.737L27.0292 31.3538C29.4858 29.8689 31.3643 27.5697 32.2314 24.8395L32.6167 24.8874C32.6649 24.8874 32.6649 24.8395 32.6649 24.8395C32.7612 24.7437 32.9057 24.6958 33.0502 24.6958H33.0984C33.6282 24.7916 34.1581 24.9353 34.6398 25.1269H34.6879C34.7843 25.1748 34.8806 25.2227 34.9769 25.2227C35.1696 25.3185 35.3141 25.4143 35.5068 25.4622C35.555 25.4622 35.6031 25.5101 35.6995 25.5101C35.7476 25.5101 35.7476 25.5101 35.7958 25.558C35.8921 25.6059 35.9403 25.6059 36.0366 25.6059C36.4702 25.6059 36.8555 25.3185 37 24.9353C36.9518 24.4084 36.5665 24.0252 36.133 23.9294ZM22.2124 22.4445L20.9119 23.0672L19.6113 22.4445L19.2741 21.0554L20.1893 19.9058H21.6344L22.5496 21.0554L22.2124 22.4445ZM30.0638 19.3311C30.3046 20.3369 30.3528 21.3428 30.2565 22.3487L25.6805 21.0554C25.247 20.9596 25.0061 20.5285 25.1025 20.0974C25.1507 19.9537 25.1988 19.8579 25.2952 19.7622L28.9078 16.505C29.4376 17.3672 29.823 18.3252 30.0638 19.3311ZM27.4627 14.7327L23.5129 17.5109C23.1758 17.7025 22.6941 17.6546 22.4532 17.3193C22.3569 17.2235 22.3087 17.1277 22.3087 16.984L22.0197 12.1462C24.1391 12.3857 26.0177 13.2957 27.4627 14.7327ZM18.7443 12.2899L19.7077 12.0983L19.4668 16.8882C19.4668 17.3193 19.0815 17.6546 18.648 17.6546C18.5035 17.6546 18.4071 17.6067 18.2626 17.5588L14.2647 14.7327C15.517 13.5352 17.0584 12.6731 18.7443 12.2899ZM12.8678 16.505L16.4322 19.6664C16.7694 19.9537 16.8176 20.4327 16.5286 20.768C16.4322 20.9117 16.3359 20.9596 16.1432 21.0075L11.4709 22.3487C11.3264 20.3369 11.8081 18.2773 12.8678 16.505ZM12.0489 24.6L16.8176 23.7857C17.2029 23.7857 17.5883 24.0252 17.6364 24.4084C17.6846 24.5521 17.6846 24.7437 17.5883 24.8874L15.7579 29.2941C14.072 28.1924 12.7233 26.5159 12.0489 24.6ZM22.9831 30.5395C22.3087 30.6832 21.6344 30.779 20.9119 30.779C19.9003 30.779 18.8406 30.5874 17.8773 30.3L20.2375 26.037C20.4784 25.7496 20.8637 25.6538 21.2009 25.8454C21.3454 25.9412 21.4417 26.037 21.5862 26.1807L23.8983 30.3479C23.6093 30.3958 23.3203 30.4437 22.9831 30.5395ZM28.8596 26.3722C28.1371 27.5218 27.1255 28.5277 25.9695 29.2462L24.091 24.7437C23.9946 24.3605 24.1873 23.9773 24.5245 23.8336C24.669 23.7857 24.8135 23.7378 24.958 23.7378L29.7748 24.5521C29.5339 25.2227 29.2449 25.8454 28.8596 26.3722Z" fill="white"/>
</svg>
