<svg width="48" height="48" viewBox="0 0 48 48" fill="none" xmlns="http://www.w3.org/2000/svg">
<path d="M48.0005 44.324V3.67599C48.0005 2.00899 46.89 0.601001 45.3686 0.151001L43.6408 1.185L24.466 21.63L23.8649 23.509L23.5137 25.312L29.4931 47.659L30.418 48H44.3244C46.3547 48 48.0005 46.354 48.0005 44.324Z" fill="#EA6618"/>
<path d="M0 3.67599V44.324C0 45.581 0.631313 46.69 1.59375 47.353L2.77256 46.788L23.0687 25.058L23.8644 23.509L23.8942 22.01L18.3705 0.994995L17.5337 0H3.67613C1.64588 0 0 1.64599 0 3.67599Z" fill="#D65813"/>
<path d="M23.8646 23.509L45.3682 0.151001C45.0291 0.051001 44.6774 0 44.3238 0H17.5342L23.8647 23.509H23.8646Z" fill="#E05E11"/>
<path d="M3.67631 48H30.4179L23.8646 23.509L1.59375 47.353C2.20601 47.776 2.93249 48.001 3.67631 48Z" fill="#DE5C16"/>
<path d="M17.7974 18.193H20.4646C21.5273 22.203 22.7369 25.721 24.0863 28.896C25.6148 25.324 26.7352 21.803 27.6835 18.193H30.2039C29.0752 22.679 27.2287 27.2 25.1166 31.867H22.8873C20.8585 27.445 19.1316 22.898 17.7974 18.193ZM8.99988 11.245H14.9305V36.677H8.97363V34.717H12.6246V13.153H8.99988V11.245ZM39.0316 13.153H35.4068V34.717H39.0575V36.677H33.1008V11.245H39.0314V13.153H39.0316Z" fill="white"/>
</svg>
