<svg width="22" height="48" viewBox="0 0 22 48" fill="none" xmlns="http://www.w3.org/2000/svg">
<path fill-rule="evenodd" clip-rule="evenodd" d="M11.7369 47.583L10.4703 47.15C10.4703 47.15 10.625 40.692 8.3073 40.229C6.7628 38.437 8.5551 -35.78 14.1165 39.981C14.1165 39.981 12.2006 40.939 11.8608 42.577C11.4898 44.184 11.7369 47.583 11.7369 47.583Z" fill="white"/>
<path fill-rule="evenodd" clip-rule="evenodd" d="M11.7369 47.583L10.4703 47.15C10.4703 47.15 10.625 40.692 8.3073 40.229C6.7628 38.437 8.5551 -35.78 14.1165 39.981C14.1165 39.981 12.2006 40.939 11.8608 42.577C11.4898 44.184 11.7369 47.583 11.7369 47.583Z" fill="#A6A385"/>
<path fill-rule="evenodd" clip-rule="evenodd" d="M12.4164 41.341C12.4164 41.341 23.509 34.049 20.9131 18.878C18.4107 7.84802 12.5091 4.23303 11.8602 2.84203C11.1497 1.85403 10.4697 0.124023 10.4697 0.124023L10.9334 30.805C10.9334 30.836 9.97553 40.198 12.4167 41.341" fill="white"/>
<path fill-rule="evenodd" clip-rule="evenodd" d="M12.4164 41.341C12.4164 41.341 23.509 34.049 20.9131 18.878C18.4107 7.84802 12.5091 4.23303 11.8602 2.84203C11.1497 1.85403 10.4697 0.124023 10.4697 0.124023L10.9334 30.805C10.9334 30.836 9.97553 40.198 12.4167 41.341" fill="#499D4A"/>
<path fill-rule="evenodd" clip-rule="evenodd" d="M9.82127 41.742C9.82127 41.742 -0.591633 34.636 0.0264674 22.123C0.613367 9.609 7.96707 3.46001 9.38837 2.34801C10.3155 1.35901 10.3463 0.988 10.4083 0C11.0571 1.39 10.9336 20.794 11.026 23.08C11.3039 31.886 10.5318 40.074 9.82127 41.742Z" fill="white"/>
<path fill-rule="evenodd" clip-rule="evenodd" d="M9.82127 41.742C9.82127 41.742 -0.591633 34.636 0.0264674 22.123C0.613367 9.609 7.96707 3.46001 9.38837 2.34801C10.3155 1.35901 10.3463 0.988 10.4083 0C11.0572 1.39 10.9336 20.794 11.026 23.08C11.3039 31.886 10.5318 40.074 9.82127 41.742Z" fill="#58AA50"/>
</svg>
