<svg width="48" height="47" viewBox="0 0 48 47" fill="none" xmlns="http://www.w3.org/2000/svg">
<path fill-rule="evenodd" clip-rule="evenodd" d="M44.2056 36.224C41.595 36.152 39.5697 36.419 37.8722 37.133C37.3834 37.33 36.599 37.3299 36.5347 37.9449C36.7959 38.2029 36.8273 38.625 37.0563 38.983C37.4478 39.633 38.1341 40.507 38.7538 40.961L40.8428 42.4539C42.1159 43.2319 43.5522 43.686 44.7924 44.465C45.5109 44.92 46.2287 45.503 46.9472 45.991C47.313 46.25 47.5347 46.673 47.992 46.834V46.736C47.7637 46.445 47.6979 46.023 47.4703 45.698L46.4899 44.757C45.5438 43.492 44.368 42.388 43.0949 41.481C42.0501 40.767 39.7658 39.794 39.3414 38.594L39.277 38.521C39.994 38.449 40.8428 38.1959 41.5291 38.0019C42.6398 37.7109 43.651 37.775 44.7924 37.483L46.3604 37.029V36.738C45.7728 36.154 45.3485 35.375 44.7287 34.824C43.0642 33.397 41.235 32.0009 39.3414 30.8329C38.3295 30.1849 37.0234 29.762 35.9464 29.212C35.5535 29.017 34.9016 28.92 34.6733 28.595C34.0843 27.883 33.7587 26.941 33.3343 26.097L30.6578 20.452C30.0703 19.187 29.7103 17.921 28.9932 16.754C25.6304 11.238 21.9735 7.89696 16.3586 4.61996C15.1513 3.93796 13.715 3.64497 12.188 3.28897L9.73982 3.15796C9.21667 2.93096 8.69498 2.31497 8.23768 2.02197C6.37702 0.85497 1.57794 -1.67604 0.206038 1.65896C-0.675635 3.76796 1.51208 5.84395 2.25474 6.91495C2.81082 7.66094 3.52786 8.50396 3.92077 9.34796C4.14028 9.89896 4.21345 10.484 4.44246 11.067C4.96415 12.495 5.45438 14.085 6.13996 15.416C6.5058 16.097 6.88993 16.8119 7.34723 17.4279C7.60844 17.7909 8.06573 17.947 8.16305 18.531C7.70575 19.18 7.67429 20.152 7.41308 20.965C6.23727 24.631 6.69457 29.1729 8.35914 31.8719C8.88229 32.6819 10.1152 34.4679 11.7878 33.7859C13.257 33.2019 12.9292 31.3529 13.3536 29.7299C13.4524 29.3409 13.3865 29.082 13.5819 28.821V28.8939L14.9209 31.587C15.9328 33.176 17.6961 34.831 19.1646 35.935C19.9475 36.519 20.568 37.525 21.5469 37.882V37.783H21.4826C21.2865 37.493 20.9923 37.3619 20.7311 37.1349C20.1436 36.5509 19.4909 35.837 19.0336 35.188C17.6632 33.372 16.4559 31.36 15.3782 29.284C14.855 28.278 14.3977 27.175 13.9748 26.169C13.7772 25.78 13.7772 25.195 13.4516 25.002C12.9614 25.714 12.2444 26.3319 11.8837 27.2079C11.2632 28.6019 11.1988 30.322 10.9705 32.107C10.8388 32.139 10.8974 32.107 10.8388 32.179C9.79543 31.92 9.43545 30.8489 9.044 29.9409C8.06501 27.6379 7.90111 23.939 8.74986 21.279C8.97814 20.597 9.95859 18.4559 9.56714 17.8069C9.36959 17.1909 8.71839 16.834 8.3584 16.347C7.93403 15.731 7.4782 14.953 7.18406 14.271C6.40117 12.453 6.00972 10.4429 5.16024 8.62594C4.76733 7.78194 4.08248 6.90596 3.52713 6.12796C2.90667 5.25196 2.22255 4.63495 1.73232 3.59695C1.56916 3.23395 1.34087 2.65697 1.60208 2.26697C1.66647 2.00697 1.79817 1.90297 2.05792 1.84497C2.48229 1.48097 3.69103 1.94195 4.1154 2.13595C5.32267 2.62295 6.33458 3.07696 7.3465 3.75696C7.80379 4.08196 8.29403 4.69796 8.88156 4.86096H9.56787C10.6127 5.08796 11.7871 4.93397 12.7653 5.22497C14.4957 5.77697 16.0623 6.58696 17.4671 7.46396C21.743 10.157 25.2697 13.985 27.6521 18.561C28.0435 19.307 28.2067 19.988 28.5667 20.767C29.253 22.357 30.1017 23.979 30.7859 25.537C31.4722 27.062 32.1248 28.6199 33.1038 29.8849C33.594 30.5659 35.552 30.923 36.433 31.28C37.0864 31.571 38.0975 31.832 38.6865 32.189C39.7958 32.87 40.9057 33.649 41.9498 34.395C42.4715 34.783 44.1046 35.595 44.2019 36.242L44.2056 36.224ZM10.9142 8.03195C10.4631 8.02795 10.0135 8.08197 9.57666 8.19397V8.26596H9.64104C9.90225 8.78596 10.3596 9.14295 10.6859 9.59695L11.4373 11.155L11.5017 11.082C11.959 10.758 12.188 10.238 12.188 9.45996C11.9919 9.23396 11.9597 9.00596 11.7966 8.77896C11.6005 8.45496 11.1761 8.29196 10.9142 8.03296V8.03195Z" fill="#00678C"/>
</svg>
