<svg width="43" height="44" viewBox="0 0 43 44" fill="none" xmlns="http://www.w3.org/2000/svg">
<path d="M31.2628 31.4289C31.5262 29.2369 31.447 28.9169 33.0788 29.2709L33.494 29.3079C34.7493 29.3639 36.3908 29.1059 37.3715 28.6579C39.4476 27.6949 40.6787 26.0859 38.6317 26.5099C33.9625 27.4719 33.6233 25.8909 33.6233 25.8909C38.5557 18.5719 40.6189 9.28191 38.8369 7.00891C33.9835 0.80491 25.5807 3.73891 25.4401 3.81691L25.3949 3.8249C24.474 3.6309 23.4562 3.51791 22.2768 3.50091C20.1635 3.46891 18.5608 4.0559 17.3427 4.9779C17.3427 4.9779 2.35455 -1.19709 3.05088 12.7439C3.19952 15.7109 7.3 35.2019 12.1953 29.3049C13.987 27.1489 15.7157 25.3279 15.7157 25.3279C16.572 25.8989 17.6012 26.1899 18.6788 26.0849L18.7628 26.0139C18.7379 26.2929 18.7493 26.5739 18.7967 26.8499C17.5365 28.2589 17.9081 28.5059 15.3878 29.0249C12.8383 29.5499 14.3376 30.4859 15.3134 30.7309C16.4993 31.0279 19.2426 31.4479 21.0974 28.8539L21.023 29.1489C21.5174 29.5449 21.4835 31.9929 21.5562 33.7409C21.6289 35.4889 21.7436 37.1229 22.1007 38.0839C22.4577 39.0449 22.8762 41.5249 26.1882 40.8299C28.9557 40.2369 31.0722 39.3829 31.2661 31.4439" fill="black"/>
<path d="M31.2628 31.4289C31.5262 29.2369 31.447 28.9169 33.0788 29.2709L33.494 29.3079C34.7493 29.3639 36.3908 29.1059 37.3715 28.6579C39.4476 27.6949 40.6787 26.0859 38.6317 26.5099C33.9625 27.4719 33.6233 25.8909 33.6233 25.8909C38.5557 18.5719 40.6189 9.28191 38.8369 7.00891C33.9835 0.80491 25.5807 3.73891 25.4401 3.81691L25.3949 3.8249C24.474 3.6309 23.4562 3.51791 22.2768 3.50091C20.1635 3.46891 18.5608 4.0559 17.3427 4.9779C17.3427 4.9779 2.35455 -1.19709 3.05088 12.7439C3.19952 15.7109 7.3 35.2019 12.1953 29.3049C13.987 27.1489 15.7157 25.3279 15.7157 25.3279C16.572 25.8989 17.6012 26.1899 18.6788 26.0849L18.7628 26.0139C18.7379 26.2929 18.7493 26.5739 18.7967 26.8499C17.5365 28.2589 17.9081 28.5059 15.3878 29.0249C12.8383 29.5499 14.3376 30.4859 15.3134 30.7309C16.4993 31.0279 19.2426 31.4479 21.0974 28.8539L21.023 29.1489C21.5174 29.5449 21.4835 31.9929 21.5562 33.7409C21.6289 35.4889 21.7436 37.1229 22.1007 38.0839C22.4577 39.0449 22.8762 41.5249 26.1882 40.8299C28.9557 40.2369 31.0722 39.3829 31.2661 31.4439" stroke="black" stroke-width="5.3725"/>
<path d="M25.4258 3.755C24.9088 3.917 33.7689 0.515996 38.8064 6.951C40.5836 9.224 38.5236 18.514 33.5912 25.833M21.2963 27.925C21.167 32.523 21.3286 37.153 21.7777 38.265C22.2269 39.377 23.1914 41.577 26.505 40.869C29.2726 40.276 30.2808 39.128 30.717 36.593L31.7397 28.487L21.2963 27.925ZM17.3251 4.87499C17.3251 4.87499 2.32567 -1.25801 3.02362 12.683C3.17226 15.65 7.27269 35.14 12.168 29.243C13.9549 27.09 15.5705 25.405 15.5705 25.405L17.3251 4.87499Z" stroke="white" stroke-width="1.79" stroke-linecap="round" stroke-linejoin="round"/>
<path d="M38.6168 26.5239C33.9477 27.4869 33.6084 25.9049 33.6084 25.9049C38.5409 18.5859 40.604 9.29691 38.8236 7.02291C33.9703 0.819914 25.5675 3.75491 25.4269 3.83091L25.3817 3.83892C24.3553 3.63292 23.3119 3.52393 22.2651 3.51393C20.1519 3.48193 18.5492 4.06892 17.331 4.99092C17.331 4.99092 2.34131 -1.18408 3.03926 12.7569C3.18789 15.7239 7.28829 35.2139 12.1837 29.3169C13.9867 27.1489 15.7154 25.3279 15.7154 25.3279C16.5717 25.8989 17.6009 26.1899 18.6785 26.0849L18.7625 26.0129C18.7378 26.2929 18.7492 26.5739 18.7964 26.8499C17.5362 28.2589 17.9078 28.5059 15.3874 29.0249C12.838 29.5499 14.3373 30.4859 15.3131 30.7309C16.499 31.0279 19.2423 31.4479 21.0971 28.8539L21.0227 29.1489C21.5171 29.5449 21.8629 31.7229 21.8047 33.6969C21.7465 35.6719 21.7078 37.0259 22.0955 38.0849C22.4833 39.1449 22.871 41.5269 26.183 40.8319C28.9506 40.2389 30.3836 38.6989 30.5856 36.1369C30.7278 34.3149 31.0477 34.5829 31.0703 32.9539L31.3288 32.1819C31.6244 29.7099 31.3772 28.9139 33.0817 29.2849L33.4969 29.3219C34.7523 29.3789 36.3954 29.1199 37.3583 28.6729C39.4343 27.7099 40.6654 26.1009 38.6184 26.5239H38.6168Z" fill="#336791"/>
<path d="M33.5932 25.8302C33.5932 25.8302 33.9163 27.4132 38.6016 26.4472C40.6486 26.0232 39.4159 27.6332 37.3414 28.5952C35.6386 29.3872 31.8193 29.5892 31.7562 28.4992C31.5947 25.6792 33.7661 26.5362 33.6094 25.8302C33.4672 25.1932 32.4946 24.5692 31.8548 23.0122C31.2942 21.6552 24.1644 11.2342 33.8323 12.7802C34.1878 12.7072 31.3119 3.57116 22.2645 3.43916C13.217 3.30616 13.503 14.5622 13.503 14.5622" stroke="white" stroke-width="1.79" stroke-linecap="round" stroke-linejoin="bevel"/>
<path d="M18.7644 26.7948C17.5042 28.2038 17.8758 28.4508 15.3555 28.9698C12.806 29.4948 14.3053 30.4308 15.2811 30.6758C16.467 30.9728 19.2103 31.3928 21.0651 28.7968C21.6305 28.0048 21.0618 26.7448 20.2863 26.4248C19.9115 26.2698 19.4107 26.0758 18.7676 26.7968L18.7644 26.7948Z" stroke="white" stroke-width="1.79" stroke-linejoin="round"/>
<path d="M18.6819 26.7708C18.5526 25.9418 18.9533 24.9578 19.3814 23.8048C20.0244 22.0758 21.5076 20.3468 20.3217 14.8588C19.438 10.7718 13.5038 14.0078 13.5038 14.5618C13.5038 15.1158 13.772 17.3729 13.4069 19.9979C12.927 23.4269 15.5879 26.3249 18.6512 26.0299" stroke="white" stroke-width="1.79" stroke-linecap="round" stroke-linejoin="round"/>
<path d="M17.27 14.4801C17.2425 14.6691 17.6173 15.1741 18.1036 15.2421C18.5899 15.3101 19.0052 14.9161 19.0326 14.7251C19.0601 14.5351 18.6853 14.3281 18.199 14.2601C17.7127 14.1921 17.2942 14.2921 17.27 14.4801Z" fill="white" stroke="white" stroke-width="0.5975"/>
<path d="M32.0753 14.0939C32.1011 14.2829 31.7279 14.7879 31.2416 14.8559C30.7553 14.9239 30.3369 14.5299 30.3126 14.3389C30.2884 14.1479 30.66 13.9419 31.1463 13.8739C31.6326 13.8059 32.0511 13.9059 32.0753 14.0939Z" fill="white" stroke="white" stroke-width="0.2975"/>
<path d="M33.8142 12.7832C33.895 14.2702 33.4943 15.2792 33.4426 16.8612C33.3683 19.1582 34.538 21.7892 32.7754 24.4222" stroke="white" stroke-width="1.79" stroke-linecap="round" stroke-linejoin="round"/>
</svg>
