<svg width="39" height="39" viewBox="0 0 39 39" fill="none" xmlns="http://www.w3.org/2000/svg">
<path d="M19.8516 0.963379C10.1992 0.963379 10.8019 5.14924 10.8019 5.14924L10.8127 9.4857H20.0237V10.7878H7.1541C7.1541 10.7878 0.977539 10.0873 0.977539 19.8266C0.977539 29.566 6.3686 29.2206 6.3686 29.2206H9.586V24.7012C9.586 24.7012 9.4126 19.3101 14.8909 19.3101C20.3693 19.3101 24.0267 19.3101 24.0267 19.3101C24.0267 19.3101 29.1594 19.3931 29.1594 14.3495C29.1594 9.3059 29.1594 6.0101 29.1594 6.0101C29.1594 6.0101 29.9387 0.963379 19.8516 0.963379ZM14.7726 3.87949C15.689 3.87949 16.4297 4.62018 16.4297 5.53662C16.4297 6.453 15.689 7.1937 14.7726 7.1937C13.8561 7.1937 13.1154 6.453 13.1154 5.53662C13.1154 4.62018 13.8561 3.87949 14.7726 3.87949Z" fill="url(#paint0_linear_9_1299)"/>
<path d="M20.1255 38.7871C29.7779 38.7871 29.1752 34.6012 29.1752 34.6012L29.1644 30.2647H19.9534V28.9627H32.823C32.823 28.9627 38.9996 29.6632 38.9996 19.9238C38.9996 10.1845 33.6085 10.5298 33.6085 10.5298H30.3911V15.0493C30.3911 15.0493 30.5646 20.4403 25.0862 20.4403C19.6078 20.4403 15.9505 20.4403 15.9505 20.4403C15.9505 20.4403 10.8177 20.3573 10.8177 25.4009C10.8177 30.4445 10.8177 33.7404 10.8177 33.7404C10.8177 33.7404 10.0384 38.7871 20.1256 38.7871H20.1255ZM25.2045 35.871C24.2881 35.871 23.5474 35.1303 23.5474 34.2138C23.5474 33.2974 24.2881 32.5567 25.2045 32.5567C26.1209 32.5567 26.8616 33.2974 26.8616 34.2138C26.8616 35.1303 26.1209 35.871 25.2045 35.871Z" fill="url(#paint1_linear_9_1299)"/>
<defs>
<linearGradient id="paint0_linear_9_1299" x1="4.63154" y1="4.26955" x2="23.4324" y2="23.1333" gradientUnits="userSpaceOnUse">
<stop stop-color="#387EB8"/>
<stop offset="1" stop-color="#366994"/>
</linearGradient>
<linearGradient id="paint1_linear_9_1299" x1="16.1969" y1="16.2693" x2="36.3891" y2="35.6144" gradientUnits="userSpaceOnUse">
<stop stop-color="#FFE052"/>
<stop offset="1" stop-color="#FFC331"/>
</linearGradient>
</defs>
</svg>
