<svg width="44" height="39" viewBox="0 0 44 39" fill="none" xmlns="http://www.w3.org/2000/svg">
<path d="M25.9478 19.3788C25.9478 21.6173 24.1227 23.432 21.8713 23.432C19.62 23.432 17.7949 21.6173 17.7949 19.3788C17.7949 17.1403 19.62 15.3257 21.8713 15.3257C24.1227 15.3257 25.9478 17.1403 25.9478 19.3788Z" fill="#61DAFB"/>
<path fill-rule="evenodd" clip-rule="evenodd" d="M34.5652 12.0708C40.1314 13.7648 43.7618 16.4965 43.7618 19.3789C43.7618 22.2525 40.1492 24.9841 34.6188 26.6782C35.9122 32.301 35.3502 36.7799 32.8437 38.2167C32.2549 38.5537 31.577 38.7134 30.8277 38.7134C28.3747 38.7134 25.1635 36.9928 21.9166 33.995C18.6697 37.0105 15.4585 38.7489 13.0055 38.7489C12.2562 38.7489 11.5783 38.5892 10.9984 38.2522C8.48298 36.8154 7.91208 32.3278 9.19658 26.687C3.63046 24.993 0 22.2614 0 19.3789C0 16.5054 3.61262 13.7826 9.16088 12.0797C7.86749 6.45665 8.42948 1.9778 10.936 0.54101C11.5247 0.20399 12.2027 0.0443401 12.9519 0.0443401V0.03547C15.405 0.03547 18.6162 1.75607 21.8631 4.75381C25.11 1.73833 28.3212 0 30.7742 0V0.00887012C31.5111 0.0101501 32.1859 0.16986 32.7634 0.50553C35.2788 1.94232 35.8497 6.43005 34.5652 12.0708ZM30.7653 1.97781C28.9101 1.98252 26.1846 3.45436 23.2814 6.13735C24.5391 7.44115 25.7879 8.93115 26.9921 10.572C28.9991 10.7848 30.908 11.113 32.6563 11.5387C32.8526 10.6429 33.0131 9.76485 33.1113 8.93115C33.5216 5.54316 32.9953 2.90905 31.7822 2.21726C31.5057 2.06649 31.1756 1.98667 30.7653 1.98667V1.97781ZM20.4448 6.14625C17.5368 3.47667 14.7984 2.01327 12.9519 2.01327V2.02214C12.5416 2.02214 12.1937 2.09309 11.9261 2.25274C10.7219 2.95339 10.2046 5.5875 10.6238 8.97545C10.7308 9.80035 10.8825 10.6607 11.0876 11.5476C12.836 11.113 14.7449 10.7848 16.7608 10.572C17.9472 8.93115 19.196 7.45005 20.4448 6.14625ZM30.9437 16.9664C31.4075 15.787 31.8179 14.6074 32.1479 13.4633C30.9794 13.1795 29.7573 12.9489 28.4907 12.7626C28.9278 13.4367 29.3648 14.1284 29.7752 14.8379C30.1944 15.5475 30.578 16.257 30.9437 16.9664ZM25.9128 26.2968C26.6531 25.2414 27.3667 24.1061 28.0625 22.9088C28.7315 21.747 29.347 20.5585 29.909 19.3701C29.347 18.1816 28.7315 17.002 28.0536 15.8402C27.3578 14.6517 26.6353 13.5254 25.8949 12.4699C24.5748 12.3635 23.2278 12.3013 21.8809 12.3013C20.5251 12.3013 19.1781 12.3635 17.849 12.4788C17.1087 13.5342 16.3951 14.6695 15.6993 15.8668C15.0303 17.0286 14.4059 18.2171 13.8529 19.4055C14.4148 20.594 15.0303 21.7736 15.7082 22.9354C16.404 24.1238 17.1265 25.2502 17.8669 26.3057C19.1871 26.4121 20.534 26.4741 21.8809 26.4741C23.2368 26.4741 24.5837 26.4121 25.9128 26.2968ZM32.1747 25.2857C31.8357 24.1327 31.4254 22.9443 30.9437 21.7558C30.578 22.4654 30.1944 23.1838 29.7841 23.8932C29.3738 24.6116 28.9367 25.3123 28.4996 25.9951C29.7752 25.809 31.0061 25.5695 32.1747 25.2857ZM19.419 28.3809C20.2396 29.4186 21.0692 30.3676 21.8988 31.219C22.7194 30.3676 23.549 29.4186 24.3518 28.3809C23.54 28.4253 22.7105 28.4431 21.872 28.4431C21.0424 28.4431 20.2218 28.4164 19.419 28.3809ZM11.605 25.2945C12.7735 25.5784 13.9956 25.809 15.2622 25.9951C14.8251 25.3211 14.397 24.6294 13.9777 23.9199C13.5585 23.2104 13.1749 22.5007 12.8092 21.7913C12.3454 22.9708 11.9351 24.1504 11.605 25.2945ZM24.3339 10.3767C23.5133 9.33915 22.6837 8.39015 21.8542 7.53865C21.0335 8.39015 20.2039 9.33915 19.4011 10.3767C20.2129 10.3324 21.0424 10.3148 21.8809 10.3148C22.7105 10.3148 23.5311 10.3413 24.3339 10.3767ZM13.9688 14.8645C14.3791 14.1461 14.8162 13.4455 15.2533 12.7626C13.9777 12.9489 12.7468 13.1883 11.5783 13.4633C11.9172 14.6163 12.3275 15.8047 12.8092 16.9932C13.1749 16.2836 13.5585 15.574 13.9688 14.8645ZM1.98025 19.3789C1.98025 20.7714 4.02294 22.5273 7.18064 23.8666C7.95668 24.1947 8.79518 24.4963 9.67828 24.7712C10.1778 23.0418 10.8379 21.2414 11.6585 19.3967C10.829 17.5429 10.16 15.7337 9.65148 13.9953C8.78628 14.2703 7.94778 14.5629 7.18064 14.8911C4.02294 16.2215 1.98025 17.9865 1.98025 19.3789ZM10.6506 29.8267C10.2402 33.2146 10.7665 35.8488 11.9797 36.5406C12.2473 36.6912 12.5862 36.7711 12.9876 36.7799C14.843 36.7799 17.5725 35.3078 20.4805 32.6203C19.2227 31.3167 17.9739 29.8267 16.7697 28.1859C14.7627 27.9729 12.8538 27.6448 11.1055 27.2192C10.9092 28.115 10.7487 28.993 10.6506 29.8267ZM31.8357 36.505C33.0399 35.8043 33.5573 33.1702 33.138 29.7823C33.0399 28.9575 32.8793 28.0972 32.6742 27.2014C30.9258 27.636 29.017 27.9642 27.001 28.177C25.8147 29.8178 24.5659 31.2988 23.317 32.6026C26.225 35.2723 28.9634 36.7356 30.8099 36.7356C31.2202 36.7356 31.5681 36.6646 31.8357 36.505ZM34.1014 24.7625C34.9666 24.4875 35.8051 24.1947 36.5722 23.8666C39.73 22.5362 41.7726 20.7714 41.7816 19.3789C41.7816 17.9865 39.7389 16.2304 36.5812 14.8911C35.7962 14.5629 34.9577 14.2614 34.0746 13.9865C33.5751 15.716 32.915 17.5163 32.0944 19.3612C32.9239 21.2148 33.5929 23.0241 34.1014 24.7625Z" fill="#61DAFB"/>
</svg>
