<svg width="40" height="41" viewBox="0 0 40 41" fill="none" xmlns="http://www.w3.org/2000/svg">
<path fill-rule="evenodd" clip-rule="evenodd" d="M28.5147 1.929C25.9214 0.692001 23.0201 0 19.9576 0C14.6152 0 9.76314 2.106 6.18114 5.536C2.37285 9.183 35.2553 5.143 28.5147 1.929Z" fill="#FCC397"/>
<path fill-rule="evenodd" clip-rule="evenodd" d="M35.549 7.52208C35.5718 7.55108 33.9212 9.76408 28.9605 10.3931C18.9477 11.6611 1.75732 11.7951 1.78323 11.7381C2.84665 9.39408 4.34746 7.29108 6.18104 5.53508C8.34154 6.21208 10.693 6.38107 12.9173 5.97007C16.59 5.29507 19.8576 3.16608 23.4905 2.29808C25.103 1.91008 26.8598 1.79608 28.5144 1.92808C31.2637 3.23908 33.667 5.16308 35.549 7.52208Z" fill="#FC9F95"/>
<path fill-rule="evenodd" clip-rule="evenodd" d="M39.671 16.887C39.6837 16.968 17.0921 19.099 6.08494 18.478C2.49864 18.275 0.382186 16.1 0.406456 15.981C0.708937 14.501 1.17421 13.08 1.78268 11.739C4.9627 9.99195 8.70394 8.98396 12.3318 9.02396C16.8811 9.07096 21.3442 10.593 25.8936 10.479C29.2721 10.393 32.6776 9.31095 35.5484 7.52295C37.6641 10.1759 39.1211 13.38 39.671 16.887Z" fill="#F77C88"/>
<path fill-rule="evenodd" clip-rule="evenodd" d="M39.9152 20.024C39.9152 20.135 39.9125 20.356 39.9125 20.356C39.9125 20.356 33.6377 21.944 25.5565 21.85C14.2376 21.717 0.000696567 19.8849 0.000976567 19.8509C0.0121566 18.5229 0.152307 17.225 0.409467 15.97C3.12131 17.649 6.41014 18.471 9.57554 18.1249C12.0926 17.8519 14.4835 16.917 16.8146 15.923C19.1458 14.928 21.4637 13.8599 23.9276 13.2859C27.5472 12.4449 31.4192 12.7389 34.8794 14.1069C36.5627 14.7729 38.2329 15.7309 39.6715 16.8849C39.8319 17.9079 39.9152 18.956 39.9152 20.024Z" fill="#F25192"/>
<path fill-rule="evenodd" clip-rule="evenodd" d="M17.2813 26.5258C11.2936 27.6348 1.01803 26.3558 0.99213 26.2768C0.34828 24.3088 0 22.2078 0 20.0238C0 19.9668 0.000240038 19.9088 0.000730038 19.8518C0.90971 19.1278 1.97146 18.4828 3.00796 17.9818C5.57155 16.7338 8.48054 16.2138 11.3163 16.4938C14.119 16.7738 16.7955 17.8158 19.3857 18.9368C21.5679 19.8818 23.7359 20.9018 26.0011 21.6068C26.2229 21.6758 23.8724 25.3048 17.2813 26.5258Z" fill="#D34CA3"/>
<path fill-rule="evenodd" clip-rule="evenodd" d="M39.1959 25.3728C38.7778 26.0818 34.8013 28.4688 29.411 28.8768C22.274 29.4178 13.8427 27.2538 16.6395 26.1518C21.0428 24.4168 24.8616 21.2998 29.411 19.9978C32.8096 19.0218 36.5769 19.1758 39.9132 20.3558C39.8851 22.0908 39.6371 23.7728 39.1959 25.3728Z" fill="#9A50A5"/>
<path fill-rule="evenodd" clip-rule="evenodd" d="M37.2637 30.0041C33.8175 36.0071 8.82364 37.5121 5.17238 33.4741C3.31377 31.4191 1.87508 28.9741 0.992188 26.2761C4.06156 24.5161 7.65454 23.7691 11.1081 24.2431C15.5778 24.8571 19.5826 27.3601 23.9925 28.3341C27.5523 29.1221 31.3246 28.8751 34.7516 27.6331C36.3008 27.0681 37.8369 26.3101 39.1952 25.3731C38.7439 27.0101 38.0905 28.5641 37.2637 30.0041Z" fill="#59569E"/>
<path fill-rule="evenodd" clip-rule="evenodd" d="M37.2928 29.9529C33.8539 35.9839 27.379 40.0479 19.958 40.0479C14.0948 40.0479 8.82224 37.5109 5.1709 33.4719C5.77683 33.7039 6.45454 33.9049 7.07564 34.0809C10.5491 35.0419 14.2882 35.0149 17.7418 33.9939C19.9534 33.3399 22.0321 32.2989 24.2039 31.5109C28.348 30.0119 32.9094 29.4839 37.2928 29.9529Z" fill="#39477F"/>
</svg>
