<svg width="40" height="38" viewBox="0 0 40 38" fill="none" xmlns="http://www.w3.org/2000/svg">
<path d="M27.7158 26.539C29.1919 26.386 30.3117 25.113 30.2608 23.584C30.21 22.056 28.9373 20.834 27.4103 20.834H27.3086C25.7305 20.885 24.5089 22.209 24.5598 23.788C24.6108 24.552 24.9161 25.214 25.3742 25.673C23.6436 29.086 20.9967 31.582 17.0264 33.67C14.3286 35.096 11.5291 35.606 8.7295 35.249C6.4389 34.944 4.65734 33.925 3.53734 32.244C1.90859 29.748 1.75594 27.048 3.13031 24.348C4.0975 22.413 5.62437 20.987 6.5916 20.273C6.388 19.611 6.0825 18.491 5.92984 17.676C-1.45094 23.024 -0.687347 30.257 1.55234 33.67C3.23203 36.217 6.6425 37.796 10.4092 37.796C11.4272 37.796 12.4452 37.694 13.4633 37.44C19.9787 36.166 24.9162 32.295 27.7158 26.539ZM36.6745 20.223C32.8059 15.689 27.105 13.193 20.5895 13.193H19.7752C19.317 12.276 18.3498 11.665 17.2809 11.665H17.1791C15.6012 11.716 14.3797 13.04 14.4305 14.619C14.4814 16.147 15.7539 17.37 17.2809 17.37H17.3827C18.5025 17.319 19.4697 16.606 19.8769 15.638H20.7931C24.6617 15.638 28.3266 16.759 31.6353 18.949C34.1803 20.63 36.0128 22.82 37.0308 25.469C37.8961 27.609 37.8452 29.697 36.9289 31.48C35.5037 34.18 33.1114 35.657 29.9555 35.657C27.9194 35.657 25.9852 35.045 24.967 34.587C24.4072 35.096 23.3891 35.911 22.6764 36.421C24.8653 37.44 27.105 38 29.2428 38C34.1294 38 37.7434 35.3 39.1178 32.601C40.5939 29.646 40.492 24.552 36.6745 20.223ZM10.8164 27.405C10.8673 28.933 12.1398 30.155 13.6669 30.155H13.7687C15.3467 30.104 16.5683 28.78 16.5173 27.201C16.4666 25.673 15.1939 24.45 13.6669 24.45H13.5652C13.4633 24.45 13.3105 24.45 13.2089 24.501C11.1219 21.037 10.2566 17.268 10.562 13.193C10.7655 10.137 11.7836 7.488 13.5652 5.297C15.0412 3.413 17.8917 2.49601 19.8261 2.44501C25.2216 2.34301 27.512 9.067 27.6648 11.767C28.3266 11.919 29.4464 12.276 30.21 12.531C29.5991 4.27901 24.5089 0 19.6225 0C15.0412 0 10.8164 3.311 9.1366 8.201C6.7952 14.721 8.3222 20.987 11.1727 25.928C10.9183 26.284 10.7655 26.844 10.8164 27.405Z" fill="#764ABC"/>
</svg>
