<svg width="40" height="38" viewBox="0 0 40 38" fill="none" xmlns="http://www.w3.org/2000/svg">
<path d="M2.5555 24.1336C0.546282 13.4107 5.85627 3.06923 18.0438 1.69343C16.3631 -0.109169 14.0672 -0.12277 13.0108 0.0965296C11.1456 0.69323 11.2042 1.90484 9.08847 3.46974C6.98517 4.67564 5.92877 3.75213 4.39659 5.00223C2.86769 6.24303 3.93452 9.09144 3.29329 9.64514C2.65678 10.7526 0.682302 11.7392 0.322892 13.138C0.0258421 14.927 1.12914 16.2048 1.0867 17.7383C1.21401 19.0161 -0.180638 19.7387 0.0197319 20.7744C0.619932 22.4663 1.77677 23.4847 2.32214 23.9541C2.4472 24.0426 2.57929 24.2605 2.5555 24.1336Z" fill="#FF0090"/>
<path d="M24.2414 9.2905C23.7962 9.2905 23.4351 8.9281 23.4351 8.4812C23.4351 8.0342 23.7962 7.6719 24.2414 7.6719C24.6866 7.6719 25.0477 8.0342 25.0477 8.4812C25.0477 8.9281 24.6866 9.2905 24.2414 9.2905ZM3.02558 25.3034C1.09473 15.9842 7.06956 8.1972 18.6401 12.0308C25.4293 16.0177 33.9699 15.7581 34.355 13.1809C35.3056 10.0914 30.0267 3.7247 22.1339 2.0635C6.47556 -1.0034 -1.96599 15.9842 3.02558 25.3034Z" fill="url(#paint0_radial_9_1389)"/>
<path d="M28.7112 26.3423C31.0363 26.5951 33.2433 26.035 35.2886 24.3616C32.1987 27.8212 28.3351 29.5606 23.9021 30.0339C26.0187 31.84 28.0599 32.654 30.0126 32.306C24.5866 33.809 20.0406 32.154 14.5107 26.6263C14.2211 28.1144 15.7869 30.433 17.4007 31.913C8.03677 27.838 7.21587 15.1439 18.6342 12.0213C6.79767 6.31288 0.104851 17.4044 3.39315 26.4949C6.61057 33.496 15.1842 38.886 24.581 37.701C29.1453 37.14 35.9612 33.981 38.7456 26.4949C36.7832 28.2626 33.2753 29.8022 31.71 29.9203C37.008 27.2625 39.868 22.7463 39.0652 16.5738C37.9678 19.1964 36.5198 21.2106 34.7087 22.5939C38.556 16.5738 37.8958 13.4622 35.0481 10.0425C37.085 15.6651 34.4501 21.9054 28.7112 26.3423Z" fill="url(#paint1_radial_9_1389)"/>
<path d="M25.9931 32.82C25.5911 32.745 26.9044 33.354 24.3654 32.679C21.8263 32.005 19.2411 31.354 14.5114 26.6265C14.2218 28.1146 15.7876 30.4331 17.4015 31.913C21.7581 34.963 18.7953 33.537 25.4333 35.84C25.966 34.776 25.9931 33.83 25.9931 32.82Z" fill="url(#paint2_linear_9_1389)"/>
<path d="M17.553 8.87106C17.553 8.87106 18.1302 8.01596 18.3548 7.63036C18.6301 7.15776 19.0529 6.29636 19.0529 6.29636C19.0529 6.29636 14.6105 4.84156 13.5203 4.66406C10.1314 5.54706 10.119 6.97226 12.0137 9.15376C12.2246 9.39656 17.553 8.87106 17.553 8.87106Z" fill="url(#paint3_linear_9_1389)"/>
<defs>
<radialGradient id="paint0_radial_9_1389" cx="0" cy="0" r="1" gradientUnits="userSpaceOnUse" gradientTransform="translate(27.4843 10.6323) scale(29.5443 21.2146)">
<stop stop-color="#F80090"/>
<stop offset="1" stop-color="#4D008E"/>
</radialGradient>
<radialGradient id="paint1_radial_9_1389" cx="0" cy="0" r="1" gradientUnits="userSpaceOnUse" gradientTransform="translate(27.7444 11.2662) scale(29.9463 22.7391)">
<stop stop-color="#57008E"/>
<stop offset="0.291746" stop-color="#5C008E"/>
<stop offset="1" stop-color="#F80090"/>
</radialGradient>
<linearGradient id="paint2_linear_9_1389" x1="16.5771" y1="26.6265" x2="21.9002" y2="35.545" gradientUnits="userSpaceOnUse">
<stop stop-color="#F70090"/>
<stop offset="0.669713" stop-color="#E50090"/>
<stop offset="0.827148" stop-color="#D6008F" stop-opacity="0.2"/>
<stop offset="1" stop-color="#C10090" stop-opacity="0"/>
</linearGradient>
<linearGradient id="paint3_linear_9_1389" x1="16.137" y1="7.92266" x2="15.3642" y2="6.44816" gradientUnits="userSpaceOnUse">
<stop stop-color="#B2008F" stop-opacity="0.15134"/>
<stop offset="0.400351" stop-color="#F70090" stop-opacity="0.4"/>
<stop offset="0.648996" stop-color="#F60090" stop-opacity="0.891668"/>
<stop offset="1" stop-color="#FF0090"/>
</linearGradient>
</defs>
</svg>
