<svg width="32" height="40" viewBox="0 0 32 40" fill="none" xmlns="http://www.w3.org/2000/svg">
<path d="M0 4.79601C0 9.32601 0.13322 9.45901 4.3963 9.05901C8.1265 8.65901 8.6594 8.127 9.0591 4.263C9.4588 0.133 9.3255 0 4.796 0C0.13322 0 0 0.133005 0 4.79601Z" fill="black"/>
<path d="M14.2548 4.92909C13.7219 5.32909 13.3223 6.92809 13.3223 8.26009C13.3223 10.1251 14.388 10.6581 17.985 10.6581C21.1824 10.6581 22.9142 11.4571 23.98 13.3221C25.7119 16.5201 30.6411 16.9191 30.6411 13.8551C30.6411 12.7891 30.1082 10.6581 29.3089 9.3261C27.3106 5.7291 16.6528 2.53109 14.2548 4.92909Z" fill="black"/>
<path d="M5.3291 16.653C5.3291 19.717 10.3915 23.58 15.7204 24.646C22.1151 25.845 25.3124 27.577 25.3124 30.108C25.3124 34.904 13.4556 35.037 11.5905 30.108C10.3915 26.911 5.3291 27.444 5.3291 30.641C5.3291 34.505 9.7254 38.368 15.1875 39.434C24.9127 41.166 31.9735 36.636 31.9735 28.643C31.9735 23.447 29.0426 20.916 21.3157 19.317C18.7845 18.784 15.3207 17.585 13.7221 16.52C9.8586 14.122 5.3291 14.122 5.3291 16.653Z" fill="black"/>
</svg>
