<svg width="48" height="48" viewBox="0 0 48 48" fill="none" xmlns="http://www.w3.org/2000/svg">
<path d="M35.1887 41.3017C30.0058 44.2632 22.8794 44.5675 15.7097 41.528C9.90455 39.0849 5.08777 34.8085 2 29.9224C3.48214 31.1439 5.21126 32.1216 7.06388 32.9762C14.4681 36.409 21.8708 36.1739 27.0804 32.985C27.0771 32.9817 27.0748 32.9795 27.0726 32.9762C19.6619 27.3564 13.3629 20.0261 8.66973 14.0405C7.68123 13.063 6.94016 11.8413 6.19909 10.7418C11.8805 15.8729 20.8972 22.3473 24.1078 24.1807C17.3157 17.0944 11.2632 8.29876 11.5097 8.54263C22.2554 19.2935 32.2603 25.4022 32.2603 25.4022C32.5913 25.5868 32.8467 25.7406 33.0522 25.8779C33.2687 25.333 33.4586 24.7673 33.6185 24.1807C35.3477 17.9501 33.372 10.8637 29.0486 5C39.0524 10.9862 44.9817 22.2254 42.5107 31.6329C42.4463 31.8866 42.3763 32.1371 42.3008 32.3832C42.3297 32.4172 42.3585 32.4524 42.3874 32.4886C47.3271 38.5973 45.9689 45.0718 45.3515 43.8503C42.6717 38.6632 37.7109 40.2494 35.1888 41.3018L35.1887 41.3017Z" fill="url(#paint0_linear_9_1433)"/>
<defs>
<linearGradient id="paint0_linear_9_1433" x1="24" y1="5" x2="24" y2="44" gradientUnits="userSpaceOnUse">
<stop stop-color="#F88A36"/>
<stop offset="1" stop-color="#FD2020"/>
</linearGradient>
</defs>
</svg>
