<svg width="40" height="40" viewBox="0 0 40 40" fill="none" xmlns="http://www.w3.org/2000/svg">
<path d="M1.99902 11.818C1.99902 6.39599 6.39482 2 11.8172 2H28.1808C33.6032 2 37.999 6.39599 37.999 11.818V28.182C37.999 33.604 33.6032 38 28.1808 38H11.8172C6.39472 38 1.99902 33.604 1.99902 28.182V11.818Z" fill="white"/>
<path d="M8.35052 0.0837603C5.84743 0.36676 4.23733 1.08176 2.66783 2.64576C1.86955 3.42776 1.51777 3.91376 1.0848 4.80376C0.0429837 6.93476 0.0700436 6.61076 0.0159236 18.8968C-0.0246664 25.9638 0.0159237 30.3738 0.0971037 31.3718C0.354174 34.1498 1.03068 35.6738 2.74901 37.3738C4.34558 38.9648 5.76624 39.5988 8.36402 39.8678C10.0553 40.0438 29.9446 40.0438 31.6359 39.8678C34.2337 39.5988 35.6544 38.9648 37.2509 37.3738C38.9693 35.6738 39.6458 34.1498 39.9028 31.3718C39.984 30.3738 40.0246 25.9638 39.984 18.8968C39.9299 6.61076 39.957 6.93476 38.9151 4.80376C38.1439 3.19876 36.7638 1.82275 35.1538 1.05475C33.0025 0.0157533 33.3813 0.0427666 20.6765 0.00276663C14.4661 -0.0112334 8.91882 0.0297603 8.35052 0.0837603ZM22.1377 5.07377C24.059 5.53177 25.0061 6.20575 25.0061 7.09575C25.0061 7.25775 24.8302 7.77076 24.6138 8.22876C24.1673 9.15976 23.9237 9.95576 23.9237 10.4948C23.9237 10.9398 23.8561 10.9268 26.0885 10.7378C28.0504 10.5618 29.5252 10.2788 30.3505 9.91475C31.7171 9.30775 33.7196 9.79377 35.0996 11.0608C35.8438 11.7358 36.0062 12.3698 35.5732 12.9088C35.4244 13.1108 35.1267 13.2998 34.9237 13.3408C34.7073 13.3808 33.5437 13.2868 32.3124 13.1378C29.8364 12.8278 24.059 12.7068 23.8019 12.9628C23.7208 13.0438 23.599 14.4198 23.5178 16.0238L23.3825 18.9378L23.7749 19.8008C24.3973 21.2028 24.6408 22.3768 24.6543 24.0218C24.6543 27.7848 23.1796 30.9538 20.3382 33.2198C18.8364 34.4198 17.2263 35.1888 14.5067 36.0378C13.5596 36.3348 13.3161 36.3758 13.2349 36.2138C13.1402 36.0788 13.289 35.9438 13.7761 35.6738C15.8733 34.5278 17.9163 32.7608 18.9311 31.2098C19.5129 30.2928 20.2029 28.7148 20.3517 27.9328C20.4329 27.4608 20.4194 27.4208 20.2435 27.5548C20.1353 27.6498 19.6752 27.8248 19.2152 27.9328C16.2656 28.6878 13.6543 26.1258 13.6273 22.4708C13.6137 21.0948 13.722 20.5418 14.2632 19.4098C14.7908 18.3168 15.4944 17.6158 16.5633 17.1298C17.8216 16.5638 19.107 16.5768 20.5141 17.1568C20.6359 17.2108 20.6765 16.7928 20.6765 15.2688V13.2998H20.257C19.6617 13.2998 16.8204 13.7858 15.1562 14.1768C13.4649 14.5808 12.1119 15.0258 10.4477 15.7278C9.01352 16.3478 8.35052 16.4018 7.55222 15.9978C6.86222 15.6468 5.98273 14.7428 5.40093 13.7858C4.81913 12.8148 4.58912 12.1538 4.57559 11.4118V10.8188L5.21151 11.4658C5.57682 11.8298 6.19922 12.2888 6.60512 12.4778C7.25452 12.7738 7.52512 12.8278 8.63462 12.8148C9.33822 12.8148 11.2595 12.6118 12.8966 12.3558C14.5338 12.1128 16.9421 11.7898 18.241 11.6278L20.6088 11.3308L20.5682 10.3328C20.5141 8.80875 20.2841 7.62177 19.9594 7.02877C19.4993 6.21977 19.0529 5.96376 17.0369 5.38376C16.7933 5.31576 17.2533 4.97875 17.8081 4.78975C18.3763 4.60075 20.893 4.77677 22.1377 5.07377Z" fill="url(#paint0_linear_9_1447)"/>
<path d="M17.3957 18.7072C16.8262 19.0462 16.5821 19.3582 16.2296 20.1442C15.8635 20.9852 15.8228 22.5582 16.1618 23.5612C16.9889 26.0422 19.7008 26.3272 20.5143 24.0222C20.9211 22.8422 20.677 20.3742 20.0397 19.3442C19.5109 18.4762 18.2499 18.1782 17.3957 18.7072Z" fill="url(#paint1_linear_9_1447)"/>
<defs>
<linearGradient id="paint0_linear_9_1447" x1="20" y1="-0.000233681" x2="20" y2="39.9998" gradientUnits="userSpaceOnUse">
<stop stop-color="#DC3B35"/>
<stop offset="1" stop-color="#E5A758"/>
</linearGradient>
<linearGradient id="paint1_linear_9_1447" x1="20.0002" y1="0.000215601" x2="20.0002" y2="40.0002" gradientUnits="userSpaceOnUse">
<stop stop-color="#DC3B35"/>
<stop offset="1" stop-color="#E5A758"/>
</linearGradient>
</defs>
</svg>
