<svg width="40" height="40" viewBox="0 0 40 40" fill="none" xmlns="http://www.w3.org/2000/svg">
<path d="M36.0938 0H3.90625C1.74889 0 0 1.7489 0 3.9062V36.094C0 38.251 1.74889 40 3.90625 40H36.0938C38.2511 40 40 38.251 40 36.094V3.9062C40 1.7489 38.2511 0 36.0938 0Z" fill="#3178C6"/>
<path d="M36.0938 0H3.90625C1.74889 0 0 1.7489 0 3.9062V36.094C0 38.251 1.74889 40 3.90625 40H36.0938C38.2511 40 40 38.251 40 36.094V3.9062C40 1.7489 38.2511 0 36.0938 0Z" fill="#3178C6"/>
<path fill-rule="evenodd" clip-rule="evenodd" d="M24.7609 31.8299V35.7409C25.3966 36.0669 26.1486 36.3109 27.0167 36.4739C27.8848 36.6369 28.7998 36.7189 29.7616 36.7189C30.6991 36.7189 31.5895 36.6289 32.4332 36.4499C33.2769 36.2709 34.0166 35.9749 34.6524 35.5639C35.2882 35.1519 35.7915 34.6149 36.1623 33.9499C36.5332 33.2859 36.7188 32.4659 36.7188 31.4877C36.7188 30.7788 36.6128 30.1576 36.4009 29.6239C36.1889 29.0902 35.8832 28.6156 35.4837 28.2001C35.0844 27.7845 34.6054 27.4117 34.0471 27.0817C33.4888 26.7517 32.8591 26.4401 32.1581 26.1468C31.6446 25.9349 31.1841 25.7292 30.7765 25.5296C30.3689 25.3299 30.0225 25.1262 29.7372 24.9185C29.4519 24.7107 29.2318 24.4907 29.077 24.2585C28.9221 24.0262 28.8446 23.7635 28.8446 23.4701C28.8446 23.2013 28.9139 22.9589 29.0525 22.7429C29.1911 22.527 29.3867 22.3417 29.6394 22.1869C29.8921 22.0321 30.2017 21.9119 30.5686 21.8263C30.9354 21.7408 31.343 21.698 31.7913 21.698C32.1173 21.698 32.4617 21.7225 32.8245 21.7713C33.1872 21.8202 33.552 21.8956 33.9188 21.9974C34.2856 22.0993 34.6422 22.2276 34.9887 22.3824C35.3351 22.5372 35.6549 22.7165 35.9483 22.9202V19.2658C35.3533 19.0377 34.7033 18.8686 33.9982 18.7586C33.2931 18.6486 32.4841 18.5938 31.5712 18.5938C30.642 18.5938 29.7615 18.6936 28.9301 18.8932C28.0987 19.0928 27.3673 19.4044 26.7355 19.828C26.1037 20.2518 25.6045 20.7915 25.2376 21.4475C24.8708 22.1033 24.6875 22.8876 24.6875 23.8001C24.6875 24.9653 25.0237 25.9594 25.6961 26.7823C26.3687 27.6052 27.3896 28.3019 28.7591 28.8722C29.297 29.0922 29.7984 29.3082 30.263 29.5201C30.7276 29.7319 31.1291 29.9519 31.4673 30.18C31.8055 30.4081 32.0725 30.6566 32.2682 30.9255C32.4638 31.1944 32.5616 31.4999 32.5616 31.8422C32.5616 32.0949 32.5005 32.3289 32.3782 32.5449C32.2559 32.7609 32.0704 32.9479 31.8218 33.1069C31.5732 33.2659 31.2635 33.3899 30.8927 33.4799C30.5217 33.57 30.0877 33.6139 29.5905 33.6139C28.7427 33.6139 27.9031 33.4659 27.0716 33.1679C26.2402 32.8709 25.47 32.4249 24.7609 31.8299ZM18.1859 22.1938H23.2031V18.9843H9.21875V22.1938H14.2113V36.4839H18.1859V22.1938Z" fill="white"/>
</svg>
