<svg width="24" height="24" viewBox="0 0 24 24" fill="none" xmlns="http://www.w3.org/2000/svg">
<path d="M12 0C18.6274 0 24 5.37258 24 12C24 18.6274 18.6274 24 12 24C5.37258 24 0 18.6274 0 12C0 5.37258 5.37258 0 12 0ZM16.7364 7.2636C16.3849 6.91213 15.8151 6.91213 15.4636 7.2636L12 10.727L8.53639 7.2636L8.44423 7.18305C8.09146 6.91457 7.58578 6.94142 7.2636 7.2636L7.18305 7.35576C6.91457 7.70853 6.94142 8.21421 7.2636 8.53639L10.727 12L7.2636 15.4636C6.91213 15.8151 6.91213 16.3849 7.2636 16.7364C7.61507 17.0879 8.18492 17.0879 8.53639 16.7364L12 13.273L15.4636 16.7364L15.5558 16.8169C15.9085 17.0854 16.4142 17.0586 16.7364 16.7364L16.8169 16.6442C17.0854 16.2915 17.0586 15.7858 16.7364 15.4636L13.273 12L16.7364 8.53639C17.0879 8.18492 17.0879 7.61507 16.7364 7.2636Z" fill="#D8DAE3"/>
</svg>
