<svg width="22" height="24" viewBox="0 0 22 24" fill="none" xmlns="http://www.w3.org/2000/svg">
<path d="M11.3135 0.171753C11.7518 0.241876 12.201 0.271654 12.6263 0.38874C15.167 1.08784 16.8034 2.72362 17.4769 5.2631C17.9211 6.93816 17.6782 8.56326 16.8449 10.0888C15.7066 12.1726 14.5622 14.2532 13.4208 16.3353C13.4002 16.3729 13.3849 16.4134 13.3549 16.4793C13.7019 16.5145 14.0296 16.5515 14.3582 16.5804C15.4982 16.6804 16.6261 16.8575 17.7358 17.1355C18.6563 17.366 19.5578 17.6548 20.3735 18.1595C20.7572 18.3968 21.105 18.6769 21.3235 19.0802C21.6632 19.7077 21.4855 20.4333 20.8987 20.9394C20.2611 21.4893 19.5082 21.8134 18.7219 22.0718C17.463 22.4855 16.167 22.727 14.8511 22.8566C14.0372 22.9368 13.2199 22.9807 12.4042 23.0427C12.3088 23.0499 12.2142 23.0688 12.1192 23.0824C11.4033 23.0824 10.6873 23.0824 9.97136 23.0824C9.84648 23.0698 9.72182 23.0557 9.59683 23.0448C8.56003 22.9545 7.52121 22.8829 6.48687 22.77C5.32797 22.6434 4.19265 22.3911 3.09011 22.0074C2.40852 21.7702 1.75798 21.4766 1.19209 21.0081C0.267572 20.2428 0.273123 19.1895 1.2255 18.4447C1.98212 17.8528 2.86576 17.5347 3.77213 17.2673C4.92921 16.926 6.11949 16.757 7.31159 16.6032C7.7446 16.5474 8.1821 16.5256 8.66271 16.4845C8.47945 16.1503 8.31039 15.8422 8.14143 15.534C7.10068 13.6347 6.04457 11.7435 5.02495 9.83274C4.43334 8.72411 4.20354 7.50982 4.3503 6.26937C4.67733 3.50426 6.15109 1.58937 8.75877 0.570612C9.30876 0.355759 9.88127 0.243904 10.4695 0.206334C10.5276 0.202599 10.5849 0.183814 10.6426 0.171966C10.866 0.171753 11.0897 0.171753 11.3135 0.171753ZM11.0008 18.7452C11.6148 17.6302 12.2061 16.5585 12.7954 15.4857C13.8422 13.5799 14.8861 11.6725 15.9346 9.76763C16.7433 8.29835 16.9655 6.75628 16.4587 5.1474C15.952 3.53916 14.9153 2.36446 13.3855 1.65661C11.9819 1.00725 10.5312 0.954742 9.07342 1.46973C7.74535 1.93903 6.72712 2.80196 6.03187 4.02287C5.23159 5.42821 5.07672 6.91905 5.51742 8.47532C5.74657 9.28477 6.18972 9.9907 6.5873 10.7179C7.78676 12.9119 8.99433 15.1014 10.1991 17.2925C10.4588 17.7649 10.7201 18.2366 11.0008 18.7452ZM10.9978 22.1509C10.9981 22.1453 10.9984 22.1396 10.9988 22.1341C11.036 22.1341 11.0734 22.1349 11.1106 22.134C12.5242 22.0968 13.9358 22.0414 15.3381 21.8334C16.5874 21.648 17.8203 21.4046 19.0013 20.9433C19.4806 20.756 19.948 20.5424 20.321 20.1761C20.6114 19.8909 20.6084 19.6089 20.3265 19.3222C20.228 19.2221 20.1196 19.1288 20.0044 19.0485C19.4684 18.6751 18.8626 18.4501 18.2449 18.2628C16.5147 17.7381 14.7323 17.5285 12.9353 17.4199C12.8777 17.4164 12.7919 17.4849 12.7582 17.5427C12.5751 17.8564 12.4038 18.1773 12.2291 18.496C11.9651 18.9774 11.7086 19.4629 11.4357 19.9391C11.2164 20.3218 10.7918 20.3164 10.5627 19.939C10.528 19.8819 10.4995 19.8211 10.4672 19.7625C10.0561 19.0144 9.64689 18.2653 9.22935 17.5209C9.19904 17.4668 9.10448 17.4103 9.04588 17.4162C8.12169 17.5086 7.19685 17.5978 6.27554 17.7148C5.16979 17.8552 4.08923 18.111 3.04731 18.5135C2.5684 18.6985 2.09729 18.905 1.72137 19.2696C1.37022 19.6102 1.35443 19.9099 1.73333 20.2114C2.04851 20.4622 2.40414 20.6828 2.77439 20.8404C4.50164 21.5754 6.33499 21.8489 8.18797 22.0029C9.12219 22.0806 10.061 22.1033 10.9978 22.1509Z" fill="#FF5A1F"/>
<path d="M14.8119 6.86974C14.8261 8.93875 13.0966 10.6852 11.0122 10.6748C8.83053 10.6639 7.18333 8.90161 7.18653 6.84936C7.18973 4.79946 8.81462 3.09238 10.9103 3.03762C13.0627 2.98138 14.8389 4.74641 14.8119 6.86974ZM11.011 9.70818C12.5861 9.70103 13.8702 8.41886 13.8642 6.85918C13.8583 5.26844 12.5691 3.98551 10.9778 3.98647C9.43164 3.98733 8.13196 5.30163 8.13666 6.85918C8.14146 8.43892 9.4294 9.71544 11.011 9.70818Z" fill="#FF5A1F"/>
</svg>
