<svg width="21" height="25" viewBox="0 0 21 25" fill="none" xmlns="http://www.w3.org/2000/svg">
<path d="M15.1076 24.5837C14.8229 24.4849 14.5298 24.4232 14.2751 24.2887C9.37128 21.6985 5.65903 17.9285 3.15242 12.9819C1.83203 10.3762 0.994715 7.61658 0.632465 4.71645C0.579206 4.28962 0.537794 3.85725 0.544091 3.42829C0.550068 3.0257 0.754781 2.68586 1.05811 2.42309C2.19951 1.434 3.50239 0.739918 4.95982 0.349064C5.78935 0.126634 6.60691 0.552069 6.91185 1.35534C7.49301 2.88588 8.06264 4.4208 8.62939 5.95678C8.83943 6.52609 8.75298 7.06456 8.38337 7.54571C7.97704 8.07467 7.56174 8.59691 7.14186 9.11521C7.0522 9.22578 7.04281 9.31394 7.09724 9.44191C8.16617 11.9558 9.66191 14.1809 11.5905 16.116C11.701 16.227 11.7978 16.2566 11.9504 16.2094C12.5581 16.0215 13.1699 15.8464 13.7807 15.6687C14.416 15.4838 14.9759 15.6165 15.4646 16.0653C16.6316 17.1371 17.8019 18.2053 18.9693 19.2766C19.6801 19.9288 19.7621 20.8415 19.1744 21.6016C18.2845 22.7527 17.1931 23.6673 15.9002 24.3328C15.6648 24.4539 15.389 24.497 15.1076 24.5837ZM1.4542 3.70804C1.45665 3.74593 1.45783 3.78382 1.46156 3.82149C1.7 6.20365 2.23889 8.51494 3.14751 10.731C5.45517 16.36 9.3161 20.5866 14.6756 23.4535C14.9664 23.6091 15.2387 23.642 15.5368 23.4797C16.664 22.8659 17.6292 22.0606 18.4224 21.0518C18.7317 20.6585 18.6934 20.2884 18.3225 19.9488C17.1652 18.8888 16.0058 17.8313 14.8515 16.7681C14.605 16.5412 14.342 16.4705 14.0173 16.5699C13.3004 16.7896 12.5784 16.9925 11.8603 17.2081C11.6128 17.2824 11.4125 17.2466 11.2179 17.0585C8.98246 14.8995 7.28242 12.381 6.11136 9.50232C5.99779 9.22301 6.02629 9.0041 6.21777 8.7711C6.68942 8.19731 7.14154 7.6075 7.60732 7.02891C7.80168 6.78748 7.84747 6.52823 7.74084 6.24176C7.18017 4.73587 6.62015 3.22977 6.05479 1.7257C5.90131 1.31734 5.56179 1.14614 5.14468 1.26376C3.87894 1.62089 2.74342 2.22649 1.7333 3.06839C1.53318 3.23532 1.43552 3.44601 1.4542 3.70804Z" fill="#FF5A1F"/>
<path d="M19.8556 10.9144C19.6077 10.9123 19.4634 10.7731 19.3866 10.476C18.8963 8.57704 17.804 7.1258 16.1273 6.11483C15.5591 5.77222 14.9461 5.53421 14.3039 5.36664C14.1774 5.33366 14.0409 5.27464 13.9498 5.18583C13.8001 5.04004 13.7899 4.84707 13.8944 4.66221C14.0103 4.45728 14.1948 4.39207 14.4178 4.44106C15.103 4.59155 15.7551 4.83586 16.368 5.17527C18.3831 6.29115 19.6846 7.96717 20.2779 10.1922C20.3932 10.6247 20.2174 10.9173 19.8556 10.9144Z" fill="#FF5A1F"/>
<path d="M15.7295 11.867C15.4922 11.8662 15.3352 11.7347 15.2622 11.453C15.1559 11.0423 14.9665 10.6768 14.6912 10.3558C14.3099 9.91111 13.8327 9.62357 13.2652 9.47713C13.0063 9.41032 12.8791 9.24083 12.8819 9.00879C12.8844 8.79874 13.0266 8.61345 13.24 8.56948C13.3248 8.55198 13.4223 8.55849 13.5066 8.58143C14.9051 8.96215 15.7923 9.85838 16.172 11.254C16.2635 11.5894 16.0515 11.868 15.7295 11.867Z" fill="#FF5A1F"/>
</svg>
